<?xml version="1.0" encoding="UTF-8" standalone="no"?>
<!-- Created with Inkscape (http://www.inkscape.org/) -->

<svg
   version="1.1"
   width="364"
   height="395"
   viewBox="0 0 363.742 395.119"
   id="svg2"
   xml:space="preserve"
   style="overflow:visible"
   sodipodi:docname="Lto-icon-hempleaf.svg"
   inkscape:version="1.3.2 (1:1.3.2+202311252150+091e20ef0f)"
   xmlns:inkscape="http://www.inkscape.org/namespaces/inkscape"
   xmlns:sodipodi="http://sodipodi.sourceforge.net/DTD/sodipodi-0.dtd"
   xmlns="http://www.w3.org/2000/svg"
   xmlns:svg="http://www.w3.org/2000/svg"
   xmlns:rdf="http://www.w3.org/1999/02/22-rdf-syntax-ns#"
   xmlns:cc="http://creativecommons.org/ns#"
   xmlns:dc="http://purl.org/dc/elements/1.1/"><sodipodi:namedview
     id="namedview1"
     pagecolor="#ffffff"
     bordercolor="#000000"
     borderopacity="0.25"
     inkscape:showpageshadow="2"
     inkscape:pageopacity="0.0"
     inkscape:pagecheckerboard="0"
     inkscape:deskcolor="#d1d1d1"
     showgrid="false"
     showguides="true"
     inkscape:document-units="mm"
     inkscape:zoom="2.956962"
     inkscape:cx="181.94349"
     inkscape:cy="160.63784"
     inkscape:window-width="3440"
     inkscape:window-height="1363"
     inkscape:window-x="0"
     inkscape:window-y="40"
     inkscape:window-maximized="1"
     inkscape:current-layer="svg2" /><defs
     id="defs4" /><metadata
     id="metadata8"><rdf:RDF><cc:Work
         rdf:about=""><dc:format>image/svg+xml</dc:format><dc:type
           rdf:resource="http://purl.org/dc/dcmitype/StillImage" /><dc:title /></cc:Work></rdf:RDF></metadata><path
     d="m 78.483497,43.611388 c 0.397905,2.300768 1.070442,7.414015 1.063452,7.828352 0.03701,1.19681 0.193481,2.67726 -0.09611,3.83981 0.488255,0.314651 1.100195,-1.208716 1.182651,0.07301 0.262724,1.138045 -0.04132,2.200203 -0.255414,3.277713 0.297375,0.169989 0.557105,-0.09646 0.809887,-0.254708 L 81.33018,58.17773 c 0.81191,1.14632 0.05976,2.612581 -0.221176,3.795683 0.333204,0.03269 0.698825,-0.294322 1.01106,-0.495281 0.777181,1.127067 0.1368,2.749532 -0.126944,3.852796 0.269627,-0.0608 0.581669,-0.244983 0.727666,-0.513136 0.782248,1.383868 0.161075,3.174899 -0.375913,4.514241 l 0.0101,0.06423 c 0.347937,0.02745 0.752876,-0.246428 1.089555,-0.492769 0.501898,1.501945 -0.147904,3.038838 -0.750347,4.308952 0.345234,0.06126 0.684435,-0.288265 1.017184,-0.463498 0.323614,1.492333 -0.113277,3.12105 -0.753588,4.358714 0.419762,0.169261 0.807858,-0.202067 1.202295,-0.351494 0.194005,1.425922 -0.345896,2.856029 -0.948339,4.126143 0.320877,0.10685 0.690916,-0.186694 1.052493,-0.270495 0.0772,1.700175 -0.707083,3.15335 -1.297706,4.733078 l -0.0059,0.10656 c 0.368591,0.156934 0.717338,-0.164184 1.058448,-0.239124 0.118985,0.92029 -0.869338,3.342686 -0.946209,3.786453 l 0.859835,0.08798 c -0.02759,1.083658 -0.59145,1.94549 -0.976697,2.90391 0.162742,0.26057 0.493102,0.102072 0.717576,0.07771 0.06352,1.219526 -0.59695,2.122043 -1.055865,3.106651 l 0.659064,0.208833 c -0.191364,1.188936 -0.708153,2.202757 -1.250256,3.23692 0.240512,0.03785 0.438154,0.178456 0.714013,0.132451 -0.277888,1.397192 -1.086101,2.603932 -1.477366,3.961762 0.200267,0.002 0.299643,0.34085 0.469091,0.14849 -0.04781,1.17929 -1.041456,2.25601 -1.266458,3.48574 0.167581,0.0681 0.12754,0.46657 0.442931,0.35068 -0.695473,1.34801 -1.276916,2.77141 -2.005278,4.0873 l 0.483372,0.15941 c -0.388572,1.25506 -1.300005,2.29715 -1.554211,3.60694 l 0.252096,0.41411 c -0.639554,1.2567 -0.446415,2.68057 -0.612011,4.05709 0.09731,0.37525 0.0055,0.89791 0.434539,1.13344 0.669916,-0.317 0.668449,-1.14787 0.844288,-1.7761 0.390548,-0.96307 0.465619,-2.10061 0.730128,-3.13886 l 0.336692,-0.33249 c 0.325416,-1.03728 0.490497,-2.14497 0.732064,-3.26067 0.192078,0.005 0.318121,-0.18698 0.484665,-0.30867 0.09511,-0.92334 0.41481,-1.7501 0.71201,-2.58432 0.748514,-0.17634 0.452608,-1.33284 0.759778,-1.9825 0.122536,-0.34684 0.292543,-0.8855 0.695408,-0.91724 0.148653,-0.96283 0.227851,-1.96417 0.771597,-2.79332 0.08292,0.15552 0.189065,0.18172 0.325534,0.15812 0.282746,-0.39738 0.07606,-0.96855 0.254411,-1.38972 0.256014,-0.52406 0.306251,-1.20345 0.755922,-1.60095 0.106538,0.23342 0.181913,0.0613 0.32065,0.003 0.228708,-0.97961 0.4454,-2.004977 1.122643,-2.827442 0.136675,-0.02368 0.163324,0.224028 0.32683,0.138224 0.349385,-0.423026 0.189321,-1.05014 0.456052,-1.508531 0.173691,-0.472448 0.456546,-0.886812 0.824974,-1.264618 l 0.331055,0.29132 c 0.340604,-0.610503 0.390279,-1.480829 0.767985,-2.123898 0.250753,-0.329699 0.401385,-0.776461 0.727746,-0.984095 0.05292,0.168163 0.21875,0.253924 0.331122,0.397774 0.379307,-0.85186 0.367627,-1.885102 1.130889,-2.555041 0.0592,-0.02493 0.176395,-0.282165 0.343412,-0.21312 0.04639,0.153248 0.101139,0.30104 0.237254,0.417948 0.121217,-0.22529 0.290684,-1.056532 0.56086,-1.690611 0.360368,-0.914063 0.806462,-1.394758 1.120268,-1.70116 l 0.320628,0.436069 c 0.374985,-0.816161 0.366989,-1.783194 0.857953,-2.507845 0.192845,-0.220125 0.313564,-0.548295 0.601317,-0.669488 0.106082,0.231194 0.206065,0.571437 0.540318,0.604897 0.163948,-0.553042 0.260927,-1.167415 0.496492,-1.6998 0.14359,-0.215836 0.102628,-0.147041 0.217841,-0.367623 0.334317,-0.728855 0.735927,-1.401351 1.283696,-2.031347 l 0.732887,0.625433 c 0.832847,-1.492991 1.533697,-3.138505 2.867467,-4.281037 0.096,0.185361 0.12331,0.519174 0.40866,0.539353 0.83603,-2.048504 2.67604,-3.643826 3.87668,-5.504672 1.52686,-2.235401 3.19956,-4.469305 5.13582,-6.422177 0.14798,-0.06233 0.28775,-0.121193 0.41273,-0.209407 -0.6387,3.269747 -3.09124,5.875657 -4.24414,8.998978 -0.94514,1.559641 -1.00899,3.522495 -2.00843,5.056611 0.2801,0.211142 0.57371,-0.01681 0.85972,-0.03297 -0.41311,1.524321 -0.97907,3.001707 -2.08532,4.242012 0.32321,0.08941 0.82057,0.138392 1.13341,-0.06113 0.30101,0.2217 -0.0153,0.664671 -0.0964,0.943246 -0.20906,0.555102 -0.64466,0.9975 -0.94979,1.508364 l 0.13312,0.150598 c -0.46382,0.645457 -0.97058,1.275127 -1.56001,1.869428 0.29437,0.08414 0.77395,0.194324 1.05326,-0.02737 -0.007,1.299909 -0.96875,2.382689 -2.07633,3.229105 0.28639,0.123795 0.58268,0.153883 0.94249,0.12334 -0.32314,1.140375 -1.1028,2.231034 -2.18326,2.860327 0.10695,0.23325 0.54978,0.0298 0.7944,0.202651 -0.0896,0.608858 -0.63361,1.150144 -1.03415,1.698774 -0.515326,0.546152 -1.099143,0.946917 -1.592082,1.379584 0.339814,0.169053 0.732949,0.194654 1.084764,0.271534 -0.352268,0.789655 -1.138325,1.778946 -1.872396,2.276872 -0.470419,0.42294 -0.866966,0.46968 -1.263037,0.93125 0.127517,0.36252 0.643477,0.12586 0.88453,0.35345 -0.608389,1.33069 -2.032544,1.89662 -3.059958,2.84721 0.111237,0.36696 0.612539,0.15583 0.769761,0.48891 -0.629288,1.11444 -1.846051,1.76484 -2.828274,2.42052 0.07475,0.0723 0.24261,0.34793 0.436869,0.33629 0.05198,0.41128 -0.544509,0.76414 -0.882657,1.02998 -0.620481,0.50332 -1.315068,0.76174 -1.947579,1.2365 l 0.32749,0.34606 c -0.821014,0.86607 -2.029794,1.27112 -2.801264,2.08245 0.05925,0.0786 0.151374,0.0744 0.202446,0.0699 -0.207123,0.43329 -0.761752,0.61606 -1.131704,0.90981 -0.585547,0.41964 -1.307432,0.51556 -1.901119,0.86991 0.08091,0.0697 0.102227,0.18296 0.211119,0.15308 -0.139723,0.47266 -0.641204,0.51156 -0.950514,0.78268 -0.67668,0.38712 -1.405869,0.59211 -2.01437,1.02045 0.268169,0.61546 -0.736834,0.9855 -0.972506,1.53487 -0.816081,0.42962 -0.859249,1.45329 -1.713828,2.02133 -0.03356,0.18692 -0.402356,0.79139 -0.380696,1.02668 0.435883,-0.0108 0.960322,-1.13286 1.469317,-1.1367 1.077026,-1.39014 2.45101,-1.70746 3.536376,-2.98011 1.12054,-0.48816 1.480411,-1.64473 2.707597,-1.90265 0.941798,-1.40094 2.523748,-1.30492 3.566498,-2.50638 1.160268,0.18649 1.690644,-1.26622 2.741663,-1.3621 0.09533,0.28896 0.328927,0.10298 0.470874,0.009 0.624636,-0.47047 1.104397,-1.36536 1.976565,-1.28259 -0.03193,0.0483 0.02192,0.0946 0.04761,0.13604 l 0.192544,0.006 c 0.784916,-0.50361 1.141394,-1.38095 2.112206,-1.47765 0.05255,0.0817 -0.0011,0.24221 0.107133,0.33481 l 0.221265,0.0111 c 0.784244,-0.74653 1.525735,-1.68076 2.467217,-1.95628 0.11322,0.143 0.0769,0.36692 0.27674,0.47149 2.59053,-2.00822 5.45506,-3.25097 8.2302,-4.76341 1.25778,-0.66792 2.62278,-1.06979 3.92978,-1.58638 l 0.19429,-0.0121 c -0.94407,1.43577 -2.63335,2.2513 -3.97275,3.26553 -1.85121,1.09185 -3.45048,3.01169 -5.15918,4.3557 -0.0874,0.24468 0.30422,0.14774 0.21711,0.39255 -0.75569,0.63045 -1.5012,1.41148 -2.32333,1.89568 0.66925,0.35942 -0.0869,0.78195 -0.35268,0.99552 -0.75615,0.42253 -1.49152,0.94036 -2.266495,1.2837 0.0844,0.22338 0.414141,0.22486 0.574699,0.39924 -0.542227,0.86724 -1.524265,1.21308 -2.428745,1.47303 0.08656,0.20553 0.274971,0.17942 0.384727,0.33889 -0.321665,0.67271 -1.322975,0.86937 -2.015301,1.24808 0.161002,0.0525 0.26444,0.21532 0.413399,0.34376 -0.780346,0.77877 -1.82901,0.84002 -2.787122,1.13925 l 0.465873,0.42813 c -0.377719,0.50514 -1.066421,0.55345 -1.629964,0.73804 -0.519954,0.0985 -1.112859,0.0525 -1.589598,0.23632 l 0.195537,0.19594 c -0.82415,0.45068 -1.928614,0.5001 -2.996375,0.41258 -0.123043,0.13822 -0.01893,0.30322 0.0082,0.42972 -0.939771,0.0498 -2.371466,-0.14343 -3.212791,-0.10126 -0.02529,0.16577 0.03169,0.0551 0.05062,0.32473 -0.915424,0.0903 -2.027979,-0.0461 -2.813836,-0.30316 -0.219244,0.40451 -0.834692,0.38542 -1.33219,0.45678 -0.400563,0.34173 -1.003252,0.24951 -1.342232,0.63403 0.666279,-0.12453 1.532261,-0.24605 2.28714,-0.3728 1.530217,-0.10726 3.426091,-0.1967 4.998206,-0.0264 -0.147707,0.26984 0.502416,0.20463 0.783801,0.25793 0.637524,0.0945 1.978755,0.0499 2.565016,0.28696 -0.05226,0.0397 -0.252956,0.15785 -0.0992,0.32008 3.030451,0.64511 6.480324,2.40099 9.123226,2.64305 -2.112676,1.13179 -5.132981,0.22347 -7.388804,0.0386 -0.188902,0.0445 -0.217128,0.0389 -0.199079,0.20532 -1.501775,0.008 -3.948706,-0.75687 -4.121791,-0.70817 -0.102974,0.0434 0.08382,0.25993 -0.0668,0.14937 -0.930613,-0.33646 -1.956948,-0.49225 -2.929856,-0.80847 l 0.02242,0.30031 c -0.913943,-0.23943 -1.800753,-0.69597 -2.667103,-1.00626 0,0 -0.06234,0.0778 -0.06039,0.26743 -0.289771,-0.17319 -2.070474,-0.92842 -3.124981,-0.46735 -0.194239,0.0129 -0.308446,0.0261 -0.443988,-0.0889 0,0 0.772239,9.01578 0.380748,10.26964 -0.02637,0.081 -1.100209,-0.004 -1.100209,-0.004 0.414703,-0.65865 -0.12003,-10.28265 -0.140584,-10.27399 -0.221979,0.0935 -0.02354,-0.076 -0.347257,0.0603 -0.41142,-0.0518 -0.899676,-0.36643 -1.331075,-0.0807 -0.726077,0.16641 -1.267905,0.91393 -2.014111,1.02107 l 8.92e-4,-0.12159 c -0.514447,-0.009 -1.262245,0.59986 -1.712358,0.70329 0.0211,-0.32107 -0.73811,0.13784 -1.159378,0.24654 -0.230309,0.11394 -0.905022,0.2759 -1.128631,0.30232 -0.16691,0.0352 0.112209,-0.0824 -0.05831,-0.0977 -0.507936,-0.0109 -1.145199,0.11933 -1.41261,0.26584 -0.355704,0.18393 -1.747486,0.57966 -1.728928,0.5203 0.0116,-0.0753 0.121714,-0.22526 0.121714,-0.22526 -0.474816,-0.0759 -1.211037,0.35372 -1.649309,0.27841 -0.04912,-0.0132 0.02148,-0.11335 -0.02735,-0.12642 -2.155168,0.24947 -5.742593,1.18927 -6.200835,1.36533 -0.487387,0.13558 -2.660896,1.55386 -1.001989,-0.11522 2.108898,-2.11754 5.399081,-2.63693 8.182258,-3.843 0.04676,-0.055 -0.257234,0.004 -0.21124,-0.0499 0.566481,-0.67176 3.72683,-0.28705 3.077923,-0.62116 0.230067,-0.13175 4.012205,-0.35643 6.33293,-0.24729 -1.442519,-0.24186 -3.359707,-0.1628 -3.756087,-0.18461 -0.576287,-0.0525 -1.022544,-0.10657 -1.517914,-0.17381 0.05618,0.0121 0.375998,-0.19321 0.04143,-0.1895 -1.104866,-0.055 -1.802116,-0.24529 -1.981707,-0.32695 0.133599,-0.1775 0.189054,-0.26935 0.176395,-0.28216 -0.8289,-0.11795 -1.980796,0.0889 -2.746115,-0.31475 0.04896,-0.0889 0.171696,-0.10717 0.149702,-0.21914 -0.968664,-0.0591 -2.412438,0.13276 -3.217807,-0.51538 l 0.205377,-0.17313 -0.125745,-0.15492 c -0.913748,-0.13551 -2.175997,0.0162 -2.812826,-0.70295 l 0.281053,-0.25776 -0.0992,-0.11431 c -0.929519,-0.23044 -2.102197,-0.1189 -2.609539,-0.89256 0.114273,0.004 0.180142,-0.1279 0.277315,-0.20343 l 0.01,-0.0378 c -0.948444,-0.15472 -1.997162,-0.19702 -2.507105,-1.02283 0.240558,-0.17004 0.546421,-0.26546 0.712605,-0.52591 -1.304397,-0.50572 -2.596781,-0.96569 -3.595081,-2.04319 0.159931,-0.25805 0.556897,-0.21761 0.702268,-0.47001 -1.055457,-0.36858 -2.017567,-0.86601 -2.866761,-1.62395 l 0.501249,-0.43593 c -1.21227,-0.49373 -2.375726,-1.19917 -3.203857,-2.28058 l 0.414724,-0.22767 c -2.08359,-1.511 -3.919849,-3.50363 -5.930032,-5.17375 -1.402707,-1.31373 -3.200183,-2.766103 -3.679508,-4.645386 3.270529,1.962087 6.183035,4.510556 9.717474,5.950096 0.139937,0.0444 0.294284,0.41087 0.467354,0.0984 0.669022,0.25546 1.312952,0.58925 1.832066,1.16677 0.13997,-0.0589 0.179129,-0.19523 0.152069,-0.33992 l -0.0464,-0.0487 c 1.037052,0.22145 1.910141,0.85802 2.735097,1.55841 0.25676,-0.19477 0.101287,-0.78801 0.581321,-0.46989 1.059809,0.60874 1.980746,1.55426 3.012543,2.24014 l 0.227238,-0.51194 c 0.971734,0.45708 1.767053,1.21351 2.602173,1.88059 -0.101816,-0.40723 0.309667,-0.58054 0.616643,-0.36305 l 1.69481,1.4327 c 0.0891,-0.386 0.398728,-0.0818 0.621126,-0.0881 0.821252,0.45028 1.304744,1.8051 2.395841,1.58029 0.862678,0.38201 1.258967,1.6332 2.256197,1.76011 1.051907,1.63571 3.196925,1.55749 4.056056,3.25261 0.723143,0.54484 1.402466,1.07184 2.104295,1.60629 0.81474,0.22797 1.993546,1.89493 2.890796,1.80743 -0.953717,-0.94866 -1.59299,-2.30563 -2.750178,-3.07663 l 0.151884,-0.13294 -2.766528,-2.15015 c -0.157469,-0.20956 0.0091,-0.24559 0.100458,-0.42225 l -2.768898,-2.05236 0.252015,-0.24626 c -1.025213,-0.84836 -2.263743,-1.49073 -3.176026,-2.46168 0.05334,-0.16064 0.575629,-0.0525 0.381618,-0.4729 -0.861199,-0.71175 -1.941882,-1.26088 -2.609452,-2.16791 0.161963,-0.0682 0.415622,-0.10487 0.470905,-0.31836 -0.954129,-0.74279 -2.137048,-1.33356 -2.758548,-2.39552 0.301189,0.11756 0.337037,-0.33167 0.616609,-0.2597 -0.826136,-0.60551 -2.145147,-1.20914 -2.4102,-2.37283 0.213758,-0.09 0.434008,-0.16464 0.661827,-0.27874 -0.985375,-0.56991 -1.932393,-1.606088 -2.340124,-2.620143 0.240331,-0.274005 0.691177,0.03801 0.931181,-0.254007 -0.901879,-0.762372 -2.255086,-1.470178 -2.534754,-2.731765 0.225984,-0.07824 0.534735,-0.06913 0.729815,-0.220741 -0.962873,-0.562449 -2.022612,-1.55599 -2.276843,-2.670994 0.308305,-0.129848 0.713892,0.01151 1.005208,-0.164428 -0.992528,-0.690316 -1.961724,-1.738933 -2.271667,-2.842572 l 0.721906,-0.11311 c -0.437098,-0.440255 -1.722408,-1.56143 -1.701174,-2.332659 0.25257,-0.124283 0.583752,0.03001 0.812449,-0.168185 -1.254906,-1.06622 -1.689592,-2.264938 -1.726005,-2.902991 0.386316,-0.0078 0.826738,0.135794 1.143038,-0.10148 -1.02946,-1.105514 -2.209405,-2.263804 -2.344568,-3.779849 0.308305,-0.129848 1.002444,0.323146 1.223956,-0.116201 -1.114049,-1.019069 -1.478324,-2.378118 -1.815228,-3.712397 0.195254,0.07288 0.27536,-0.06443 0.415124,-0.123293 -1.049188,-1.462617 -1.57495,-3.184407 -2.502176,-4.70565 -1.650225,-2.378318 -2.843724,-4.924794 -5.046843,-7.070248 1.580631,-0.113967 2.91603,1.005471 4.006201,2.329831 1.865798,2.045528 3.639178,3.791185 5.292839,5.901861 l 0.194,-0.01224 c 0.618558,0.830883 1.413878,1.587316 1.668094,2.564388 0.357714,0.0047 0.311416,-0.392515 0.426716,-0.612892 0.275598,-0.04662 0.545925,0.41136 0.717307,0.634413 0.479907,0.76828 0.76811,1.597941 1.080673,2.400399 0.41708,-0.03821 0.263768,-0.873375 0.67791,-0.648508 0.924941,0.960777 1.40322,2.119356 1.658973,3.318414 0.256867,-0.211757 0.395779,-0.582922 0.433173,-0.942304 0.308566,0.09485 0.629651,0.322858 0.7952,0.635486 0.558662,0.977107 1.116414,1.949756 1.260439,3.074874 0.421823,0.01327 0.353055,-0.49475 0.548302,-0.71492 1.069697,1.040167 1.341485,2.484149 1.724476,3.847417 0.343466,-0.109569 0.373395,-0.469438 0.549703,-0.75181 0.816222,0.972689 1.067485,2.16396 1.402369,3.32969 0.330795,-0.03623 0.403986,-0.724316 0.735453,-0.517626 0.672332,0.895354 0.776309,2.027658 1.139744,3.07731 0.212937,0.03155 0.308058,-0.216621 0.472526,-0.320255 0.733567,0.937322 0.951259,2.116112 0.982083,3.337306 0.09038,0.153112 0.224441,0.06059 0.329121,0.0862 l 0.476562,-0.408353 c 0.561568,1.046061 0.540597,2.289071 0.87402,3.431219 0.196819,0.05649 0.248712,-0.1909 0.396719,-0.270418 0.585145,0.895773 0.737746,1.956781 0.881009,3.016881 0.107835,0.21352 0.377039,0.25744 0.5262,0.0542 0.629155,0.7756 0.459308,1.849 0.802546,2.68694 0.388476,-0.0257 0.35659,0.4548 0.456408,0.67169 0.125272,1.03864 0.186172,2.06809 0.475113,3.01844 l 0.32456,-0.051 c 0.349541,1.01436 0.06796,2.37923 0.408951,3.48189 0.959962,0.65322 0.233766,1.99723 0.808953,2.92624 -0.05976,0.37122 0.09365,0.75672 0.447628,0.81575 -0.07379,0.93372 0.272471,1.75587 0.422498,2.62921 0.354202,0.16299 0.312994,0.90633 0.503151,1.39977 0.444519,0.74689 0.579434,1.64353 1.477094,1.96725 l 0.144572,-0.12962 c -0.593694,-2.08763 -0.67798,-4.38497 -1.806292,-6.30551 l 0.135702,-0.004 c -0.191721,-1.32283 -0.771278,-2.6759 -1.168221,-4.0091 -0.157635,-0.3329 0.227951,-0.30339 0.396163,-0.39239 -0.498062,-1.45032 -1.13331,-2.81382 -1.576051,-4.29712 0.08421,0.0345 0.171339,0.015 0.187704,0.0952 l 0.346802,-0.26827 c -0.388326,-1.3949 -1.065315,-2.67306 -1.38297,-4.08805 0.191139,0.14528 0.413602,0.0168 0.545071,-0.12502 -0.296546,-1.278683 -1.440773,-2.24874 -1.523561,-3.617448 l 0.722115,0.0081 c 0.01097,-0.62897 -0.707741,-1.226493 -0.879058,-1.880325 -0.182775,-0.47477 -0.29391,-0.984554 -0.306091,-1.531175 0.141396,0.0266 0.452414,-0.01751 0.674227,-0.04245 0.06151,-0.388897 -0.397008,-0.696715 -0.514492,-1.099767 -0.285709,-0.554835 -0.468034,-1.153213 -0.562121,-1.808113 0.298076,-0.09094 0.708181,0.222026 1.042765,0.01093 -0.583105,-1.034571 -1.454169,-2.073698 -1.113746,-3.40285 0.213401,0.01369 0.4862,0.315516 0.656448,0.01876 -0.445815,-1.058513 -1.208591,-2.007731 -1.070464,-3.300082 0.30242,0.08026 0.660467,0.171943 0.944653,0.105492 -0.244696,-0.417233 -1.168057,-3.428378 -0.859798,-4.017998 0.320588,0.227971 0.6752,0.390793 1.068669,0.50337 0.100218,-0.664137 -1.34721,-3.691715 -0.853363,-4.577296 0.270024,0.249265 0.574702,0.399241 0.923914,0.423978 -0.0046,-0.380409 -0.442909,-0.78386 -0.573397,-1.195956 -0.198191,-1.005507 -0.626259,-2.124733 -0.329615,-3.103914 0.354429,0.266955 0.801336,0.357027 1.183449,0.505845 -0.128445,-0.550889 -0.813221,-2.464643 -0.802663,-2.807881 -0.01336,-0.565486 -0.0037,-1.140667 0.289552,-1.576345 0.269613,0.249441 0.603263,0.42109 0.930201,0.54233 -0.126675,-1.001749 -0.874317,-2.075918 -0.461717,-3.193476 0.138276,0.08067 0.571981,0.226149 0.849802,0.334195 -0.236983,-0.97465 -0.838492,-2.236204 -0.204795,-3.301684 0.239317,0.177504 0.564211,0.437539 0.936366,0.539734 -0.318828,-1.148294 -0.954943,-2.719548 -0.20421,-3.955318 0.266255,0.304093 0.568762,0.5058 0.932589,0.628442 -0.185351,-0.78828 -0.436472,-1.754555 -0.230912,-2.685695 0.05547,-0.299236 0.229507,-0.546773 0.346208,-0.804041 0.300161,0.323693 0.566068,0.608573 0.920803,0.686645 -0.131677,-1.277937 -0.200443,-3.061521 0.145397,-4.320358 0.282079,0.05495 0.477765,0.352949 0.749527,0.446607 0.230118,-3.073464 1.258637,-5.974999 1.232342,-9.255064 -0.145276,-2.051435 -0.133688,-6.235578 0.4083,-6.270251 0.544518,-0.02291 0.972286,3.825423 1.401097,5.774381 z"
     id="path10"
     style="fill:none;fill-opacity:1;stroke:#000000;stroke-width:0.0421586;stroke-dasharray:none;stroke-opacity:1" /></svg>
