<?xml version="1.0" encoding="UTF-8" standalone="no"?>
<!-- Created with Inkscape (http://www.inkscape.org/) -->

<svg
   width="210mm"
   height="297mm"
   viewBox="0 0 210 297"
   version="1.1"
   id="svg1"
   inkscape:version="1.4.1 (1:1.4.1+202503302257+93de688d07)"
   sodipodi:docname="Namensschild.svg"
   xmlns:inkscape="http://www.inkscape.org/namespaces/inkscape"
   xmlns:sodipodi="http://sodipodi.sourceforge.net/DTD/sodipodi-0.dtd"
   xmlns="http://www.w3.org/2000/svg"
   xmlns:svg="http://www.w3.org/2000/svg">
  <sodipodi:namedview
     id="namedview1"
     pagecolor="#ffffff"
     bordercolor="#000000"
     borderopacity="0.25"
     inkscape:showpageshadow="2"
     inkscape:pageopacity="0.0"
     inkscape:pagecheckerboard="0"
     inkscape:deskcolor="#d1d1d1"
     inkscape:document-units="mm"
     inkscape:zoom="2.8578564"
     inkscape:cx="395.75117"
     inkscape:cy="288.32799"
     inkscape:window-width="1920"
     inkscape:window-height="1003"
     inkscape:window-x="0"
     inkscape:window-y="40"
     inkscape:window-maximized="1"
     inkscape:current-layer="svg1"
     showgrid="false" />
  <defs
     id="defs1" />
  <g
     inkscape:label="LayerGrid"
     inkscape:groupmode="layer"
     id="layer1"
     transform="rotate(57.175132,100.08699,100.13215)"
     style="display:inline">
    <g
       id="g2"
       inkscape:label="grid"
       transform="rotate(-135,100.05,100.05)">
      <g
         id="g1"
         inkscape:label="segments">
        <path
           style="fill:none;stroke:#000000;stroke-width:0.1;stroke-linejoin:round;stroke-dasharray:none;stroke-opacity:1"
           id="path1-60"
           inkscape:label="r"
           sodipodi:type="arc"
           sodipodi:cx="100.05"
           sodipodi:cy="100.05"
           sodipodi:rx="50"
           sodipodi:ry="50"
           sodipodi:start="5.8817596"
           sodipodi:end="0"
           sodipodi:arc-type="slice"
           d="M 146.07525,80.513448 A 50,50 0 0 1 150.05,100.05 h -50 z" />
        <path
           style="fill:none;stroke:#000000;stroke-width:0.1;stroke-linejoin:round;stroke-dasharray:none;stroke-opacity:1"
           id="path1-2"
           inkscape:label="e"
           sodipodi:type="arc"
           sodipodi:cx="100.05"
           sodipodi:cy="100.05"
           sodipodi:rx="50"
           sodipodi:ry="50"
           sodipodi:start="5.4803339"
           sodipodi:end="5.8817596"
           sodipodi:arc-type="slice"
           d="m 134.78292,64.083015 a 50,50 0 0 1 11.29233,16.430433 L 100.05,100.05 Z" />
        <path
           style="fill:none;stroke:#000000;stroke-width:0.1;stroke-linejoin:round;stroke-dasharray:none;stroke-opacity:1"
           id="path1-97"
           inkscape:label="i"
           sodipodi:type="arc"
           sodipodi:cx="100.05"
           sodipodi:cy="100.05"
           sodipodi:rx="50"
           sodipodi:ry="50"
           sodipodi:start="5.2185345"
           sodipodi:end="5.4803339"
           sodipodi:arc-type="slice"
           d="m 124.29049,56.319019 a 50,50 0 0 1 10.49243,7.763996 L 100.05,100.05 Z" />
        <path
           style="fill:none;stroke:#000000;stroke-width:0.1;stroke-linejoin:round;stroke-dasharray:none;stroke-opacity:1"
           id="path1-0"
           inkscape:label="t"
           sodipodi:type="arc"
           sodipodi:cx="100.05"
           sodipodi:cy="100.05"
           sodipodi:rx="50"
           sodipodi:ry="50"
           sodipodi:start="4.9567351"
           sodipodi:end="5.2185345"
           sodipodi:arc-type="slice"
           d="m 112.1461,51.535217 a 50,50 0 0 1 12.14439,4.783802 L 100.05,100.05 Z" />
        <path
           style="fill:none;stroke:#000000;stroke-width:0.1;stroke-linejoin:round;stroke-dasharray:none;stroke-opacity:1"
           id="path1-54"
           inkscape:label="n"
           sodipodi:type="arc"
           sodipodi:cx="100.05"
           sodipodi:cy="100.05"
           sodipodi:rx="50"
           sodipodi:ry="50"
           sodipodi:start="4.5553093"
           sodipodi:end="4.9567351"
           sodipodi:arc-type="slice"
           d="M 92.228277,50.665586 A 50,50 0 0 1 112.1461,51.535217 L 100.05,100.05 Z" />
        <path
           style="fill:none;stroke:#000000;stroke-width:0.1;stroke-linejoin:round;stroke-dasharray:none;stroke-opacity:1"
           id="path1-69"
           inkscape:label="a"
           sodipodi:type="arc"
           sodipodi:cx="100.05"
           sodipodi:cy="100.05"
           sodipodi:rx="50"
           sodipodi:ry="50"
           sodipodi:start="4.1538836"
           sodipodi:end="4.5553093"
           sodipodi:arc-type="slice"
           d="M 73.554039,57.647599 A 50,50 0 0 1 92.228277,50.665586 L 100.05,100.05 Z" />
        <path
           style="fill:none;stroke:#000000;stroke-width:0.1;stroke-linejoin:round;stroke-dasharray:none;stroke-opacity:1"
           id="path1-7"
           inkscape:label="v"
           sodipodi:type="arc"
           sodipodi:cx="100.05"
           sodipodi:cy="100.05"
           sodipodi:rx="50"
           sodipodi:ry="50"
           sodipodi:start="3.7524579"
           sodipodi:end="4.1538836"
           sodipodi:arc-type="slice"
           d="M 59.092401,71.371181 A 50,50 0 0 1 73.554039,57.647599 L 100.05,100.05 Z" />
        <path
           style="fill:none;stroke:#000000;stroke-width:0.1;stroke-linejoin:round;stroke-dasharray:none;stroke-opacity:1"
           id="path1-8"
           inkscape:label="e"
           sodipodi:type="arc"
           sodipodi:cx="100.05"
           sodipodi:cy="100.05"
           sodipodi:rx="50"
           sodipodi:ry="50"
           sodipodi:start="3.3510322"
           sodipodi:end="3.7524579"
           sodipodi:arc-type="slice"
           d="M 51.142623,89.654417 A 50,50 0 0 1 59.092401,71.371181 L 100.05,100.05 Z" />
        <path
           style="fill:none;stroke:#000000;stroke-width:0.1;stroke-linejoin:round;stroke-dasharray:none;stroke-opacity:1"
           id="path1-4"
           inkscape:label="D"
           sodipodi:type="arc"
           sodipodi:cx="100.05"
           sodipodi:cy="100.05"
           sodipodi:rx="50"
           sodipodi:ry="50"
           sodipodi:start="2.8099801"
           sodipodi:end="3.3510322"
           sodipodi:arc-type="slice"
           d="M 52.774074,116.32841 A 50,50 0 0 1 51.142623,89.654417 L 100.05,100.05 Z" />
        <path
           style="fill:none;stroke:#000000;stroke-width:0.1;stroke-linejoin:round;stroke-dasharray:none;stroke-opacity:1"
           id="path1-6"
           inkscape:label="r"
           sodipodi:type="arc"
           sodipodi:cx="100.05"
           sodipodi:cy="100.05"
           sodipodi:rx="50"
           sodipodi:ry="50"
           sodipodi:start="2.4085544"
           sodipodi:end="2.8099801"
           sodipodi:arc-type="slice"
           d="M 62.892761,133.50653 A 50,50 0 0 1 52.774074,116.32841 L 100.05,100.05 Z" />
        <path
           style="fill:none;stroke:#000000;stroke-width:0.1;stroke-linejoin:round;stroke-dasharray:none;stroke-opacity:1"
           id="path1-9"
           inkscape:label="e"
           sodipodi:type="arc"
           sodipodi:cx="100.05"
           sodipodi:cy="100.05"
           sodipodi:rx="50"
           sodipodi:ry="50"
           sodipodi:start="2.0071286"
           sodipodi:end="2.4085544"
           sodipodi:arc-type="slice"
           d="M 78.919092,145.36539 A 50,50 0 0 1 62.892761,133.50653 L 100.05,100.05 Z" />
        <path
           style="fill:none;stroke:#000000;stroke-width:0.1;stroke-linejoin:round;stroke-dasharray:none;stroke-opacity:1"
           id="path1-85"
           inkscape:label="l"
           sodipodi:type="arc"
           sodipodi:cx="100.05"
           sodipodi:cy="100.05"
           sodipodi:rx="50"
           sodipodi:ry="50"
           sodipodi:start="1.7453293"
           sodipodi:end="2.0071286"
           sodipodi:arc-type="slice"
           d="m 91.367592,149.29039 a 50,50 0 0 1 -12.4485,-3.925 L 100.05,100.05 Z" />
        <path
           style="fill:none;stroke:#000000;stroke-width:0.1;stroke-linejoin:round;stroke-dasharray:none;stroke-opacity:1"
           id="path1-5"
           inkscape:label="s"
           sodipodi:type="arc"
           sodipodi:cx="100.05"
           sodipodi:cy="100.05"
           sodipodi:rx="50"
           sodipodi:ry="50"
           sodipodi:start="1.3439035"
           sodipodi:end="1.7453293"
           sodipodi:arc-type="slice"
           d="m 111.29756,148.76851 a 50,50 0 0 1 -19.929968,0.52188 L 100.05,100.05 Z" />
        <path
           style="fill:none;stroke:#000000;stroke-width:0.1;stroke-linejoin:round;stroke-dasharray:none;stroke-opacity:1"
           id="path1-88"
           inkscape:label="n"
           sodipodi:type="arc"
           sodipodi:cx="100.05"
           sodipodi:cy="100.05"
           sodipodi:rx="50"
           sodipodi:ry="50"
           sodipodi:start="0.9424778"
           sodipodi:end="1.3439035"
           sodipodi:arc-type="slice"
           d="m 129.43927,140.50085 a 50,50 0 0 1 -18.14171,8.26766 L 100.05,100.05 Z" />
        <path
           style="fill:none;stroke:#000000;stroke-width:0.1;stroke-linejoin:round;stroke-dasharray:none;stroke-opacity:1"
           id="path1-64"
           inkscape:label="e"
           sodipodi:type="arc"
           sodipodi:cx="100.05"
           sodipodi:cy="100.05"
           sodipodi:rx="50"
           sodipodi:ry="50"
           sodipodi:start="0.54105207"
           sodipodi:end="0.9424778"
           sodipodi:arc-type="slice"
           d="m 142.90837,125.80191 a 50,50 0 0 1 -13.4691,14.69894 L 100.05,100.05 Z" />
        <path
           style="fill:none;stroke:#000000;stroke-width:0.1;stroke-linejoin:round;stroke-dasharray:none;stroke-opacity:1"
           id="path1"
           inkscape:label="B"
           sodipodi:type="arc"
           sodipodi:cx="100.05"
           sodipodi:cy="100.05"
           sodipodi:rx="50"
           sodipodi:ry="50"
           sodipodi:start="0"
           sodipodi:end="0.54105207"
           sodipodi:arc-type="slice"
           d="m 150.05,100.05 a 50,50 0 0 1 -7.14163,25.75191 L 100.05,100.05 Z" />
      </g>
      <circle
         style="fill:none;stroke:#000000;stroke-width:0.1;stroke-linejoin:round;stroke-dasharray:none;stroke-opacity:1"
         id="path2-2"
         cx="-122.54626"
         cy="70.752121"
         inkscape:label="baseheight"
         transform="translate(222.58572,29.303967)"
         r="40" />
      <circle
         style="fill:none;stroke:#000000;stroke-width:0.1;stroke-linejoin:round;stroke-dasharray:none;stroke-opacity:1"
         id="path2"
         cx="100.05"
         cy="100.05"
         inkscape:label="baseline"
         r="15" />
    </g>
  </g>
  <g
     inkscape:groupmode="layer"
     id="layer2"
     inkscape:label="LayerDraw"
     transform="rotate(27.175136,100.0795,100.23113)">
    <path
       id="rect2-6-8"
       style="fill:none;stroke:#0000ff;stroke-width:0.1;stroke-linejoin:round"
       inkscape:label="B"
       d="m 64.815817,64.329944 c -0.482346,4.63375 4.928581,6.856512 8.162207,10.945709 4.933005,6.238209 11.169928,10.455591 16.478642,14.328021 2.102731,1.533833 5.606034,-1.787725 6.581996,-4.200528 1.934989,-4.783737 0.254012,-11.616039 -3.589908,-15.058799 -2.190748,-1.962117 -7.68244,1.646879 -8.755123,-1.091484 -1.265774,-3.231287 6.986364,-4.503262 6.707515,-7.962401 -0.325836,-4.042011 -5.178982,-7.68688 -9.226903,-7.928461 -6.553347,-0.391106 -15.67872,4.438217 -16.358426,10.967943 z m 7.561326,1.31578 c -0.31427,-3.235544 4.072683,-6.583348 7.320444,-6.443499 1.39654,0.06014 2.808033,1.636104 2.897973,3.031042 0.174635,2.708522 -2.166834,6.008673 -4.824564,6.559183 -2.03828,0.4222 -5.192618,-1.074929 -5.393853,-3.146726 z m 9.66607,11.438413 c 0.151964,-1.709297 2.662601,-3.005693 4.358034,-2.740557 1.862101,0.291199 3.294323,2.474603 3.638988,4.327552 0.279588,1.50309 -0.01098,3.958314 -1.492188,4.337098 -2.841289,0.726594 -6.764542,-3.002893 -6.504834,-5.924093 z"
       transform="rotate(30,100.05,100.05)"
       sodipodi:nodetypes="sssssssssssssssssss" />
    <path
       id="rect2-1"
       style="display:inline;fill:none;stroke:#0000ff;stroke-width:0.1;stroke-linejoin:round"
       inkscape:label="e"
       d="m 111.67929,61.933417 c -2.69275,0.414683 -3.39711,2.899752 -4.64751,5.320362 -0.75597,1.463459 -1.18835,3.432238 -1.78965,5.093825 -1.60216,4.427316 -3.93386,9.190162 -1.96534,13.112875 1.06722,2.126677 3.95462,4.105713 6.24441,3.458736 2.45487,-0.69362 5.15754,-4.526359 3.7642,-6.663206 -0.99017,-1.518548 -4.1032,1.792381 -5.41189,0.537889 -1.56746,-1.50254 -0.92414,-4.759666 0.36965,-6.503412 0.74384,-1.002531 2.26853,-1.298493 3.51683,-1.28733 2.21199,0.01978 4.0573,2.979314 6.19006,2.392248 3.70043,-1.018585 7.97742,-5.325037 7.10304,-9.062164 -1.1259,-4.812107 -8.48931,-7.152033 -13.3738,-6.399823 z m 1.44996,5.462961 c 2.30638,-0.827539 6.74466,0.151918 6.87637,2.598723 0.0907,1.684994 -2.84337,2.06411 -4.51594,2.287612 -1.55717,0.208082 -3.97036,0.481061 -4.61606,-0.951121 -0.62142,-1.378336 0.83252,-3.424596 2.25563,-3.935214 z"
       sodipodi:nodetypes="sssssssssssssssss" />
    <path
       id="rect2-6-4"
       style="fill:none;stroke:#0000ff;stroke-width:0.1;stroke-linejoin:round"
       inkscape:label="n"
       d="m 127.01358,70.53545 c 0.24779,1.029187 -1.73488,1.971091 -1.2578,2.916086 0.8072,1.598881 3.91229,0.0081 5.23356,1.217289 1.85626,1.698859 3.26756,4.828425 2.35327,7.172755 -2.7967,7.17101 -12.76921,13.450786 -20.15203,11.273867 -0.70039,-0.206518 -1.21019,-1.229159 -1.02565,-1.935653 1.31753,-5.04395 10.78091,-3.826906 13.14551,-8.472978 0.55737,-1.095142 0.45139,-2.6442 -0.20892,-3.68053 -0.49666,-0.77948 -1.52821,-1.445926 -2.44272,-1.312033 -5.49212,0.8041 -6.27323,11.191241 -11.79528,11.754211 -1.05809,0.107872 -2.49626,-0.700221 -2.66813,-1.74982 -1.35974,-8.303671 7.22441,-18.95407 15.59054,-19.852797 1.38822,-0.149129 2.90084,1.312185 3.22765,2.669603 z"
       sodipodi:nodetypes="sssssssssssss" />
    <path
       id="rect2-6-9"
       style="fill:none;stroke:#0000ff;stroke-width:0.1;stroke-linejoin:round"
       inkscape:label="s"
       d="m 108.70421,60.552544 c 1.44565,1.760135 0.70423,5.727918 -1.35703,6.697032 -2.18616,1.027838 -4.20617,-4.459892 -6.38797,-3.422827 -2.166408,1.029747 -2.732447,5.090726 -1.369467,7.064552 1.173127,1.698883 4.912407,-0.634394 6.103737,1.051774 2.65339,3.755521 1.33368,10.821792 -2.33339,13.596138 -1.74295,1.318643 -4.933147,0.812367 -6.520277,-0.690207 -1.39204,-1.317877 -2.346891,-4.400153 -0.917242,-5.677132 1.362952,-1.217404 3.766455,2.502268 5.279609,1.477537 1.63466,-1.107015 1.95584,-4.421495 0.63476,-5.88858 -1.37346,-1.525252 -4.405333,1.085869 -6.157492,0.01689 -1.942885,-1.18534 -2.608384,-3.859244 -3.107038,-6.07987 -0.590107,-2.627889 -1.681696,-6.196933 0.247658,-8.076193 3.79288,-3.6944 12.523592,-4.160718 15.884142,-0.06911 z"
       sodipodi:nodetypes="ssssssssssssss"
       transform="rotate(72.364181,100.05,100.05)" />
    <path
       id="rect2-6-80"
       style="fill:none;stroke:#0000ff;stroke-width:0.1;stroke-linejoin:round"
       inkscape:label="l"
       d="m 99.615736,50.26104 c 7.219364,7.108874 -6.853753,23.032958 0.106729,30.395498 0.628195,0.664482 2.092845,-0.484135 2.738385,0.163506 1.04148,1.044863 1.23403,3.320119 0.24946,4.418772 -1.13303,1.264315 -3.792921,1.370004 -5.086001,0.269915 -8.983597,-7.642802 -11.636981,-26.353958 -3.811152,-35.178573 1.283424,-1.447223 4.424295,-1.426308 5.802579,-0.06912 z"
       sodipodi:nodetypes="sssssss"
       transform="rotate(92.222717,100.04003,100.04271)" />
    <path
       id="rect2-1-0"
       style="display:inline;fill:none;stroke:#0000ff;stroke-width:0.1;stroke-linejoin:round"
       inkscape:label="e"
       d="m 103.27687,85.46044 c 1.06717,2.12662 3.95442,4.105657 6.24415,3.458742 2.45485,-0.693565 5.15754,-4.526201 3.76426,-6.663038 -0.99014,-1.518545 -4.10311,1.79224 -5.41183,0.537808 -1.56756,-1.502531 -0.92466,-4.759803 0.36913,-6.503631 0.74391,-1.002677 2.26887,-1.29858 3.51732,-1.287377 2.21207,0.01985 4.04749,2.942443 6.1902,2.392502 3.47737,-0.892492 7.59627,-4.712359 6.93438,-8.240896 -0.92493,-4.930853 -8.22777,-7.850502 -13.20501,-7.22129 -2.70305,0.341715 -4.71941,3.162371 -5.96984,5.583052 -2.77024,5.362853 -5.14002,12.549204 -2.43276,17.944128 z m 7.59688,-14.129312 c -0.62126,-1.37818 0.83252,-3.424045 2.25543,-3.934601 2.30635,-0.827544 6.74463,0.151635 6.8764,2.598409 0.0907,1.685009 -2.84337,2.064246 -4.51596,2.287688 -1.55714,0.208019 -3.97027,0.480689 -4.61587,-0.951496 z"
       transform="rotate(83.884597,100.10495,100.482)"
       sodipodi:nodetypes="ssssssssssssssss" />
    <path
       id="rect2-6-2"
       style="display:inline;fill:none;stroke:#0000ff;stroke-width:0.1;stroke-linejoin:round"
       inkscape:label="r"
       d="m 135.65082,117.72082 c -1.69064,0.58044 -4.01464,-0.9819 -4.6634,-2.64752 -0.7038,-1.80695 2.14315,-3.63182 1.7836,-5.53737 -0.18307,-0.97024 -1.03322,-1.77553 -1.8731,-2.29465 -4.76718,-2.94654 -13.57656,1.15296 -16.40388,-3.68588 -0.45943,-0.7863 0.0558,-2.07335 0.78695,-2.61625 6.4915,-4.819994 18.63682,-5.783746 24.25584,0.0299 0.8091,0.83712 0.50334,2.50409 -0.11458,3.49079 -0.62452,0.99724 -2.89215,0.4908 -3.12352,1.64449 -0.28564,1.42426 2.55991,1.92345 2.77506,3.36005 0.44127,2.94643 -0.60513,7.289 -3.42297,8.25644 z"
       sodipodi:nodetypes="sssssssssss"
       transform="rotate(30,100.05,100.04997)" />
    <path
       id="rect2-6-7"
       style="fill:none;stroke:#0000ff;stroke-width:0.1;stroke-linejoin:round"
       inkscape:label="D"
       d="m 103.82622,85.113396 c 7.28334,-5.957731 9.00172,-18.22203 6.85594,-27.383754 -0.63005,-2.690097 -2.85926,-5.166355 -5.37419,-6.310336 -5.930333,-2.697562 -15.624394,-4.978592 -19.543806,0.225628 -7.043784,9.352779 -0.161754,26.986488 9.310159,33.869238 2.362499,1.716706 6.491457,1.448251 8.751897,-0.400776 z m -2.58576,-5.005304 c -0.89449,0.756825 -2.580273,0.714206 -3.515115,0.0078 -5.667789,-4.282644 -9.616412,-14.538685 -5.774872,-20.514255 1.541283,-2.397488 5.687366,-2.010993 8.449737,-1.30899 1.63726,0.416077 3.41075,1.501083 4.03012,3.072742 2.32357,5.896064 1.64815,14.649248 -3.18987,18.742674 z"
       transform="rotate(162.34418,100.03594,100.0674)"
       sodipodi:nodetypes="ssssssssssss" />
    <path
       id="rect2-1-0-6-8"
       style="display:inline;fill:none;stroke:#0000ff;stroke-width:0.1;stroke-linejoin:round"
       inkscape:label="e"
       d="m 109.5211,88.919393 c 2.45491,-0.693583 5.15747,-4.526478 3.76412,-6.663349 -0.99015,-1.51852 -4.10312,1.79224 -5.4118,0.537783 -1.56753,-1.502576 -0.92444,-4.759865 0.36943,-6.503642 0.74392,-1.002592 2.26881,-1.298374 3.5172,-1.287155 2.21202,0.01988 4.05734,2.979407 6.19013,2.392349 3.70036,-1.018536 7.97722,-5.324874 7.10295,-9.06195 -1.1258,-4.812224 -8.48919,-7.152807 -13.37376,-6.400536 -2.69297,0.414744 -4.71941,3.16287 -5.96984,5.583722 -2.77002,5.362787 -5.13984,12.548804 -2.43276,17.943638 1.06718,2.126746 3.95449,4.106086 6.24433,3.45914 z m 5.96821,-16.636562 c -1.55694,0.208021 -3.96974,0.480682 -4.61529,-0.951305 -0.62135,-1.378303 0.8325,-3.42443 2.25554,-3.935057 2.30625,-0.827546 6.74435,0.15164 6.87615,2.598325 0.0908,1.685191 -2.84363,2.06454 -4.5164,2.288037 z"
       transform="rotate(159.31107,99.342898,100.10859)"
       sodipodi:nodetypes="ssssssssssssssss" />
    <path
       id="rect2-6-10"
       style="fill:none;stroke:#0000ff;stroke-width:0.1;stroke-linejoin:round"
       inkscape:label="v"
       d="m 108.98271,61.019045 c 4.35442,7.45918 -1.05234,19.549977 -8.03442,24.634357 -0.66487,0.484162 -1.813399,0.50683 -2.467413,0.0081 -6.784045,-5.173295 -10.664205,-17.154083 -6.691598,-24.704224 0.572526,-1.088114 2.385177,-1.780289 3.480468,-1.221616 4.27101,2.178505 -0.680403,13.628778 4.111622,13.783367 4.771751,0.153935 0.800921,-11.106811 4.970321,-13.432623 1.37518,-0.767114 3.83715,-0.427268 4.63102,0.932639 z"
       sodipodi:nodetypes="ssssssss"
       transform="rotate(-149.27794,99.980724,100.05741)" />
    <path
       id="rect2-6-0"
       style="fill:none;stroke:#0000ff;stroke-width:0.1;stroke-linejoin:round"
       inkscape:label="a"
       d="m 105.95757,70.707923 c 0.71052,-3.325447 3.5439,-7.455105 1.41093,-10.103476 -0.74642,-0.926778 -2.62068,-1.00212 -3.55964,-0.271082 -0.84196,0.655522 0.49214,2.911691 -0.54702,3.154089 -1.487,0.346862 -1.29705,-3.096064 -2.69893,-3.70123 -2.115595,-0.913266 -4.960394,-0.440022 -6.85835,0.866713 -1.27657,0.878913 -2.020879,2.560704 -2.190602,4.10126 -0.787139,7.14478 -0.246326,16.850798 5.775119,20.776313 1.28732,0.839233 3.403323,0.34652 4.562293,-0.662589 3.70639,-3.227145 3.07934,-9.354024 4.1062,-14.159998 z m -4.7721,6.604283 c -0.567,0.843263 -1.96787,1.542348 -2.859881,1.055623 -3.558627,-1.941764 -5.306814,-8.826515 -2.632707,-11.873386 1.136231,-1.294619 3.963333,-0.796384 5.147518,0.454522 2.37614,2.510016 2.27365,7.495003 0.34507,10.363241 z"
       transform="rotate(-125.33971,99.974776,100.04228)"
       sodipodi:nodetypes="sssssssssssssss" />
    <path
       id="rect2-6-4-2-4"
       style="fill:none;stroke:#0000ff;stroke-width:0.1;stroke-linejoin:round"
       inkscape:label="n"
       d="m 96.037657,60.217582 c 0.94557,0.475944 0.383234,2.597721 1.41272,2.844265 1.741835,0.417139 2.534224,-2.980573 4.310873,-3.207544 2.49602,-0.318873 5.79641,0.62634 6.99475,2.838987 3.66556,6.768204 2.01404,18.436927 -4.41803,22.664629 -0.61019,0.401071 -1.72009,0.129324 -2.14002,-0.468046 -2.99806,-4.264849 4.0459,-10.700654 2.02809,-15.507498 -0.47563,-1.13304 -1.72632,-2.053143 -2.94391,-2.218871 -0.91582,-0.124653 -2.091011,0.231952 -2.579773,1.016406 -2.935278,4.711066 4.487223,12.019234 1.348583,16.597329 -0.601401,0.877218 -2.147441,1.452613 -3.059533,0.905546 C 93.398034,83.527502 95.313436,78.24696 94.348075,73.498813 93.374901,68.71224 91.55513,63.250559 91.914607,60.955788 c 0.216081,-1.379383 2.875917,-1.365939 4.12305,-0.738206 z"
       sodipodi:nodetypes="ssssssssssssss"
       transform="rotate(-104.73067,99.993199,99.978649)" />
    <path
       id="rect2-6-029"
       style="fill:none;stroke:#0000ff;stroke-width:0.1;stroke-linejoin:round"
       inkscape:label="t"
       d="m 97.46365,50.318256 c 1.16315,-1.291344 4.03012,-1.798871 5.18944,-0.504083 1.02958,1.149893 -1.92688,3.334624 -0.95223,4.53143 0.75897,0.931968 2.81332,-0.915321 3.60573,-0.01161 1.03034,1.175069 0.49277,3.556738 -0.62766,4.646247 -0.88269,0.858333 -2.77733,-0.453143 -3.67279,0.391873 -1.288346,1.215772 -1.49332,17.558198 -0.55482,18.611284 2.05117,2.301598 3.73169,4.307526 0.67816,7.271837 -0.57053,0.553858 -1.814468,0.472774 -2.384023,-0.08208 -6.253809,-6.092383 0.407927,-24.226111 -1.585352,-26.144446 -0.925936,-0.891122 -2.747551,1.868278 -3.716693,1.024347 -1.283374,-1.117565 -0.544937,-3.866904 0.667033,-5.061529 0.809174,-0.797593 2.633385,0.455104 3.385405,-0.39659 0.943578,-1.068642 -0.986303,-3.217423 -0.0322,-4.27668 z"
       sodipodi:nodetypes="ssssssssssssss"
       transform="rotate(-83.495034,99.98461,99.973121)" />
    <path
       id="rect2-6-6"
       style="fill:none;stroke:#0000ff;stroke-width:0.1;stroke-linejoin:round"
       inkscape:label="i"
       d="m 102.25599,49.398956 c -1.95991,-1.023469 -5.105956,0.695085 -6.064246,2.687677 -1.196364,2.487623 3.801869,5.831433 2.105408,8.00895 -0.341937,0.438898 -1.242057,-0.37336 -1.669038,-0.01665 -1.44126,1.20406 0.326528,5.709537 0.654385,10.617119 0.322906,4.833454 -1.623161,12.820166 0.800159,14.741377 1.125563,0.892348 3.982862,1.131099 4.300682,-0.269678 0.76781,-3.384101 -1.16552,-7.931055 -1.1843,-12.902222 -0.0171,-4.530592 2.18465,-10.817004 1.62455,-12.124615 -0.31286,-0.730408 -2.11302,0.723189 -2.38367,-0.02389 -0.497943,-1.374483 2.85599,-1.463079 3.33974,-2.842622 0.88478,-2.523194 0.84645,-6.637757 -1.52367,-7.875439 z"
       transform="rotate(-67.974852,99.943575,100.58207)"
       sodipodi:nodetypes="sssssssssssss" />
    <path
       id="rect2-1-0-6"
       style="display:inline;fill:none;stroke:#0000ff;stroke-width:0.1;stroke-linejoin:round"
       inkscape:label="e"
       d="m 125.05308,68.333358 c -1.12587,-4.812236 -8.48939,-7.152537 -13.37398,-6.400259 -2.69277,0.414714 -4.71913,3.16253 -5.96952,5.583176 -2.77022,5.362914 -5.14045,12.549241 -2.43318,17.944206 1.06726,2.1268 3.95484,4.105909 6.24475,3.458899 2.45487,-0.693617 5.15744,-4.526257 3.76422,-6.663172 -0.99005,-1.518529 -4.10305,1.791748 -5.41169,0.537319 -1.5674,-1.502472 -0.92481,-4.759515 0.36894,-6.503178 0.74389,-1.002586 2.26883,-1.29819 3.5172,-1.286976 2.21203,0.01987 4.05748,2.979134 6.19026,2.392017 3.70036,-1.018646 7.97733,-5.324936 7.103,-9.062032 z m -5.04732,1.661574 c 0.0907,1.685179 -2.8436,2.064524 -4.51636,2.288028 -1.55702,0.20804 -3.96997,0.48075 -4.61554,-0.951317 -0.62139,-1.378415 0.83264,-3.424687 2.25581,-3.93531 2.30629,-0.82748 6.74434,0.151898 6.87609,2.598599 z"
       transform="rotate(-76.206461,99.964734,100.25872)"
       sodipodi:nodetypes="ssssssssssssssss" />
    <path
       id="rect2-6-2-2"
       style="display:inline;fill:none;stroke:#0000ff;stroke-width:0.1;stroke-linejoin:round"
       inkscape:label="r"
       d="m 109.32703,61.074159 c 0.97647,1.497228 0.0303,4.132864 -1.42599,5.169448 -1.57982,1.124539 -4.04581,-1.189368 -5.80547,-0.374491 -0.89596,0.414907 -1.46875,1.436259 -1.76659,2.37763 -1.690523,5.343242 4.43987,12.881763 0.43991,16.807124 -0.64998,0.637862 -2.023988,0.453226 -2.729288,-0.122879 -6.261837,-5.114807 -10.168036,-16.655142 -5.905982,-23.525859 0.613705,-0.989333 2.304807,-1.100751 3.412713,-0.743039 1.119743,0.361534 1.183545,2.68415 2.358778,2.626203 1.450857,-0.07154 1.238623,-2.952733 2.578909,-3.512856 2.7489,-1.148799 7.2155,-1.196753 8.84301,1.298719 z"
       sodipodi:nodetypes="sssssssssss"
       transform="rotate(-27.175136,100.0795,100.23113)" />
  </g>
</svg>
