<?xml version="1.0" encoding="UTF-8" standalone="no"?>
<!-- Created with Inkscape (http://www.inkscape.org/) -->

<svg
   width="210mm"
   height="297mm"
   viewBox="0 0 210 297"
   version="1.1"
   id="svg1"
   inkscape:version="1.4.1 (1:1.4.1+202503302257+93de688d07)"
   sodipodi:docname="Namensschild.svg"
   inkscape:export-filename="Namensschild_Bensler.png"
   inkscape:export-xdpi="96"
   inkscape:export-ydpi="96"
   xmlns:inkscape="http://www.inkscape.org/namespaces/inkscape"
   xmlns:sodipodi="http://sodipodi.sourceforge.net/DTD/sodipodi-0.dtd"
   xmlns="http://www.w3.org/2000/svg"
   xmlns:svg="http://www.w3.org/2000/svg">
  <sodipodi:namedview
     id="namedview1"
     pagecolor="#ffffff"
     bordercolor="#000000"
     borderopacity="0.25"
     inkscape:showpageshadow="2"
     inkscape:pageopacity="0.0"
     inkscape:pagecheckerboard="0"
     inkscape:deskcolor="#d1d1d1"
     inkscape:document-units="mm"
     inkscape:zoom="1.4289282"
     inkscape:cx="367.75816"
     inkscape:cy="414.29654"
     inkscape:window-width="1920"
     inkscape:window-height="1003"
     inkscape:window-x="0"
     inkscape:window-y="40"
     inkscape:window-maximized="1"
     inkscape:current-layer="g4"
     showgrid="false" />
  <defs
     id="defs1" />
  <g
     inkscape:groupmode="layer"
     id="layer2"
     inkscape:label="LayerDraw"
     transform="rotate(-14.648162,84.630212,100.80282)"
     style="fill:none;fill-opacity:1">
    <g
       id="g4"
       inkscape:label="alles"
       transform="rotate(-149.08166,98.59388,104.93521)"
       style="fill:none">
      <g
         id="g2"
         inkscape:label="grid"
         transform="rotate(176.8182,99.880469,102.02279)"
         style="display:none;fill:none">
        <g
           id="g1"
           inkscape:label="segments"
           style="fill:none">
          <path
             style="fill:none;stroke:#000000;stroke-width:0.1;stroke-linejoin:round;stroke-dasharray:none;stroke-opacity:1"
             id="path1-60"
             inkscape:label="r"
             sodipodi:type="arc"
             sodipodi:cx="100.05"
             sodipodi:cy="100.05"
             sodipodi:rx="50"
             sodipodi:ry="50"
             sodipodi:start="5.8817596"
             sodipodi:end="0"
             sodipodi:arc-type="slice"
             d="M 146.07525,80.513448 A 50,50 0 0 1 150.05,100.05 h -50 z" />
          <path
             style="fill:none;stroke:#000000;stroke-width:0.1;stroke-linejoin:round;stroke-dasharray:none;stroke-opacity:1"
             id="path1-2"
             inkscape:label="e"
             sodipodi:type="arc"
             sodipodi:cx="100.05"
             sodipodi:cy="100.05"
             sodipodi:rx="50"
             sodipodi:ry="50"
             sodipodi:start="5.4803339"
             sodipodi:end="5.8817596"
             sodipodi:arc-type="slice"
             d="m 134.78292,64.083015 a 50,50 0 0 1 11.29233,16.430433 L 100.05,100.05 Z" />
          <path
             style="fill:none;stroke:#000000;stroke-width:0.1;stroke-linejoin:round;stroke-dasharray:none;stroke-opacity:1"
             id="path1-97"
             inkscape:label="i"
             sodipodi:type="arc"
             sodipodi:cx="100.05"
             sodipodi:cy="100.05"
             sodipodi:rx="50"
             sodipodi:ry="50"
             sodipodi:start="5.2185345"
             sodipodi:end="5.4803339"
             sodipodi:arc-type="slice"
             d="m 124.29049,56.319019 a 50,50 0 0 1 10.49243,7.763996 L 100.05,100.05 Z" />
          <path
             style="fill:none;stroke:#000000;stroke-width:0.1;stroke-linejoin:round;stroke-dasharray:none;stroke-opacity:1"
             id="path1-0"
             inkscape:label="t"
             sodipodi:type="arc"
             sodipodi:cx="100.05"
             sodipodi:cy="100.05"
             sodipodi:rx="50"
             sodipodi:ry="50"
             sodipodi:start="4.9567351"
             sodipodi:end="5.2185345"
             sodipodi:arc-type="slice"
             d="m 112.1461,51.535217 a 50,50 0 0 1 12.14439,4.783802 L 100.05,100.05 Z" />
          <path
             style="fill:none;stroke:#000000;stroke-width:0.1;stroke-linejoin:round;stroke-dasharray:none;stroke-opacity:1"
             id="path1-54"
             inkscape:label="n"
             sodipodi:type="arc"
             sodipodi:cx="100.05"
             sodipodi:cy="100.05"
             sodipodi:rx="50"
             sodipodi:ry="50"
             sodipodi:start="4.5553093"
             sodipodi:end="4.9567351"
             sodipodi:arc-type="slice"
             d="M 92.228277,50.665586 A 50,50 0 0 1 112.1461,51.535217 L 100.05,100.05 Z" />
          <path
             style="fill:none;stroke:#000000;stroke-width:0.1;stroke-linejoin:round;stroke-dasharray:none;stroke-opacity:1"
             id="path1-69"
             inkscape:label="a"
             sodipodi:type="arc"
             sodipodi:cx="100.05"
             sodipodi:cy="100.05"
             sodipodi:rx="50"
             sodipodi:ry="50"
             sodipodi:start="4.1538836"
             sodipodi:end="4.5553093"
             sodipodi:arc-type="slice"
             d="M 73.554039,57.647599 A 50,50 0 0 1 92.228277,50.665586 L 100.05,100.05 Z" />
          <path
             style="fill:none;stroke:#000000;stroke-width:0.1;stroke-linejoin:round;stroke-dasharray:none;stroke-opacity:1"
             id="path1-7"
             inkscape:label="v"
             sodipodi:type="arc"
             sodipodi:cx="100.05"
             sodipodi:cy="100.05"
             sodipodi:rx="50"
             sodipodi:ry="50"
             sodipodi:start="3.7524579"
             sodipodi:end="4.1538836"
             sodipodi:arc-type="slice"
             d="M 59.092401,71.371181 A 50,50 0 0 1 73.554039,57.647599 L 100.05,100.05 Z" />
          <path
             style="fill:none;stroke:#000000;stroke-width:0.1;stroke-linejoin:round;stroke-dasharray:none;stroke-opacity:1"
             id="path1-8"
             inkscape:label="e"
             sodipodi:type="arc"
             sodipodi:cx="100.05"
             sodipodi:cy="100.05"
             sodipodi:rx="50"
             sodipodi:ry="50"
             sodipodi:start="3.3510322"
             sodipodi:end="3.7524579"
             sodipodi:arc-type="slice"
             d="M 51.142623,89.654417 A 50,50 0 0 1 59.092401,71.371181 L 100.05,100.05 Z" />
          <path
             style="fill:none;stroke:#000000;stroke-width:0.1;stroke-linejoin:round;stroke-dasharray:none;stroke-opacity:1"
             id="path1-4"
             inkscape:label="D"
             sodipodi:type="arc"
             sodipodi:cx="100.05"
             sodipodi:cy="100.05"
             sodipodi:rx="50"
             sodipodi:ry="50"
             sodipodi:start="2.8099801"
             sodipodi:end="3.3510322"
             sodipodi:arc-type="slice"
             d="M 52.774074,116.32841 A 50,50 0 0 1 51.142623,89.654417 L 100.05,100.05 Z" />
          <path
             style="fill:none;stroke:#000000;stroke-width:0.1;stroke-linejoin:round;stroke-dasharray:none;stroke-opacity:1"
             id="path1-6"
             inkscape:label="r"
             sodipodi:type="arc"
             sodipodi:cx="100.05"
             sodipodi:cy="100.05"
             sodipodi:rx="50"
             sodipodi:ry="50"
             sodipodi:start="2.4085544"
             sodipodi:end="2.8099801"
             sodipodi:arc-type="slice"
             d="M 62.892761,133.50653 A 50,50 0 0 1 52.774074,116.32841 L 100.05,100.05 Z" />
          <path
             style="fill:none;stroke:#000000;stroke-width:0.1;stroke-linejoin:round;stroke-dasharray:none;stroke-opacity:1"
             id="path1-9"
             inkscape:label="e"
             sodipodi:type="arc"
             sodipodi:cx="100.05"
             sodipodi:cy="100.05"
             sodipodi:rx="50"
             sodipodi:ry="50"
             sodipodi:start="2.0071286"
             sodipodi:end="2.4085544"
             sodipodi:arc-type="slice"
             d="M 78.919092,145.36539 A 50,50 0 0 1 62.892761,133.50653 L 100.05,100.05 Z" />
          <path
             style="fill:none;stroke:#000000;stroke-width:0.1;stroke-linejoin:round;stroke-dasharray:none;stroke-opacity:1"
             id="path1-85"
             inkscape:label="l"
             sodipodi:type="arc"
             sodipodi:cx="100.05"
             sodipodi:cy="100.05"
             sodipodi:rx="50"
             sodipodi:ry="50"
             sodipodi:start="1.7453293"
             sodipodi:end="2.0071286"
             sodipodi:arc-type="slice"
             d="m 91.367592,149.29039 a 50,50 0 0 1 -12.4485,-3.925 L 100.05,100.05 Z" />
          <path
             style="fill:none;stroke:#000000;stroke-width:0.1;stroke-linejoin:round;stroke-dasharray:none;stroke-opacity:1"
             id="path1-5"
             inkscape:label="s"
             sodipodi:type="arc"
             sodipodi:cx="100.05"
             sodipodi:cy="100.05"
             sodipodi:rx="50"
             sodipodi:ry="50"
             sodipodi:start="1.3439035"
             sodipodi:end="1.7453293"
             sodipodi:arc-type="slice"
             d="m 111.29756,148.76851 a 50,50 0 0 1 -19.929968,0.52188 L 100.05,100.05 Z" />
          <path
             style="fill:none;stroke:#000000;stroke-width:0.1;stroke-linejoin:round;stroke-dasharray:none;stroke-opacity:1"
             id="path1-88"
             inkscape:label="n"
             sodipodi:type="arc"
             sodipodi:cx="100.05"
             sodipodi:cy="100.05"
             sodipodi:rx="50"
             sodipodi:ry="50"
             sodipodi:start="0.9424778"
             sodipodi:end="1.3439035"
             sodipodi:arc-type="slice"
             d="m 129.43927,140.50085 a 50,50 0 0 1 -18.14171,8.26766 L 100.05,100.05 Z" />
          <path
             style="fill:none;stroke:#000000;stroke-width:0.1;stroke-linejoin:round;stroke-dasharray:none;stroke-opacity:1"
             id="path1-64"
             inkscape:label="e"
             sodipodi:type="arc"
             sodipodi:cx="100.05"
             sodipodi:cy="100.05"
             sodipodi:rx="50"
             sodipodi:ry="50"
             sodipodi:start="0.54105207"
             sodipodi:end="0.9424778"
             sodipodi:arc-type="slice"
             d="m 142.90837,125.80191 a 50,50 0 0 1 -13.4691,14.69894 L 100.05,100.05 Z" />
          <path
             style="fill:none;stroke:#000000;stroke-width:0.1;stroke-linejoin:round;stroke-dasharray:none;stroke-opacity:1"
             id="path1"
             inkscape:label="B"
             sodipodi:type="arc"
             sodipodi:cx="100.05"
             sodipodi:cy="100.05"
             sodipodi:rx="50"
             sodipodi:ry="50"
             sodipodi:start="0"
             sodipodi:end="0.54105207"
             sodipodi:arc-type="slice"
             d="m 150.05,100.05 a 50,50 0 0 1 -7.14163,25.75191 L 100.05,100.05 Z" />
        </g>
        <circle
           style="fill:none;stroke:#000000;stroke-width:0.1;stroke-linejoin:round;stroke-dasharray:none;stroke-opacity:1"
           id="path2-2"
           cx="-122.54626"
           cy="70.752121"
           inkscape:label="baseheight"
           transform="translate(222.58572,29.303967)"
           r="40" />
        <circle
           style="fill:none;stroke:#000000;stroke-width:0.1;stroke-linejoin:round;stroke-dasharray:none;stroke-opacity:1"
           id="path2"
           cx="100.05"
           cy="100.05"
           inkscape:label="baseline"
           r="15" />
      </g>
      <g
         id="g3"
         inkscape:label="Schrift"
         transform="rotate(107.15238,99.048061,100.44031)"
         inkscape:transform-center-x="-2.2471109"
         inkscape:transform-center-y="0.26300017"
         style="fill:#cccccc;fill-opacity:1">
        <path
           id="rect2-6-2-3"
           style="display:inline;fill:#cccccc;fill-opacity:1;stroke:#0000ff;stroke-width:0.2;stroke-linejoin:round;stroke-dasharray:none"
           inkscape:label="r"
           d="m 115.97519,69.783038 c 0.5143,1.711919 -0.79142,4.537876 -2.47829,5.12918 -1.83001,0.641469 -1.83824,-1.07299 -3.755,-0.778947 -0.97594,0.149716 -3.20619,0.877471 -3.75378,1.699069 -1.57802,2.367618 -2.16603,5.369732 -2.19857,8.562192 -0.0412,4.048064 0.74541,5.0029 -0.127,6.313075 -0.50472,0.758031 -2.11597,-0.10479 -2.66764,-0.829353 -0.87039,-1.143178 -0.60677,-5.886833 -0.52867,-9.920786 0.0929,-4.799544 0.0898,-13.461229 1.13637,-14.385999 0.87243,-0.770897 2.88909,-0.794378 3.85404,-0.14301 0.97525,0.658325 -1.32519,4.556166 0.64327,5.042144 1.41028,0.348179 2.41382,-2.687116 4.47233,-2.933223 2.28139,-0.272735 4.90108,0.57526 5.4029,2.245657 z"
           sodipodi:nodetypes="ssssssssssssss"
           transform="rotate(-43.679443,94.688457,101.14517)" />
        <path
           id="rect2-1-36"
           style="display:inline;fill:#cccccc;fill-opacity:1;stroke:#0000ff;stroke-width:0.2;stroke-linejoin:round;stroke-dasharray:none"
           inkscape:label="e"
           d="m 100.79076,66.769388 c -2.476712,1.135247 -2.170902,4.069455 -2.377332,6.721845 -0.12781,1.642213 -0.40182,6.23569 -0.5023,7.999873 -0.26667,4.68257 -0.009,7.174796 0.35893,8.890336 0.29967,1.398828 4.060172,2.720498 5.366612,2.151329 0.98174,-0.427705 1.41672,-1.105568 2.15609,-2.536209 0.77466,-1.498913 1.19846,-3.193801 -0.0152,-3.673992 -1.77538,-0.702429 -2.39217,2.424133 -3.89472,1.409858 -1.79965,-1.214825 -1.88216,-3.142491 -0.90293,-5.080466 0.56297,-1.114196 1.93418,-2.373162 3.18246,-2.359638 2.56315,0.02777 3.04179,0.132345 5.10112,-0.675403 1.38044,-0.541462 4.74485,-3.917424 4.89041,-7.893195 0.0825,-2.253146 -2.58879,-3.715611 -5.02605,-4.419725 -4.23502,-1.22348 -7.2227,-1.045408 -8.33708,-0.534613 z M 103.98047,71.26 c 2.13255,-1.206839 5.21445,-1.271064 5.75937,1.117924 0.37526,1.645179 -1.10818,3.241617 -2.71859,3.745644 -1.49929,0.469252 -3.71674,0.699153 -4.59606,-0.602716 -0.84626,-1.252925 0.23944,-3.516194 1.55528,-4.260852 z"
           sodipodi:nodetypes="sssssssssssssssssss"
           transform="rotate(-67.413753,94.767374,100.85021)" />
        <path
           id="rect2-6-80-5-6"
           style="fill:#cccccc;fill-opacity:1;stroke:#0000ff;stroke-width:0.2;stroke-linejoin:round;stroke-dasharray:none"
           inkscape:label="i"
           d="m 76.394603,90.69726 c 5.056411,1.639892 4.398941,1.157207 7.380372,1.835676 2.009207,0.457224 3.517509,1.400708 3.105175,2.557907 -0.657743,1.845924 -2.579149,1.7049 -5.579242,0.238931 -2.954127,-1.443502 -5.374955,-2.409644 -8.873439,-3.479821 -3.033262,-0.927857 -6.178491,0.24131 -8.71769,-1.533154 -2.825455,-1.974499 -0.546458,-5.391415 3.53375,-2.934833 1.884981,1.134896 6.017367,2.298977 9.151074,3.315294 z"
           sodipodi:nodetypes="ssssssss"
           inkscape:transform-center-x="-0.94896001"
           inkscape:transform-center-y="-17.138774" />
        <path
           id="rect2-6-80-5-6-5"
           style="fill:#cccccc;fill-opacity:1;stroke:#0000ff;stroke-width:0.2;stroke-linejoin:round;stroke-dasharray:none"
           inkscape:label="i-punkt"
           d="m 59.798187,84.704032 c 1.679497,1.193841 3.697312,2.085611 3.284979,3.24281 -0.657743,1.845923 -3.53676,1.62587 -5.923858,1.643435 -1.796715,0.01322 -1.433949,-2.322213 -1.439555,-3.738095 -0.0056,-1.406383 2.430144,-2.319807 4.078434,-1.14815 z"
           sodipodi:nodetypes="sssss"
           inkscape:transform-center-x="-0.94896001"
           inkscape:transform-center-y="-17.138774" />
        <path
           id="rect2-6-80-5"
           style="fill:#cccccc;fill-opacity:1;stroke:#0000ff;stroke-width:0.2;stroke-linejoin:round;stroke-dasharray:none"
           inkscape:label="t"
           d="m 80.854585,100.0999 c 1.597198,-0.278902 0.817461,-1.873578 1.068828,-2.752775 0.300114,-1.049675 0.979337,-1.43439 2.673895,-0.996406 1.643704,0.424848 1.224164,0.984179 1.048181,2.686886 -0.243311,2.354105 -2.967757,3.537865 -5.547131,3.333925 -2.993337,-0.23665 -5.542983,-0.1742 -9.201364,-0.20446 -3.486202,-0.0288 -8.092499,-0.0788 -11.167194,-0.45625 -5.043526,-0.61921 0.827649,2.96455 -4.8226,2.50473 -2.51992,-0.20507 1.08743,-3.60411 -2.871647,-2.68704 -2.511758,0.58181 -2.082894,-5.740957 -0.966674,-5.379022 5.773366,1.872016 0.44952,-3.510716 4.767372,-2.420478 4.035467,1.018936 -0.824559,3.050111 3.070667,3.826945 2.989742,0.596252 9.944155,2.161728 12.841169,2.516435 5.756109,0.70477 6.076818,0.55656 9.106498,0.0275 z"
           sodipodi:nodetypes="ssssssssssssss"
           inkscape:transform-center-x="-1.625711"
           inkscape:transform-center-y="-16.565413" />
        <path
           id="rect2-6-4-2"
           style="fill:#cccccc;fill-opacity:1;stroke:#0000ff;stroke-width:0.2;stroke-linejoin:round;stroke-dasharray:none"
           inkscape:label="n"
           d="m 104.527,66.081478 c 0.77496,0.721147 -0.51692,2.446149 0.292,3.128989 0.74295,0.627155 1.92831,-2.470969 5.3052,-1.87886 2.47849,0.434586 5.65628,3.386583 4.35194,7.335123 -1.317,3.986858 -3.26251,7.44954 -5.628,11.71309 -1.49343,2.691738 -2.31709,6.321173 -4.53951,5.681876 -1.48603,-0.427475 -1.02498,-1.640103 0.0982,-4.470063 1.64683,-4.149301 1.21126,-3.144945 3.3112,-7.761013 1.00141,-2.201272 1.85509,-4.919112 -0.0958,-5.614669 -0.87059,-0.310386 -3.22166,0.624624 -3.71551,3.998452 -0.40507,2.767333 -0.0513,5.693181 -0.0696,7.829575 -0.0164,1.911096 -0.86265,4.356246 -1.58341,5.049083 -0.76677,0.737061 -2.1899,0.14104 -2.297043,-0.917128 -0.41893,-4.137529 -0.26296,-9.880241 -0.15439,-13.575205 0.11635,-3.95938 -0.17983,-8.573597 1.578783,-10.720676 0.88471,-1.080136 2.12381,-0.749714 3.14593,0.201426 z"
           sodipodi:nodetypes="ssssssssssssssss"
           transform="rotate(-120.10953,98.215486,102.9924)" />
        <path
           id="rect2-6-0"
           style="fill:#cccccc;fill-opacity:1;stroke:#0000ff;stroke-width:0.2;stroke-linejoin:round;stroke-dasharray:none"
           inkscape:label="a"
           d="m 102.15601,74.837694 c 0.25093,-4.364243 2.16098,-8.368698 0.96799,-13.107376 -0.29052,-1.153976 -3.738707,-1.766299 -5.382046,-1.93971 -4.856146,-0.512437 -7.044206,0.47128 -7.742345,1.977155 -0.608306,1.312105 -1.083939,2.569052 0.342108,4.594326 1.716816,2.438226 3.223695,1.039737 3.746337,-2.24276 0.201746,-1.26708 3.29341,-2.213409 4.543706,-0.662944 1.87621,2.326662 0.882832,6.064624 0.182292,5.692727 -2.233592,-1.185748 -8.307127,0.326473 -7.379511,3.769404 1.36857,5.079572 1.162163,7.62969 3.000084,10.737675 1.380862,2.335084 3.402237,2.056077 4.184347,0.740485 1.26809,-2.133065 1.447618,1.46966 1.826568,0.654643 1.53049,-3.291707 1.52992,-7.073545 1.71047,-10.213626 z m -3.150461,4.129897 c -0.998938,4.840439 -3.146956,1.977561 -3.864716,-1.16238 -0.782028,-2.84329 0.180108,-4.491563 2.199499,-4.416617 2.002198,0.07431 2.228579,2.849179 1.665217,5.578997 z"
           transform="rotate(-125.33971,99.974775,100.04228)"
           sodipodi:nodetypes="ssssssssssssssssss" />
        <path
           id="rect2-6-10"
           style="fill:#cccccc;fill-opacity:1;stroke:#0000ff;stroke-width:0.2;stroke-linejoin:round;stroke-dasharray:none"
           inkscape:label="v"
           d="m 103.83691,70.375315 c -1.78106,6.763563 -3.57121,8.548894 -3.68055,12.284796 -0.0812,2.773265 -1.974257,2.941036 -3.398124,-0.363771 -3.256198,-7.557661 -7.300037,-16.854914 -6.812404,-21.753343 0.146344,-1.470073 4.698009,-2.064675 5.450702,-0.953306 1.200357,1.772356 0.436443,3.192523 0.186254,4.876109 -0.39248,2.641108 -1.720716,5.974104 1.681972,11.738694 1.371473,2.323451 1.113469,1.470585 1.847311,-0.256133 2.173669,-5.114597 0.900309,-8.849151 0.568621,-11.642649 -0.220257,-1.855049 -1.368797,-3.263453 -0.257675,-4.871427 0.925693,-1.339635 5.706213,-0.254386 5.851613,1.133346 0.25836,2.46581 -0.9766,8.056593 -1.43772,9.807687 z"
           sodipodi:nodetypes="sssssssssssss"
           transform="rotate(-149.27794,99.980725,100.05741)" />
        <path
           id="rect2-1-1"
           style="display:inline;fill:#cccccc;fill-opacity:1;stroke:#0000ff;stroke-width:0.2;stroke-linejoin:round;stroke-dasharray:none"
           inkscape:label="e"
           d="m 100.71599,64.343957 c -2.476723,1.135248 -2.170913,4.069456 -2.377343,6.721846 -0.12781,1.642213 -0.40182,6.23569 -0.5023,7.999873 -0.26667,4.682569 -0.009,7.174796 0.35894,8.890336 0.29966,1.398828 4.060163,2.720498 5.366613,2.151329 0.98174,-0.427706 1.41672,-1.105569 2.15609,-2.536209 0.77465,-1.498913 1.19845,-3.193801 -0.0152,-3.673992 -1.77538,-0.70243 -2.39216,2.424133 -3.89472,1.409858 -1.79965,-1.214825 -1.882153,-3.142492 -0.90293,-5.080466 0.56297,-1.114196 1.93418,-2.373162 3.18246,-2.359639 2.56315,0.02777 3.04179,0.132346 5.10113,-0.675403 1.38044,-0.541461 4.74484,-3.917423 4.89041,-7.893194 0.0825,-2.253146 -2.5888,-3.715612 -5.02606,-4.419725 -4.23502,-1.223481 -7.2227,-1.045409 -8.33707,-0.534614 z m 3.18971,4.490613 c 2.13254,-1.206839 5.21444,-1.271064 5.75937,1.117924 0.37526,1.645178 -1.10819,3.241616 -2.71859,3.745644 -1.4993,0.469252 -3.71675,0.699152 -4.59607,-0.602717 -0.84626,-1.252925 0.23944,-3.516193 1.55529,-4.260851 z"
           sodipodi:nodetypes="sssssssssssssssssss"
           transform="rotate(171.5546,98.892808,102.76701)" />
        <path
           id="rect2-6-7"
           style="fill:#cccccc;fill-opacity:1;stroke:#0000ff;stroke-width:0.2;stroke-linejoin:round;stroke-dasharray:none"
           inkscape:label="D"
           d="m 97.188349,84.363172 c 3.460251,-0.586961 4.401351,-1.83095 5.371571,-3.667418 2.34722,-4.442935 3.50734,-10.745732 4.33372,-14.609187 0.5779,-2.70178 -1.00923,-10.471615 -4.64357,-13.622029 -2.333962,-2.023191 -6.120985,-3.231031 -11.164429,-3.044518 -3.591191,0.132807 -6.283011,1.12321 -6.777995,2.11997 -0.817134,1.645484 0.580218,5.303096 1.658497,9.248807 2.002434,7.32744 5.3341,15.360224 7.114635,18.896089 1.313455,2.608316 1.228344,5.166689 4.107571,4.678286 z m -0.01814,-3.11709 c -1.604309,0.02566 -3.574169,-10.248251 -4.78394,-14.11507 -1.198179,-3.82977 -2.851518,-7.263586 -1.814495,-8.983625 1.471617,-2.44087 4.305091,-2.782495 6.441976,-0.896434 2.144416,1.892708 5.22048,6.971281 4.90092,12.227716 -0.12726,2.093216 -0.15653,3.356124 -0.94682,6.185346 -0.79981,2.863265 -1.937396,5.552319 -3.797641,5.582067 z"
           transform="rotate(162.34418,100.03594,100.0674)"
           sodipodi:nodetypes="ssssssssssssssss" />
        <path
           id="rect2-6-2-3-8"
           style="display:inline;fill:#cccccc;fill-opacity:1;stroke:#0000ff;stroke-width:0.2;stroke-linejoin:round;stroke-dasharray:none"
           inkscape:label="r"
           d="m 114.55289,71.462612 c 0.5143,1.711919 -0.79142,4.537876 -2.47829,5.12918 -1.83001,0.641469 -1.83824,-1.07299 -3.755,-0.778947 -0.97594,0.149716 -3.20619,0.877471 -3.75378,1.699069 -1.57802,2.367618 -2.16603,5.369732 -2.19857,8.562192 -0.0412,4.048064 0.74541,5.0029 -0.127,6.313075 -0.50472,0.758031 -2.11597,-0.10479 -2.667634,-0.829353 -0.87039,-1.143178 -0.60677,-5.886833 -0.52867,-9.920786 0.0929,-4.799544 0.0898,-13.461229 1.136364,-14.385999 0.87243,-0.770897 2.88909,-0.794378 3.85404,-0.14301 0.97525,0.658325 -1.32519,4.556166 0.64327,5.042144 1.41028,0.348179 2.41382,-2.687116 4.47233,-2.933223 2.28139,-0.272735 4.90108,0.57526 5.4029,2.245657 z"
           sodipodi:nodetypes="ssssssssssssss"
           transform="rotate(116.85748,101.12012,104.91836)" />
        <path
           id="rect2-1-3"
           style="display:inline;fill:#cccccc;fill-opacity:1;stroke:#0000ff;stroke-width:0.2;stroke-linejoin:round;stroke-dasharray:none"
           inkscape:label="e"
           d="m 139.51395,108.26672 c -0.95377,-2.5521 -3.90239,-2.45859 -6.533,-2.85568 -1.62872,-0.24585 -6.1905,-0.85026 -7.94285,-1.07765 -4.65117,-0.60351 -7.15549,-0.52616 -8.89308,-0.28284 -1.41679,0.19806 -3.00609,3.8535 -2.53258,5.19758 0.35583,1.01001 1.00057,1.49273 2.3742,2.33329 1.43917,0.88069 3.0991,1.42556 3.66553,0.24967 0.82857,-1.72013 -2.2454,-2.56068 -1.12545,-3.98621 1.34139,-1.7074 3.26999,-1.65074 5.13233,-0.53437 1.07072,0.64182 2.22757,2.10021 2.1241,3.34427 -0.21245,2.55448 -0.35126,3.02434 0.30594,5.13655 0.44055,1.41587 3.56521,5.01487 7.52015,5.44665 2.24134,0.2447 3.89256,-2.31423 4.77052,-4.6944 1.52557,-4.13581 1.56332,-7.12855 1.13419,-8.27685 z m -4.70886,2.85772 c 1.04998,2.21399 0.89189,5.2925 -1.53017,5.6638 -1.66794,0.25569 -3.1533,-1.33897 -3.53993,-2.98152 -0.35996,-1.52921 -0.42942,-3.75747 0.93244,-4.54066 1.31067,-0.75374 3.48979,0.49228 4.13766,1.85838 z"
           sodipodi:nodetypes="sssssssssssssssssss" />
        <path
           id="rect2-6-80"
           style="fill:#cccccc;fill-opacity:1;stroke:#0000ff;stroke-width:0.2;stroke-linejoin:round;stroke-dasharray:none"
           inkscape:label="l"
           d="m 121.54308,100.18289 c -3.47522,0.41621 -2.09559,1.59039 -2.26713,2.48858 -0.20481,1.07235 -0.84681,1.51641 -2.57381,1.23209 -1.67517,-0.27579 -1.30746,-0.87048 -1.28482,-2.5821 0.0313,-2.366446 1.21078,-2.981864 3.79805,-3.009981 3.0025,-0.03263 8.1548,-1.367517 11.78267,-1.839976 3.14544,-0.409631 10.43671,-1.013811 13.50498,-1.440363 2.96463,-0.412144 4.50331,0.633525 5.74512,2.071343 1.26435,1.463911 1.46869,3.701517 -1.20257,3.956487 -2.67126,0.25496 -4.42449,-1.047 -10.11187,-1.356956 -5.7905,-0.31558 -12.29863,-0.128962 -17.39062,0.480876 z"
           sodipodi:nodetypes="sssssssszss"
           inkscape:transform-center-x="-1.1415054"
           inkscape:transform-center-y="-16.657252" />
        <path
           id="rect2-6-9"
           style="fill:#cccccc;fill-opacity:1;stroke:#0000ff;stroke-width:0.2;stroke-linejoin:round;stroke-dasharray:none"
           inkscape:label="s"
           d="m 107.03569,60.511508 c 1.79525,1.204866 0.70372,4.68016 -0.59486,5.978552 -0.83888,0.838753 -3.29679,0.22769 -4.32292,-0.607117 -2.339966,-1.903677 -4.147165,-0.610524 -4.600709,0.458487 -1.076388,2.537066 1.665743,4.446077 3.151019,4.979652 0.95118,0.341704 3.01778,0.998816 4.20911,2.684984 1.19293,1.688439 0.61089,4.75671 0.0928,6.709842 -0.66093,2.491704 -1.12854,3.019603 -2.19533,3.868835 -0.76247,0.606975 -1.32686,0.548183 -2.33749,0.474948 -1.017122,-0.07371 -2.407278,-0.04585 -3.068057,-1.060683 -0.543471,-0.834676 -2.496815,-5.300367 -0.58621,-5.455804 2.182419,-0.177551 2.532994,2.872633 4.102377,2.347563 1.0995,-0.36786 1.61717,-3.392146 0.29609,-4.85923 -1.373461,-1.525252 -3.048511,-1.812966 -4.535688,-2.950952 -1.543618,-1.181174 -2.073812,-1.836089 -2.902426,-3.955814 -0.753722,-1.928141 -0.961318,-3.434278 -0.977759,-5.768985 -0.01644,-2.334511 2.829434,-3.690409 5.480073,-4.167959 2.5571,-0.460699 7.13096,0.21027 8.78995,1.323681 z"
           sodipodi:nodetypes="ssssssssssssssssss"
           transform="rotate(72.364182,100.05,100.05)" />
        <path
           id="rect2-6-4"
           style="fill:#cccccc;fill-opacity:1;stroke:#0000ff;stroke-width:0.2;stroke-linejoin:round;stroke-dasharray:none"
           inkscape:label="n"
           d="m 127.01358,70.53545 c 0.24779,1.029187 -1.78188,1.753782 -1.48463,2.769785 0.27301,0.933149 2.97221,-0.994999 5.46039,1.36359 1.82622,1.731108 2.84511,5.947088 -0.42295,8.518482 -3.29977,2.59635 -6.83402,4.408602 -11.16069,6.656563 -2.73159,1.419221 -5.42269,3.990057 -6.92237,2.229714 -1.00277,-1.177069 0.0513,-1.933362 2.5506,-3.672268 3.66445,-2.549616 2.74665,-1.952877 7.04663,-4.641375 2.05054,-1.282067 4.26322,-3.076359 3.02096,-4.733655 -0.55436,-0.739561 -3.03074,-1.258514 -5.30572,1.281381 -1.86602,2.083311 -3.18693,4.717882 -4.38211,6.488775 -1.06914,1.584139 -3.125,3.15522 -4.10851,3.334753 -1.04629,0.190991 -1.90353,-1.091845 -1.40845,-2.033171 1.9358,-3.68067 5.23738,-8.382015 7.36853,-11.402403 2.28366,-3.23653 4.58506,-7.246802 7.23692,-8.065508 1.33408,-0.411867 2.18459,0.547919 2.5114,1.905337 z"
           sodipodi:nodetypes="ssssssssssssssss" />
        <path
           id="rect2-1"
           style="display:inline;fill:#cccccc;fill-opacity:1;stroke:#0000ff;stroke-width:0.2;stroke-linejoin:round;stroke-dasharray:none"
           inkscape:label="e"
           d="m 110.74765,62.429705 c -2.63341,0.698595 -2.82985,3.642148 -3.48329,6.221063 -0.40457,1.596722 -1.45393,6.077119 -1.85226,7.79868 -1.05724,4.569443 -1.22569,7.069332 -1.15459,8.822348 0.058,1.42939 3.53975,3.3699 4.92382,3.030632 1.04007,-0.254945 1.58375,-0.849183 2.55512,-2.133643 1.01773,-1.345756 1.72294,-2.944172 0.60833,-3.623311 -1.63047,-0.993455 -2.76876,1.983139 -4.07745,0.728647 -1.56746,-1.50254 -1.32172,-3.416258 -0.0279,-5.160004 0.74384,-1.002531 2.30877,-2.010608 3.53666,-1.785499 2.52128,0.462227 2.97524,0.646492 5.14176,0.199837 1.45229,-0.299409 5.34068,-3.05563 6.15866,-6.949067 0.46356,-2.206487 -1.92088,-4.100957 -4.20335,-5.208365 -3.96605,-1.92425 -6.94063,-2.255645 -8.12551,-1.941318 z m 2.3816,4.966673 c 2.30638,-0.827539 5.3545,-0.367962 5.48621,2.078843 0.0907,1.684994 -1.64209,3.006609 -3.31466,3.230111 -1.55717,0.208082 -3.78148,0.05844 -4.42718,-1.37374 -0.62142,-1.378336 0.83252,-3.424596 2.25563,-3.935214 z"
           sodipodi:nodetypes="sssssssssssssssssss" />
        <path
           id="rect2-6-8"
           style="fill:#cccccc;fill-opacity:1;stroke:#0000ff;stroke-width:0.2;stroke-linejoin:round;stroke-dasharray:none;stroke-opacity:1"
           inkscape:label="B"
           d="m 65.789127,67.434995 c 0.932794,3.86524 3.343107,4.321032 7.188897,7.840658 6.251532,5.721335 11.715189,10.105331 16.478642,14.328021 1.947624,1.726523 4.676978,-1.521037 5.652941,-3.93384 1.03486,-2.558412 0.869507,-4.026662 0.05811,-6.925089 -0.705757,-2.521071 -2.099776,-4.507464 -3.887911,-6.108985 -2.190749,-1.962117 -3.044761,-1.48232 -5.606343,-2.013803 1.470825,-2.56839 3.465144,-4.33203 3.186295,-7.791169 -0.325836,-4.042011 -2.909231,-8.060131 -6.960567,-8.235353 -4.784485,-0.20693 -17.179196,8.40937 -16.110064,12.83956 z m 7.659456,-0.2298 c -0.31427,-3.235544 3.691932,-5.792889 6.939693,-5.65304 1.39654,0.06014 2.792383,1.680609 2.882323,3.075547 0.174635,2.708522 -2.002596,5.605957 -4.660326,6.156467 -2.03828,0.4222 -4.960455,-1.507177 -5.16169,-3.578974 z m 10.719429,10.274621 c 0.151964,-1.709297 1.844445,-1.709875 3.539878,-1.444739 1.862101,0.291199 2.982745,2.674751 3.32741,4.5277 0.279588,1.50309 0.517779,3.068471 -0.963429,3.447255 -2.841289,0.726594 -6.163567,-3.609016 -5.903859,-6.530216 z"
           transform="rotate(30,100.05,100.05)"
           sodipodi:nodetypes="sssssscsssssssssssss" />
      </g>
    </g>
  </g>
</svg>
