<?xml version="1.0" encoding="UTF-8" standalone="no"?>
<!-- Generator: Adobe Illustrator 9.0, SVG Export Plug-In  -->

<svg
   width="541.417pt"
   height="541.416pt"
   viewBox="0 0 541.417 541.416"
   xml:space="preserve"
   id="svg2242"
   sodipodi:version="0.32"
   inkscape:version="1.3.2 (1:1.3.2+202311252150+091e20ef0f)"
   sodipodi:docname="P1_lizard.svg"
   inkscape:output_extension="org.inkscape.output.svg.inkscape"
   version="1.1"
   xmlns:inkscape="http://www.inkscape.org/namespaces/inkscape"
   xmlns:sodipodi="http://sodipodi.sourceforge.net/DTD/sodipodi-0.dtd"
   xmlns="http://www.w3.org/2000/svg"
   xmlns:svg="http://www.w3.org/2000/svg"
   xmlns:rdf="http://www.w3.org/1999/02/22-rdf-syntax-ns#"
   xmlns:cc="http://creativecommons.org/ns#"
   xmlns:dc="http://purl.org/dc/elements/1.1/"><metadata
   id="metadata2286"><rdf:RDF><cc:Work
       rdf:about=""><dc:format>image/svg+xml</dc:format><dc:type
         rdf:resource="http://purl.org/dc/dcmitype/StillImage" /><dc:title /></cc:Work></rdf:RDF></metadata><defs
   id="defs2284">
		
		
		
		
		
		
		
	
		
		
		
		
		
		
		
		
		
		
		
		
	
			
			
			
			
			
		
			
			
			
			
			
			
		
			
			
			
			
			
		
			
			
			
			
			
			
			
			
			
			
		
	
	
	
	
	
		
	
		
	
		
	
		
	
		
	
		
	
		
	
		
	
		
	
		
	
		
	
		
	
		
	
		
	
		
	
		
	
		
	
		
	
		
	
		
	
		
	
		
	
		
	
		
	
		
	
		
	
		
	
		
	
		
	
		
	
		
	
		
	
		
	
		
	
		
	
		
	
		
	
		
	
		
	
		
	
		
	
		
	
		
	
		
	
		
	
		
	
		
	
		
	
		
	
		
	
		
	
		
	
		
	
		
	
	
	
	
	
	
		
	
		
	
		
	
		
	
		
	
		
	
		
	
		
	
		
	
		
	
		
	
		
	
		
	
		
	
		
	
		
	
		
	
		
	
		
	
		
	
		
	
		
	
		
	
		
	
		
	
	
	
		

		
		
		
		
		
		
		
	</defs><sodipodi:namedview
   inkscape:window-height="1363"
   inkscape:window-width="3440"
   inkscape:pageshadow="2"
   inkscape:pageopacity="0.0"
   guidetolerance="10.0"
   gridtolerance="10.0"
   objecttolerance="10.0"
   borderopacity="1.0"
   bordercolor="#666666"
   pagecolor="#ffffff"
   id="base"
   inkscape:zoom="11.313709"
   inkscape:cx="42.338018"
   inkscape:cy="89.095453"
   inkscape:window-x="0"
   inkscape:window-y="40"
   inkscape:current-layer="g1"
   showgrid="true"
   inkscape:window-maximized="1"
   inkscape:showpageshadow="2"
   inkscape:pagecheckerboard="0"
   inkscape:deskcolor="#d1d1d1"
   inkscape:document-units="pt"><inkscape:grid
     id="grid1"
     units="pt"
     originx="0"
     originy="0"
     spacingx="0.99999999"
     spacingy="1"
     empcolor="#0099e5"
     empopacity="0.30196078"
     color="#0099e5"
     opacity="0.14901961"
     empspacing="5"
     dotted="false"
     gridanglex="30"
     gridanglez="30"
     visible="true" /></sodipodi:namedview>
	<g
   id="g1"><path
     id="line3403-2"
     style="clip-rule:nonzero;fill:none;fill-rule:nonzero;stroke:#0000ff;stroke-width:0.169264;stroke-miterlimit:4;stroke-dasharray:none;stroke-linecap:round;stroke-linejoin:round"
     d="m 122.16258,102.54605 -34.126791,17.14974 m 37.572191,12.34652 -3.4454,-29.49626 m -8.9539,41.53531 12.3993,-12.03905 m -17.50918,47.47643 5.10988,-35.43738 m -21.953156,44.13747 16.843276,-8.70009 m -52.119464,5.43422 35.276188,3.26587 M 26.83877,159.32587 55.979336,184.95296 M 46.778687,202.55643 26.83877,159.32587 m 29.276968,48.0515 -9.337051,-4.82094 m 27.987304,10.82577 -18.650253,-6.00483 m 25.851524,10.15985 -7.201271,-4.15502 m 17.982125,3.66529 -10.780854,0.48973 M 56.110188,98.739494 88.035789,119.69579 M 96.58551,85.719864 79.95182,81.011383 m 0,0 -23.841632,17.728111 M 129.85289,72.423775 96.58551,85.719864 M 145.81737,82.64901 129.85289,72.423775 m 30.77234,42.381275 -14.80786,-32.15604 m 7.16635,70.18505 7.64151,-38.02901 m 19.85898,-0.83877 -27.50049,38.86778 m 27.00867,-49.35783 0.49182,10.49005 m -4.61142,-29.630877 4.1196,19.140827 m -4.1196,-27.450878 v 8.310051 m -5.81346,-17.392379 5.81346,9.082328 m 42.9177,49.412678 54.13103,-14.49218 m -61.83687,8.44301 7.70584,6.04917 m -12.74807,-8.95769 5.04223,2.90852 m -10.52302,-46.05098 5.48079,43.14246 M 237.55884,42.545259 200.56163,73.33788 m 34.50548,-34.786986 2.49173,3.994365 m -8.07011,-10.411387 5.57838,6.417022 m -19.04114,-9.703371 13.46276,3.286349 m -30.27832,-10.749329 16.81556,7.46298 m -22.23149,4.12511 5.41593,-11.58809 m 0.8511,25.116856 -6.26703,-13.528766 m -23.73516,33.970386 30.00219,-20.44162 M 312.54686,150.53827 272.92152,110.94585 m 38.23808,49.28803 1.38726,-9.69561 m -1.38726,15.51265 v -5.81704 m -34.65297,32.13164 34.65297,-26.3146 m -79.84173,9.69506 45.18876,16.61954 m -47.40602,-12.46508 2.21726,-4.15446 m -4.99011,12.18863 2.77285,-8.03417 m 1.10947,21.33025 -3.88232,-13.29608 m 5.8218,31.5782 -1.93948,-18.28212 m 14.69253,17.17355 -12.75305,1.10857 m 21.34769,-13.29609 -8.59464,12.18752 m 41.31144,3.55282 -32.7168,-15.74034 m 18.81214,39.80239 13.90466,-24.06205 m -40.06058,26.42486 26.15592,-2.36281 m -53.35146,9.64741 27.19554,-7.2846 m -42.23405,-34.13935 15.03851,41.42395 m -39.95191,-21.57234 -16.00105,-21.0621 m 25.0653,62.43396 -9.06425,-41.37186 m -16.00105,-21.0621 35.59942,-9.53219 m 0,0 5.31503,10.74268 m -83.49283,3.05311 H 92.620041 m 42.932119,21.45213 -15.12557,-21.45213 m 35.03665,41.34584 -19.91108,-19.89371 m -8.47209,53.6159 28.38317,-33.72219 m 1.2808,45.35626 -10.25745,24.37671 m 41.58368,-52.90845 -31.32623,28.53174 m -10.25745,24.37671 -26.06,-26.03872 m 0,0 6.65348,-9.97206"
     transform="matrix(0.16746904,0,0,0.16746904,5.5195102,16.432919)" /><g
     id="g2"
     transform="translate(-1.2843934,6.7983652)"
     inkscape:transform-center-x="19.510509"
     inkscape:transform-center-y="-7.8829088"><path
       id="line3409-8"
       style="fill:none;stroke:#00ff00;stroke-width:0.0283465;stroke-linecap:round;stroke-linejoin:round"
       d="m 30.175104,46.628006 0.928635,0.371304 m -2.228504,-1.252518 1.299869,0.881214 m -3.203476,-0.603157 1.903607,-0.278057" /><line
       style="clip-rule:nonzero;fill:none;fill-rule:nonzero;stroke:#00ff00;stroke-width:0.0283465;stroke-linecap:round;stroke-linejoin:round;stroke-miterlimit:4;stroke-dasharray:none;stroke-opacity:1"
       x1="34.102184"
       y1="45.310833"
       x2="32.589405"
       y2="43.241779"
       id="line3411-9" /><line
       style="clip-rule:nonzero;fill:none;fill-rule:nonzero;stroke:#00ff00;stroke-width:0.0283465;stroke-linecap:round;stroke-linejoin:round;stroke-miterlimit:4;stroke-dasharray:none;stroke-opacity:1"
       x1="28.55015"
       y1="61.843758"
       x2="29.571642"
       y2="60.03458"
       id="line3413-2" /><line
       style="clip-rule:nonzero;fill:none;fill-rule:nonzero;stroke:#00ff00;stroke-width:0.0283465;stroke-linecap:round;stroke-linejoin:round;stroke-miterlimit:4;stroke-dasharray:none;stroke-opacity:1"
       x1="30.268049"
       y1="63.560257"
       x2="31.196592"
       y2="61.10144"
       id="line3415-6" /><path
       id="line3419-4"
       style="fill:none;stroke:#00ff00;stroke-width:0.0283465;stroke-linecap:round;stroke-linejoin:round"
       d="m 45.0784,47.602177 -0.557125,1.298988 m 1.160492,-2.505013 -0.603367,1.206025" /><path
       id="line3423-5"
       style="fill:none;stroke:#00ff00;stroke-width:0.0283465;stroke-linecap:round;stroke-linejoin:round"
       d="m 50.371098,46.53532 -0.580246,0.579773 m 1.467655,-1.982586 -0.887409,1.402813" /><line
       style="clip-rule:nonzero;fill:none;fill-rule:nonzero;stroke:#00ff00;stroke-width:0.0283465;stroke-linecap:round;stroke-linejoin:round;stroke-miterlimit:4;stroke-dasharray:none;stroke-opacity:1"
       x1="52.699139"
       y1="45.825565"
       x2="51.810154"
       y2="47.695145"
       id="line3425-0" /><path
       id="line3429-8"
       style="fill:none;stroke:#00ff00;stroke-width:0.0283465;stroke-linecap:round;stroke-linejoin:round"
       d="m 44.428234,39.808792 -0.649887,-1.345196 m 0.928448,2.644188 -0.278561,-1.298992" /><path
       style="clip-rule:nonzero;fill:none;fill-rule:nonzero;stroke:#00ff00;stroke-width:0.0283465;stroke-linecap:round;stroke-linejoin:round;stroke-miterlimit:4;stroke-dasharray:none;stroke-opacity:1"
       inkscape:connector-curvature="0"
       d="m 53.020694,38.596084 c 0.01691,0.07478 0.0079,0.08972 0.0079,0.168948 0,0.634142 -0.568827,1.148135 -1.270991,1.148135 -0.701608,0 -1.270711,-0.513993 -1.270711,-1.148135"
       id="path3471-7" /><path
       style="clip-rule:nonzero;fill:#808080;fill-opacity:1;fill-rule:nonzero;stroke:none;stroke-width:0.0283465;stroke-miterlimit:4;stroke-dasharray:none"
       inkscape:connector-curvature="0"
       d="m 52.496825,38.629303 c 0.0046,0.02946 0.0069,0.05949 0.0072,0.08993 0.0031,0.397075 -0.368312,0.72313 -0.829965,0.727885 -0.461654,0.0048 -0.838206,-0.313694 -0.841344,-0.710677"
       id="path3473-7" /><path
       id="line3463-0"
       style="fill:none;stroke:#00ff00;stroke-width:0.0283465;stroke-linecap:round;stroke-linejoin:round"
       d="m 47.492424,32.711239 -0.499184,0.498592 m 1.427914,-0.916092 -0.92873,0.4175 m 2.367783,-1.438065 -1.439053,1.020565 m 2.390907,-0.746402 -0.951854,-0.274163 m 2.829456,0.274163 h -1.877602 m 6.314183,2.996276 0.533725,0.324723 m -1.996181,-0.672638 1.462456,0.347915 m -2.298146,-0.719032 0.83569,0.371117 m -2.974125,-2.648361 2.138435,2.277244" /><path
       style="clip-rule:nonzero;fill:none;fill-rule:nonzero;stroke:#00ff00;stroke-width:0.0283465;stroke-linecap:round;stroke-linejoin:round;stroke-miterlimit:4;stroke-dasharray:none;stroke-opacity:1"
       inkscape:connector-curvature="0"
       d="m 50.157113,31.3552 c -0.009,-0.640276 0.550114,-1.1699 1.248845,-1.182631 0.698453,-0.01271 1.27206,0.496171 1.281019,1.136541 0.0011,0.08006 -0.0068,0.15833 -0.02253,0.234242"
       id="path3467-9" /><path
       inkscape:transform-center-y="-0.036631347"
       style="clip-rule:nonzero;fill:#808080;fill-opacity:1;fill-rule:nonzero;stroke:none;stroke-width:0.0283465;stroke-miterlimit:4;stroke-dasharray:none"
       inkscape:connector-curvature="0"
       d="m 50.804729,31.548364 c -0.06363,-0.09999 -0.100782,-0.216769 -0.102086,-0.341826 -0.0039,-0.377951 0.32006,-0.688631 0.724046,-0.694114 0.403978,-0.0055 0.734368,0.296412 0.738304,0.674271 0.0014,0.130622 -0.03655,0.253149 -0.103149,0.357878"
       id="path3469-1" /><path
       style="fill:none;stroke:#00ff00;stroke-width:0.0283465;stroke-linecap:round;stroke-linejoin:round"
       d="m 40.063988,43.714481 2.275024,0.408501"
       id="path7"
       sodipodi:nodetypes="cc" /><path
       id="line3445-6"
       style="fill:none;stroke:#00ff00;stroke-width:0.0283465;stroke-linecap:round;stroke-linejoin:round"
       d="m 57.45105,36.723816 0.441242,-0.162273 m -2.87867,0.347919 2.437428,-0.185646 m -3.969521,1.994827 1.532093,-1.809181 m -1.992927,1.686623 0.460834,0.122558 m -3.528278,0.06958 3.067444,-0.192142 m -4.460259,-0.782032 1.392815,0.974174 m -2.971432,-1.716309 1.578617,0.742135" /><path
       id="line3477-1"
       style="fill:none;stroke:#00ff00;stroke-width:0.0283465;stroke-linecap:round;stroke-linejoin:round"
       d="m 41.689129,30.809189 v 1.067047 m -0.379501,-2.734835 0.379501,1.667788" /><line
       style="clip-rule:nonzero;fill:none;fill-rule:nonzero;stroke:#00ff00;stroke-width:0.0283465;stroke-linecap:round;stroke-linejoin:round;stroke-miterlimit:4;stroke-dasharray:none;stroke-opacity:1"
       x1="40.391769"
       y1="21.916378"
       x2="39.18206"
       y2="21.624125"
       id="line3479-5" /><path
       id="line3483-7"
       style="fill:none;stroke:#00ff00;stroke-width:0.0283465;stroke-linecap:round;stroke-linejoin:round"
       d="m 37.742912,27.515646 0.928543,-1.345285 m -1.642036,2.550014 0.713493,-1.204729" /><path
       id="line3489-7"
       style="fill:none;stroke:#00ff00;stroke-width:0.0283465;stroke-linecap:round;stroke-linejoin:round"
       d="m 42.054695,16.411184 0.313381,0.574112 m -0.446911,-1.716401 0.13353,1.142289 m -0.271973,-2.477647 0.138443,1.335358" /><path
       id="line3495-5"
       style="fill:none;stroke:#00ff00;stroke-width:0.0283465;stroke-linecap:round;stroke-linejoin:round"
       d="M 44.405117,16.324249 44.23101,16.89827 m -0.05227,-1.165481 0.226379,0.59146 m -0.07429,-1.529265 -0.152092,0.937805" /><path
       id="line3501-9"
       style="fill:none;stroke:#00ff00;stroke-width:0.0283465;stroke-linecap:round;stroke-linejoin:round"
       d="m 32.130886,37.007996 -0.174097,0.469738 m 0.36566,-1.304745 -0.191563,0.835007 m 0.293053,-1.778469 -0.10149,0.943462" /><path
       id="line3509-2"
       style="fill:none;stroke:#00ff00;stroke-width:0.0283465;stroke-linecap:round;stroke-linejoin:round"
       d="m 28.039545,25.352705 v -0.347919 m -0.156738,0.887237 0.156738,-0.539318 m -0.679043,0.922031 0.522305,-0.382713 m -0.620453,0.915819 0.09815,-0.533106" /><line
       style="clip-rule:nonzero;fill:none;fill-rule:nonzero;stroke:#00ff00;stroke-width:0.0283465;stroke-linecap:round;stroke-linejoin:round;stroke-miterlimit:4;stroke-dasharray:none;stroke-opacity:1"
       x1="18.113701"
       y1="27.426117"
       x2="20.291969"
       y2="25.804998"
       id="line3511-9" /><line
       style="clip-rule:nonzero;fill:none;fill-rule:nonzero;stroke:#00ff00;stroke-width:0.0283465;stroke-linecap:round;stroke-linejoin:round;stroke-miterlimit:4;stroke-dasharray:none;stroke-opacity:1"
       x1="19.977936"
       y1="28.649864"
       x2="22.241909"
       y2="27.040159"
       id="line3513-3" /><path
       id="line3529-6"
       style="fill:none;stroke:#00ff00;stroke-width:0.0283465;stroke-linecap:round;stroke-linejoin:round"
       d="m 27.48242,36.468765 0.232136,-0.487087 m -0.258229,1.069828 0.02609,-0.582741 m -0.487481,1.043755 0.470028,-0.469731 m -0.818232,1.235154 0.348204,-0.765423 m -1.027248,1.79174 0.679044,-1.026317 m -1.739626,1.42044 1.060582,-0.394123" /><path
       id="path3527-9"
       style="clip-rule:nonzero;fill:none;fill-rule:nonzero;stroke:#00ff00;stroke-width:0.0283465;stroke-linecap:round;stroke-linejoin:round;stroke-miterlimit:4;stroke-dasharray:none;stroke-opacity:1"
       d="m 14.807809,40.156711 c 3.13374,5.89041 12.045894,3.42482 16.592692,1.224488 5.87489,-2.843195 12.820113,-7.347867 19.64388,-4.726968 M 50.60314,33.52296 c -2.405857,2.155613 -6.952095,0.8569 -9.864469,1.667412 -2.53613,0.706601 -6.061157,1.940741 -8.179348,3.504335 -2.73419,2.018301 -5.515176,3.286305 -8.791445,4.001718 -2.530559,0.552588 -7.678958,-0.06337 -9.029617,-2.678977" /></g></g>
</svg>
