<?xml version="1.0" encoding="UTF-8" standalone="no"?>
<svg
   viewBox="0 0 793.70077 1122.5197"
   width="210mm"
   height="297mm"
   version="1.1"
   id="svg777"
   sodipodi:docname="planetary-gears.svg"
   inkscape:version="1.3.2 (1:1.3.2+202311252150+091e20ef0f)"
   xmlns:inkscape="http://www.inkscape.org/namespaces/inkscape"
   xmlns:sodipodi="http://sodipodi.sourceforge.net/DTD/sodipodi-0.dtd"
   xmlns="http://www.w3.org/2000/svg"
   xmlns:svg="http://www.w3.org/2000/svg">
  <sodipodi:namedview
     id="namedview777"
     pagecolor="#ffffff"
     bordercolor="#000000"
     borderopacity="0.25"
     inkscape:showpageshadow="2"
     inkscape:pageopacity="0.0"
     inkscape:pagecheckerboard="0"
     inkscape:deskcolor="#d1d1d1"
     showgrid="false"
     inkscape:zoom="4.1222501"
     inkscape:cx="262.47801"
     inkscape:cy="226.09012"
     inkscape:window-width="3440"
     inkscape:window-height="1363"
     inkscape:window-x="0"
     inkscape:window-y="40"
     inkscape:window-maximized="1"
     inkscape:current-layer="g584"
     inkscape:document-units="mm" />
  <desc
     id="desc1">voq288eo.dxf - scale = 1.000000, origin = (0.000000, 0.000000), method = auto</desc>
  <defs
     id="defs4">
    <inkscape:path-effect
       effect="skeletal"
       id="path-effect1"
       is_visible="true"
       lpeversion="1"
       pattern="M 0,0 H 1"
       copytype="single_stretched"
       prop_scale="1"
       scale_y_rel="false"
       spacing="0"
       normal_offset="0"
       tang_offset="0"
       prop_units="false"
       vertical_pattern="false"
       hide_knot="false"
       fuse_tolerance="0" />
    <marker
       id="DistanceX"
       orient="auto"
       refX="0"
       refY="0"
       style="overflow:visible">
      <path
         d="M 3,-3 -3,3 M 0,-5 V 5"
         style="stroke:#000000;stroke-width:0.5"
         id="path1" />
    </marker>
    <pattern
       id="Hatch"
       patternUnits="userSpaceOnUse"
       width="8"
       height="8"
       x="0"
       y="0">
      <path
         d="M8 4 l-4,4"
         stroke="#000000"
         stroke-width="0.25"
         linecap="square"
         id="path2" />
      <path
         d="M6 2 l-4,4"
         stroke="#000000"
         stroke-width="0.25"
         linecap="square"
         id="path3" />
      <path
         d="M4 0 l-4,4"
         stroke="#000000"
         stroke-width="0.25"
         linecap="square"
         id="path4" />
    </pattern>
    <symbol
       id="*Model_Space" />
    <symbol
       id="*Paper_Space" />
    <symbol
       id="*Paper_Space0" />
  </defs>
  <g
     inkscape:groupmode="layer"
     inkscape:label="all"
     id="g777"
     style="display:inline;stroke-width:0.377953;stroke-dasharray:none">
    <g
       id="g1"
       inkscape:label="sun"
       transform="translate(26.914136,81.840182)"
       style="stroke-width:0.377953;stroke-dasharray:none">
      <circle
         style="display:inline;fill:none;stroke:#ff0000;stroke-width:0.377953;stroke-linecap:round;stroke-dasharray:none;stroke-opacity:1"
         id="path6-3-9"
         cx="199.45337"
         cy="199.42902"
         r="18.708643"
         inkscape:label="hole" />
      <path
         id="path776"
         style="fill:none;stroke:#00ff00;stroke-width:0.377953;stroke-linecap:round;stroke-dasharray:none;stroke-opacity:1"
         d="m 275.77977,193.28288 4.9867,0.81706 6.9312,2.90027 v 4.8576 l -6.9312,2.90027 -4.9867,0.81706 -1.8709,-0.1504 -0.9846,7.48377 1.8454,0.3381 4.6048,2.08 5.9456,4.5952 -1.2576,4.6933 -7.4464,1.007 -5.0283,-0.5014 -1.7675,-0.6293 -2.8885,6.9728 1.6949,0.8053 3.9104,3.2 4.5526,5.9776 -2.4288,4.208 -7.4528,-0.9546 -4.7275,-1.7856 -1.5445,-1.0656 -4.5952,5.9882 1.4293,1.216 2.9483,4.1035 2.8512,6.9525 -3.4358,3.4358 -6.9525,-2.8512 -4.1035,-2.9483 -1.216,-1.4293 -5.9882,4.5952 1.0656,1.5445 1.7856,4.7275 0.9546,7.4528 -4.208,2.4288 -5.9776,-4.5526 -3.2,-3.9104 -0.8053,-1.6949 -6.9728,2.8885 0.6293,1.7675 0.5014,5.0283 -1.007,7.4464 -4.6933,1.2576 -4.5952,-5.9456 -2.08,-4.6048 -0.3381,-1.8454 -7.48377,0.9846 0.1504,1.8709 -0.81706,4.9867 -2.90027,6.9312 h -4.8576 l -2.90027,-6.9312 -0.81706,-4.9867 0.1504,-1.8709 -7.48377,-0.9846 -0.3381,1.8454 -2.08,4.6048 -4.5952,5.9456 -4.6933,-1.2576 -1.007,-7.4464 0.5014,-5.0283 0.6293,-1.7675 -6.9728,-2.8885 -0.8053,1.6949 -3.2,3.9104 -5.9776,4.5526 -4.208,-2.4288 0.9546,-7.4528 1.7856,-4.7275 1.0656,-1.5445 -5.9882,-4.5952 -1.216,1.4293 -4.1035,2.9483 -6.9525,2.8512 -3.4358,-3.4358 2.8512,-6.9525 2.9483,-4.1035 1.4293,-1.216 -4.5952,-5.9882 -1.5445,1.0656 -4.7275,1.7856 -7.4528,0.9546 -2.4288,-4.208 4.5526,-5.9776 3.9104,-3.2 1.6949,-0.8053 -2.8885,-6.9728 -1.7675,0.6293 -5.0283,0.5014 -7.4464,-1.007 -1.2576,-4.6933 5.9456,-4.5952 4.6048,-2.08 1.8454,-0.3381 -0.9846,-7.48377 -1.8709,0.1504 -4.9867,-0.81706 -6.9312,-2.90027 v -4.8576 l 6.9312,-2.90027 4.9867,-0.81706 1.8709,0.1504 0.9846,-7.48377 -1.8454,-0.3381 -4.6048,-2.08 -5.9456,-4.5952 1.2576,-4.6933 7.4464,-1.007 5.0283,0.5014 1.7675,0.6293 2.8885,-6.9728 -1.6949,-0.8053 -3.9104,-3.2 -4.5526,-5.9776 2.4288,-4.208 7.4528,0.9546 4.7275,1.7856 1.5445,1.0656 4.5952,-5.9882 -1.4293,-1.216 -2.9483,-4.1035 -2.8512,-6.9525 3.4358,-3.4358 6.9525,2.8512 4.1035,2.9483 1.216,1.4293 5.9882,-4.5952 -1.0656,-1.5445 -1.7856,-4.7275 -0.9546,-7.4528 4.208,-2.4288 5.9776,4.5526 3.2,3.9104 0.8053,1.6949 6.9728,-2.8885 -0.6293,-1.7675 -0.5014,-5.0283 1.007,-7.4464 4.6933,-1.2576 4.5952,5.9456 2.08,4.6048 0.3381,1.8454 7.48377,-0.9846 -0.1504,-1.8709 0.81706,-4.9867 2.90027,-6.9312 h 4.8576 l 2.90027,6.9312 0.81706,4.9867 -0.1504,1.8709 7.48377,0.9846 0.3381,-1.8454 2.08,-4.6048 4.5952,-5.9456 4.6933,1.2576 1.007,7.4464 -0.5014,5.0283 -0.6293,1.7675 6.9728,2.8885 0.8053,-1.6949 3.2,-3.9104 5.9776,-4.5526 4.208,2.4288 -0.9546,7.4528 -1.7856,4.7275 -1.0656,1.5445 5.9882,4.5952 1.216,-1.4293 4.1035,-2.9483 6.9525,-2.8512 3.4358,3.4358 -2.8512,6.9525 -2.9483,4.1035 -1.4293,1.216 4.5952,5.9882 1.5445,-1.0656 4.7275,-1.7856 7.4528,-0.9546 2.4288,4.208 -4.5526,5.9776 -3.9104,3.2 -1.6949,0.8053 2.8885,6.9728 1.7675,-0.6293 5.0283,-0.5014 7.4464,1.007 1.2576,4.6933 -5.9456,4.5952 -4.6048,2.08 -1.8454,0.3381 0.9846,7.48377 z"
         inkscape:label="teeth"
         sodipodi:nodetypes="ccccccccccccccccccccccccccccccccccccccccccccccccccccccccccccccccccccccccccccccccccccccccccccccccccccccccccccccccccccccccccccccccccccccccccccccccccccccccccccccccccccccccccccccccccccccccccccccccc" />
    </g>
    <g
       id="g2"
       inkscape:label="basePlate"
       transform="translate(-6.1146816,594.54757)"
       style="display:inline;stroke-width:0.377953;stroke-dasharray:none">
      <path
         id="path6-6-7-3"
         style="display:inline;fill:none;stroke:#000000;stroke-width:0.377953;stroke-linecap:round;stroke-dasharray:none;stroke-opacity:1"
         inkscape:label="outerEdge"
         d="m 357.52274,-125.81083 a 3.5905437,3.5905473 0 0 0 -3.58984,3.58985 3.5905437,3.5905473 0 0 0 0.0176,0.25586 187.74406,187.74406 0 0 0 -41.4648,5.64062 3.5905437,3.5905473 0 0 0 -3.55469,-3.08984 3.5905437,3.5905473 0 0 0 -3.58984,3.58984 3.5905437,3.5905473 0 0 0 0.14844,1.02149 187.74406,187.74406 0 0 0 -38.50777,16.400389 3.5905437,3.5905473 0 0 0 -3.33203,-2.255859 3.5905437,3.5905473 0 0 0 -3.58984,3.589843 3.5905437,3.5905473 0 0 0 0.67187,2.078125 187.74406,187.74406 0 0 0 -33.11129,25.580078 3.5905437,3.5905473 0 0 0 -2.85351,-1.412109 3.5905437,3.5905473 0 0 0 -3.58984,3.589843 3.5905437,3.5905473 0 0 0 1.41796,2.84961 187.74406,187.74406 0 0 0 -25.582,33.10937 3.5905437,3.5905473 0 0 0 -2.08203,-0.66601 3.5905437,3.5905473 0 0 0 -3.58984,3.58984 3.5905437,3.5905473 0 0 0 2.25781,3.32617 187.74406,187.74406 0 0 0 -16.40233,38.51368 3.5905437,3.5905473 0 0 0 -1.02148,-0.14844 3.5905437,3.5905473 0 0 0 -3.58984,3.58984 3.5905437,3.5905473 0 0 0 3.08984,3.55469 187.74406,187.74406 0 0 0 -5.64062,41.45704 3.5905437,3.5905473 0 0 0 -0.25586,-0.01 3.5905437,3.5905473 0 0 0 -3.58984,3.58985 3.5905437,3.5905473 0 0 0 3.58984,3.58984 3.5905437,3.5905473 0 0 0 0.25586,-0.0176 187.74406,187.74406 0 0 0 5.64062,41.46484 3.5905437,3.5905473 0 0 0 -3.08984,3.55469 3.5905437,3.5905473 0 0 0 3.58984,3.58985 3.5905437,3.5905473 0 0 0 1.02148,-0.14844 187.74406,187.74406 0 0 0 16.40233,38.51172 3.5905437,3.5905473 0 0 0 -2.25781,3.32617 3.5905437,3.5905473 0 0 0 3.58984,3.5918 3.5905437,3.5905473 0 0 0 2.07812,-0.67188 187.74406,187.74406 0 0 0 25.58591,33.11524 3.5905437,3.5905473 0 0 0 -1.41796,2.84765 3.5905437,3.5905473 0 0 0 3.58984,3.5918 3.5905437,3.5905473 0 0 0 2.8496,-1.41992 187.74406,187.74406 0 0 0 33.11716,25.58593 3.5905437,3.5905473 0 0 0 -0.67383,2.08008 3.5905437,3.5905473 0 0 0 3.58984,3.58985 3.5905437,3.5905473 0 0 0 3.32617,-2.25977 187.74406,187.74406 0 0 0 38.51363,16.4043 3.5905437,3.5905473 0 0 0 -0.14844,1.01953 3.5905437,3.5905473 0 0 0 3.58984,3.5918 3.5905437,3.5905473 0 0 0 3.55469,-3.08985 187.74406,187.74406 0 0 0 41.4648,5.64063 3.5905437,3.5905473 0 0 0 -0.0176,0.25586 3.5905437,3.5905473 0 0 0 3.58984,3.58984 3.5905437,3.5905473 0 0 0 3.58984,-3.58984 3.5905437,3.5905473 0 0 0 -0.01,-0.25586 187.74406,187.74406 0 0 0 41.45699,-5.64063 3.5905437,3.5905473 0 0 0 3.55468,3.08985 3.5905437,3.5905473 0 0 0 3.58984,-3.5918 3.5905437,3.5905473 0 0 0 -0.14844,-1.01953 187.74406,187.74406 0 0 0 38.51364,-16.4043 3.5905437,3.5905473 0 0 0 3.32617,2.25977 3.5905437,3.5905473 0 0 0 3.58984,-3.58985 3.5905437,3.5905473 0 0 0 -0.66602,-2.08203 187.74406,187.74406 0 0 0 33.10934,-25.58398 3.5905437,3.5905473 0 0 0 2.84961,1.41992 3.5905437,3.5905473 0 0 0 3.58984,-3.5918 3.5905437,3.5905473 0 0 0 -1.41406,-2.85351 187.74406,187.74406 0 0 0 25.582,-33.10938 3.5905437,3.5905473 0 0 0 2.07813,0.67188 3.5905437,3.5905473 0 0 0 3.58984,-3.5918 3.5905437,3.5905473 0 0 0 -2.25586,-3.33203 187.74406,187.74406 0 0 0 16.40037,-38.50586 3.5905437,3.5905473 0 0 0 1.02149,0.14844 3.5905437,3.5905473 0 0 0 3.58984,-3.58985 3.5905437,3.5905473 0 0 0 -3.08984,-3.55664 187.74406,187.74406 0 0 0 5.64062,-41.46289 3.5905437,3.5905473 0 0 0 0.25586,0.0176 3.5905437,3.5905473 0 0 0 3.58984,-3.58984 3.5905437,3.5905473 0 0 0 -3.58984,-3.58985 3.5905437,3.5905473 0 0 0 -0.0879,0.006 187.74406,187.74406 0 0 0 -5.42578,-41.53517 3.5905437,3.5905473 0 0 0 2.70703,-3.47265 3.5905437,3.5905473 0 0 0 -3.58984,-3.58984 3.5905437,3.5905473 0 0 0 -1.00586,0.14258 187.74406,187.74406 0 0 0 -16.02928,-38.69141 3.5905437,3.5905473 0 0 0 1.86914,-3.14258 3.5905437,3.5905473 0 0 0 -3.58984,-3.58984 3.5905437,3.5905473 0 0 0 -1.83203,0.50976 187.74406,187.74406 0 0 0 -25.53318,-33.207026 3.5905437,3.5905473 0 0 0 1.11914,-2.595704 3.5905437,3.5905473 0 0 0 -3.58984,-3.589843 3.5905437,3.5905473 0 0 0 -2.5957,1.11914 187.74406,187.74406 0 0 0 -33.207,-25.533203 3.5905437,3.5905473 0 0 0 0.50977,-1.832031 3.5905437,3.5905473 0 0 0 -3.58984,-3.589843 3.5905437,3.5905473 0 0 0 -3.14258,1.86914 187.74406,187.74406 0 0 0 -38.69137,-16.0293 3.5905437,3.5905473 0 0 0 0.14258,-1.00586 3.5905437,3.5905473 0 0 0 -3.58984,-3.58984 3.5905437,3.5905473 0 0 0 -3.4746,2.70898 187.74406,187.74406 0 0 0 -41.53317,-5.42773 3.5905437,3.5905473 0 0 0 0.006,-0.0879 3.5905437,3.5905473 0 0 0 -3.58984,-3.58984 z"
         transform="translate(-123.9798,-15.004262)" />
    </g>
    <g
       inkscape:groupmode="layer"
       inkscape:label="planets"
       id="g584"
       style="display:inline;stroke-width:0.377953;stroke-dasharray:none"
       transform="translate(26.251932,26.25201)">
      <g
         id="g779"
         inkscape:label="leftPlanet"
         style="display:inline;stroke-width:0.377953;stroke-dasharray:none"
         transform="translate(13.496381,-114.10553)">
        <path
           id="path485"
           style="fill:none;stroke:#00ff00;stroke-width:0.377953;stroke-linecap:round;stroke-dasharray:none;stroke-opacity:1"
           d="m 139.95417,270.93361 -1.0907,4.0715 -7.682,1.2663 -2.4928,-0.4155 -3.9779,-1.7182 -3.9296,6.8063 3.4771,2.5871 1.605,1.9505 2.7455,7.286 -2.9808,2.9808 -7.286,-2.7455 -1.9505,-1.605 -2.5871,-3.4771 -6.8063,3.9296 1.7182,3.9779 0.4156,2.4928 -1.2664,7.6819 -4.0714,1.091 -4.936699,-6.02 -0.888,-2.366 -0.5,-4.3037 h -7.86 l -0.501,4.3037 -0.887,2.366 -4.937,6.02 -4.071,-1.091 -1.267,-7.6819 0.416,-2.4928 1.718,-3.9779 -6.806,-3.9296 -2.587,3.4771 -1.951,1.605 -7.286,2.7455 -2.981,-2.9808 2.746,-7.286 1.605,-1.9505 3.477,-2.5871 -3.93,-6.8063 -3.978,1.7182 -2.492,0.4155 -7.682,-1.2663 -1.091,-4.0715 6.02,-4.9365 2.366,-0.8878 4.304,-0.5008 v -7.8592 l -4.304,-0.5009 -2.366,-0.8877 -6.02,-4.9365 1.091,-4.0715 7.682,-1.2664 2.492,0.4156 3.978,1.7182 3.93,-6.8063 -3.477,-2.5871 -1.605,-1.9505 -2.746,-7.286 2.981,-2.9808 7.286,2.7455 1.951,1.605 2.587,3.4771 6.806,-3.9296 -1.718,-3.9779 -0.416,-2.4928 1.267,-7.682 4.071,-1.0907 4.937,6.0197 0.887,2.366 0.501,4.3038 h 7.86 l 0.5,-4.3038 0.888,-2.366 4.936699,-6.0197 4.0714,1.0907 1.2664,7.682 -0.4156,2.4928 -1.7182,3.9779 6.8063,3.9296 2.5871,-3.4771 1.9505,-1.605 7.286,-2.7455 2.9808,2.9808 -2.7455,7.286 -1.605,1.9505 -3.4771,2.5871 3.9296,6.8063 3.9779,-1.7182 2.4928,-0.4156 7.682,1.2664 1.0907,4.0715 -6.0197,4.9365 -2.366,0.8877 -4.3038,0.5009 v 7.8592 l 4.3038,0.5008 2.366,0.8878 z"
           inkscape:label="teeth"
           sodipodi:nodetypes="ccccccccccccccccccccccccccccccccccccccccccccccccccccccccccccccccccccccccccccccccccccccccccccccccc" />
        <circle
           style="display:inline;fill:none;stroke:#ff0000;stroke-width:0.377953;stroke-linecap:round;stroke-dasharray:none;stroke-opacity:1"
           id="path6-3-0"
           cx="93.539284"
           cy="260.68024"
           r="11.149607"
           inkscape:label="hole" />
      </g>
      <g
         id="g778"
         inkscape:label="rightPlanet"
         style="display:inline;stroke-width:0.377953;stroke-dasharray:none"
         transform="translate(-16.114413,-109.11383)">
        <path
           id="path581"
           style="fill:none;stroke:#00ff00;stroke-width:0.377953;stroke-linecap:round;stroke-dasharray:none;stroke-opacity:1"
           d="m 270.29787,245.44191 3.979,1.7177 3.9296,-6.8063 -3.4769,-2.5859 -1.6063,-1.951 -2.7443,-7.286 2.9807,-2.9803 7.285,2.7449 1.9518,1.6052 2.5856,3.4768 6.8063,-3.9297 -1.7181,-3.9775 -0.4143,-2.493 1.2654,-7.6814 4.0713,-1.0912 4.9377,6.0196 0.886,2.3666 0.501,4.3041 h 7.86 l 0.502,-4.3048 0.886,-2.3653 4.937,-6.0206 4.072,1.091 1.266,7.6827 -0.415,2.4916 -1.718,3.9791 6.807,3.9296 2.585,-3.4769 1.951,-1.6064 7.286,-2.7442 2.981,2.9806 -2.745,7.285 -1.605,1.9518 -3.477,2.5856 3.929,6.8064 3.978,-1.7182 2.493,-0.4142 7.681,1.2653 1.092,4.0713 -6.02,4.9377 -2.367,0.8865 -4.304,0.501 v 7.8593 l 4.305,0.5019 2.365,0.8866 6.021,4.9372 -1.091,4.0718 -7.683,1.2654 -2.491,-0.4148 -3.979,-1.7177 -3.93,6.8063 3.477,2.5859 1.606,1.951 2.745,7.286 -2.981,2.9803 -7.285,-2.7449 -1.952,-1.6052 -2.586,-3.4767 -6.806,3.9296 1.718,3.9775 0.414,2.493 -1.265,7.6814 -4.071,1.091 -4.938,-6.019 -0.886,-2.367 -0.501,-4.3041 h -7.86 l -0.502,4.3048 -0.886,2.3653 -4.9373,6.021 -4.0718,-1.091 -1.2654,-7.683 0.4147,-2.4917 1.7177,-3.979 -6.8063,-3.9297 -2.5859,3.477 -1.951,1.6063 -7.286,2.7442 -2.9802,-2.9806 2.7449,-7.285 1.6052,-1.9518 3.4767,-2.5856 -3.9296,-6.8064 -3.9776,1.7182 -2.4929,0.4142 -7.6815,-1.2653 -1.0912,-4.0713 6.0197,-4.9377 2.3666,-0.8865 4.304,-0.501 v -7.8592 l -4.3047,-0.502 -2.3653,-0.8866 -6.0206,-4.9372 1.091,-4.0718 7.6826,-1.2654 z"
           inkscape:label="teeth"
           sodipodi:nodetypes="ccccccccccccccccccccccccccccccccccccccccccccccccccccccccccccccccccccccccccccccccccccccccccccccccc" />
        <circle
           style="display:inline;fill:none;stroke:#ff0000;stroke-width:0.377953;stroke-linecap:round;stroke-dasharray:none;stroke-opacity:1"
           id="path6-3-90"
           cx="305.44559"
           cy="260.60919"
           r="11.149607"
           inkscape:label="hole" />
      </g>
      <g
         id="g780"
         inkscape:label="topPlanet"
         style="display:inline;stroke-width:0.377953;stroke-dasharray:none"
         transform="translate(1.3725456,20.740319)">
        <path
           id="path389"
           style="fill:none;stroke:#00ff00;stroke-width:0.377953;stroke-linecap:round;stroke-dasharray:none;stroke-opacity:1"
           d="m 215.03397,114.77251 -1.2653,7.6826 -4.0719,1.0911 -4.93713,-6.0207 -0.88665,-2.3652 -0.50192,-4.3048 h -7.85927 l -0.50096,4.3041 -0.88649,2.3666 -4.93768,6.0196 -4.0713,-1.0912 -1.2654,-7.6814 0.4143,-2.493 1.7181,-3.9776 -6.8063,-3.9296 -2.5856,3.4768 -1.9519,1.6052 -7.285,2.7449 -2.9806,-2.9803 2.7443,-7.286 1.6063,-1.951003 3.4769,-2.5856 -3.9296,-6.807 -3.979,1.718 -2.4917,0.415 -7.6826,-1.266 -1.0911,-4.071 6.0207,-4.937 2.3652,-0.887 4.3048,-0.502 v -7.859 l -4.304,-0.501 -2.3666,-0.887 -6.0197,-4.938 1.0912,-4.071 7.6815,-1.265 2.4929,0.414 3.9776,1.718 3.9296,-6.806 -3.4767,-2.586 -1.6052,-1.952 -2.7449,-7.285 2.9802,-2.98 7.286,2.744 1.951,1.606 2.5859,3.477 6.8063,-3.929 -1.7177,-3.979 -0.4147,-2.492 1.2653,-7.683 4.0719,-1.091 4.93712,6.021 0.88664,2.365 0.50193,4.305 h 7.85927 l 0.50096,-4.304 0.88648,-2.367 4.9377,-6.019 4.0713,1.091 1.2654,7.681 -0.4143,2.493 -1.7181,3.978 6.8063,3.93 2.5856,-3.477 1.9518,-1.605 7.285,-2.745 2.9807,2.98 -2.7443,7.286 -1.6063,1.951 -3.4769,2.586 3.9296,6.806 3.979,-1.718 2.4917,-0.414 7.6826,1.265 1.0911,4.072 -6.0207,4.937 -2.3652,0.887 -4.3048,0.502 v 7.859 l 4.304,0.501 2.3666,0.886 6.0197,4.938 -1.0912,4.071 -7.6815,1.266 -2.4929,-0.415 -3.9776,-1.718 -3.9296,6.807 3.4767,2.5852 1.6052,1.951903 2.7449,7.285 -2.9802,2.9806 -7.286,-2.7443 -1.951,-1.6063 -2.5859,-3.4769 -6.8063,3.9296 1.7177,3.979 z"
           inkscape:label="teeth"
           sodipodi:nodetypes="ccccccccccccccccccccccccccccccccccccccccccccccccccccccccccccccccccccccccccccccccccccccccccccccccc" />
        <circle
           style="display:inline;fill:none;stroke:#ff0000;stroke-width:0.377953;stroke-linecap:round;stroke-dasharray:none;stroke-opacity:1"
           id="path6-3-8"
           cx="199.44609"
           cy="77.130318"
           r="11.149607"
           inkscape:label="hole" />
      </g>
    </g>
    <g
       inkscape:groupmode="layer"
       inkscape:label="ring"
       id="g293"
       style="display:inline;stroke-width:0.377953;stroke-dasharray:none"
       transform="translate(26.251932,26.25201)">
      <path
         id="path292"
         style="display:inline;fill:none;stroke:#0000ff;stroke-width:0.377953;stroke-linecap:round;stroke-dasharray:none;stroke-opacity:1"
         d="m 352.06637,256.88481 -7.372,-0.1201 -2.007,4.8491 5.301,5.1249 5.692,4.1912 -3.621,7.341 -6.791,-1.9602 -7.294,-1.0813 -2.622,4.5456 4.586,5.773 5.096,4.8982 -4.548,6.8056 -6.477,-2.8299 -7.09,-2.024 -3.194,4.1645 3.794,6.3226 4.413,5.521 -5.398,6.154 -6.052,-3.651 -6.765,-2.932 -3.71,3.711 2.936,6.764 3.655,6.05 -6.155,5.397 -5.524,-4.41 -6.3245,-3.79 -4.1626,3.196 2.0281,7.088 2.8336,6.476 -6.8064,4.547 -4.9012,-5.093 -5.7755,-4.583 -4.5442,2.625 1.0855,7.293 1.9641,6.79 -7.3417,3.619 -4.1944,-5.689 -5.128,-5.298 -4.8479,2.01 0.1243,7.372 1.061,6.988 -7.7513,2.631 -3.416,-6.189 -4.3925,-5.921 -5.0688,1.359 -0.839,7.326 0.1398,7.067 -8.0284,1.596 -2.579,-6.581 -3.5821,-6.445 -5.2029,0.687 -1.7879,7.153 -0.7838,7.024 -8.16806,0.535 -1.69796,-6.861 -2.71023,-6.857 -5.248,10e-4 -2.7063,6.859 -1.69404,6.862 -8.16791,-0.536 -0.7878,-7.024 -1.7921,-7.152 -5.2033,-0.684 -3.5783,6.447 -2.5753,6.582 -8.0281,-1.597 0.1358,-7.067 -0.8432,-7.325 -5.0696,-1.357 -4.3891,5.924 -3.4125,6.19 -7.7508,-2.631 1.057,-6.989 0.1201,-7.372 -4.8491,-2.007 -5.1249,5.3 -4.1912,5.692 -7.341,-3.621 1.9602,-6.791 1.0813,-7.293 -4.5456,-2.623 -5.773,4.586 -4.8982,5.096 -6.8056,-4.548 2.8299,-6.477 2.024,-7.09 -4.1645,-3.194 -6.321899,3.794 -5.522,4.413 -6.153,-5.398 3.651,-6.052 2.932,-6.765 -3.712,-3.71 -6.763,2.936 -6.051,3.655 -5.396,-6.155 4.41,-5.524 3.79,-6.3242 -3.196,-4.1626 -7.089,2.0281 -6.475,2.8336 -4.547,-6.8064 5.093,-4.9012 4.583,-5.7756 -2.626,-4.5441 -7.292,1.0855 -6.79,1.9641 -3.62,-7.3417 5.689,-4.1945 5.298,-5.1279 -2.01,-4.8479 -7.372,0.1243 -6.988,1.061 -2.63,-7.7513 6.188,-3.416 5.922,-4.3926 -1.36,-5.0687 -7.325,-0.8391 -7.067,0.1398 -1.596,-8.0283 6.581,-2.579 6.444,-3.5821 -0.686,-5.2029 -7.153,-1.7879 -7.025,-0.7839 -0.535,-8.16797 6.862,-1.69796 6.856,-2.71023 -10e-4,-5.248 -6.858,-2.70631 -6.863,-1.69403 0.536,-8.1679 7.025,-0.7879 7.152,-1.792 0.683,-5.2033 -6.446,-3.5784 -6.583,-2.5752 1.598,-8.0281 7.067,0.1358 7.324,-0.8432 1.357,-5.0696 -5.924,-4.3892 -6.19,-3.4124 2.632,-7.7508 6.989,1.057 7.372,0.1201 2.007,-4.8491 -5.301,-5.1249 -5.692,-4.1912 3.621,-7.341 6.791,1.9602 7.294,1.0813 2.622,-4.5457 -4.586,-5.7729 -5.096,-4.8982 4.548,-6.8056 6.477,2.8299 7.09,2.024 3.194,-4.1645 -3.794,-6.322203 -4.413,-5.521 5.398,-6.154 6.052,3.651 6.765,2.932 3.71,-3.712 -2.936,-6.763 -3.655,-6.05 6.155,-5.397 5.524,4.41 6.324499,3.79 4.1626,-3.196 -2.0281,-7.089 -2.8336,-6.475 6.8064,-4.547 4.9012,5.093 5.7755,4.583 4.5442,-2.625 -1.0855,-7.293 -1.9641,-6.79 7.3417,-3.62 4.1945,5.69 5.1279,5.297 4.8479,-2.009 -0.1243,-7.372 -1.061,-6.989 7.7513,-2.63 3.416,6.188 4.3926,5.922 5.0687,-1.36 0.8391,-7.325 -0.1398,-7.067 8.0283,-1.596 2.579,6.581 3.5821,6.444 5.2029,-0.686 1.7879,-7.153 0.7839,-7.025 8.16797,-0.534 1.69796,6.861 2.71023,6.857 5.248,-0.002 2.7063,-6.858 1.69404,-6.862 8.1679,0.536 0.7879,7.024 1.792,7.152 5.2033,0.683 3.5784,-6.446 2.5752,-6.583 8.0281,1.598 -0.1358,7.067 0.8432,7.325 5.0696,1.357 4.3892,-5.925 3.4124,-6.19 7.7508,2.632 -1.057,6.989 -0.1201,7.372 4.8491,2.007 5.1249,-5.301 4.1912,-5.691 7.341,3.621 -1.9602,6.791 -1.0813,7.293 4.5457,2.623 5.7729,-4.587 4.8982,-5.096 6.8056,4.549 -2.8299,6.477 -2.024,7.09 4.1645,3.193 6.3219,-3.794 5.522,-4.413 6.153,5.398 -3.651,6.052 -2.932,6.765 3.712,3.71 6.763,-2.936 6.051,-3.654 5.396,6.154 -4.41,5.524 -3.79,6.324703 3.196,4.1627 7.089,-2.0281 6.476,-2.8336 4.546,6.8064 -5.093,4.9012 -4.583,5.7755 2.626,4.5442 7.292,-1.0855 6.79,-1.9641 3.62,7.3417 -5.689,4.1944 -5.298,5.128 2.01,4.8479 7.372,-0.1243 6.988,-1.061 2.63,7.7513 -6.188,3.416 -5.922,4.3925 1.36,5.0688 7.325,0.839 7.067,-0.1398 1.596,8.0284 -6.581,2.579 -6.444,3.5821 0.686,5.2029 7.153,1.7879 7.025,0.7838 0.535,8.16805 -6.862,1.69797 -6.856,2.71022 10e-4,5.248 6.858,2.70631 6.863,1.69403 -0.536,8.16792 -7.025,0.7878 -7.152,1.7921 -0.683,5.2033 6.446,3.5783 6.583,2.5753 -1.598,8.0281 -7.067,-0.1358 -7.324,0.8432 -1.357,5.0696 5.924,4.3891 6.19,3.4125 -2.632,7.7508 z"
         inkscape:label="teeth"
         sodipodi:nodetypes="ccccccccccccccccccccccccccccccccccccccccccccccccccccccccccccccccccccccccccccccccccccccccccccccccccccccccccccccccccccccccccccccccccccccccccccccccccccccccccccccccccccccccccccccccccccccccccccccccccccccccccccccccccccccccccccccccccccccccccccccccccccccccccccccccccccccccccccccccccccccccccccccccc" />
      <path
         id="path6-6"
         style="display:inline;fill:none;stroke:#000000;stroke-width:0.377953;stroke-linecap:round;stroke-dasharray:none;stroke-opacity:1"
         inkscape:label="outerEdge"
         d="m 213.84646,-42.19606 a 3.5905437,3.5905473 0 0 0 -3.58984,3.589844 3.5905437,3.5905473 0 0 0 0.0176,0.255859 187.74406,187.74406 0 0 0 -41.4648,5.640625 3.5905437,3.5905473 0 0 0 -3.55469,-3.089843 3.5905437,3.5905473 0 0 0 -3.58984,3.589843 3.5905437,3.5905473 0 0 0 0.14844,1.021485 187.74406,187.74406 0 0 0 -38.50777,16.400391 3.5905437,3.5905473 0 0 0 -3.33203,-2.25586 3.5905437,3.5905473 0 0 0 -3.58984,3.589844 3.5905437,3.5905473 0 0 0 0.67187,2.078125 187.74406,187.74406 0 0 0 -33.111291,25.580078 3.5905437,3.5905473 0 0 0 -2.853513,-1.412109 3.5905437,3.5905473 0 0 0 -3.58984,3.589843 3.5905437,3.5905473 0 0 0 1.417967,2.84961 187.74406,187.74406 0 0 0 -25.582006,33.109375 3.5905437,3.5905473 0 0 0 -2.082029,-0.666016 3.5905437,3.5905473 0 0 0 -3.58984,3.589844 3.5905437,3.5905473 0 0 0 2.25781,3.326172 187.74406,187.74406 0 0 0 -16.402327,38.513672 3.5905437,3.5905473 0 0 0 -1.021484,-0.148438 3.5905437,3.5905473 0 0 0 -3.58984,3.589846 3.5905437,3.5905473 0 0 0 3.089841,3.55469 187.74406,187.74406 0 0 0 -5.64062,41.45703 3.5905437,3.5905473 0 0 0 -0.255859,-0.01 3.5905437,3.5905473 0 0 0 -3.58984,3.58985 3.5905437,3.5905473 0 0 0 3.58984,3.58984 3.5905437,3.5905473 0 0 0 0.255859,-0.0176 187.74406,187.74406 0 0 0 5.64062,41.46484 3.5905437,3.5905473 0 0 0 -3.089841,3.55469 3.5905437,3.5905473 0 0 0 3.58984,3.58985 3.5905437,3.5905473 0 0 0 1.021484,-0.14844 187.74406,187.74406 0 0 0 16.402327,38.51172 3.5905437,3.5905473 0 0 0 -2.25781,3.32617 3.5905437,3.5905473 0 0 0 3.58984,3.5918 3.5905437,3.5905473 0 0 0 2.078123,-0.67188 187.74406,187.74406 0 0 0 25.585912,33.11524 3.5905437,3.5905473 0 0 0 -1.417967,2.84765 3.5905437,3.5905473 0 0 0 3.58984,3.5918 3.5905437,3.5905473 0 0 0 2.849606,-1.41992 187.74406,187.74406 0 0 0 33.117158,25.58593 3.5905437,3.5905473 0 0 0 -0.67383,2.08008 3.5905437,3.5905473 0 0 0 3.58984,3.58985 3.5905437,3.5905473 0 0 0 3.32617,-2.25977 187.74406,187.74406 0 0 0 38.51363,16.4043 3.5905437,3.5905473 0 0 0 -0.14844,1.01953 3.5905437,3.5905473 0 0 0 3.58984,3.5918 3.5905437,3.5905473 0 0 0 3.55469,-3.08985 187.74406,187.74406 0 0 0 41.4648,5.64063 3.5905437,3.5905473 0 0 0 -0.0176,0.25586 3.5905437,3.5905473 0 0 0 3.58984,3.58984 3.5905437,3.5905473 0 0 0 3.58984,-3.58984 3.5905437,3.5905473 0 0 0 -0.01,-0.25586 187.74406,187.74406 0 0 0 41.45699,-5.64063 3.5905437,3.5905473 0 0 0 3.55468,3.08985 3.5905437,3.5905473 0 0 0 3.58984,-3.5918 3.5905437,3.5905473 0 0 0 -0.14844,-1.01953 187.74406,187.74406 0 0 0 38.51364,-16.4043 3.5905437,3.5905473 0 0 0 3.32617,2.25977 3.5905437,3.5905473 0 0 0 3.58984,-3.58985 3.5905437,3.5905473 0 0 0 -0.66602,-2.08203 187.74406,187.74406 0 0 0 33.10934,-25.58398 3.5905437,3.5905473 0 0 0 2.84961,1.41992 3.5905437,3.5905473 0 0 0 3.58984,-3.5918 3.5905437,3.5905473 0 0 0 -1.41406,-2.85351 187.74406,187.74406 0 0 0 25.582,-33.10938 3.5905437,3.5905473 0 0 0 2.07813,0.67188 3.5905437,3.5905473 0 0 0 3.58984,-3.5918 3.5905437,3.5905473 0 0 0 -2.25586,-3.33203 187.74406,187.74406 0 0 0 16.40037,-38.50586 3.5905437,3.5905473 0 0 0 1.02149,0.14844 3.5905437,3.5905473 0 0 0 3.58984,-3.58985 3.5905437,3.5905473 0 0 0 -3.08984,-3.55664 187.74406,187.74406 0 0 0 5.64062,-41.46289 3.5905437,3.5905473 0 0 0 0.25586,0.0176 3.5905437,3.5905473 0 0 0 3.58984,-3.58984 3.5905437,3.5905473 0 0 0 -3.58984,-3.58985 3.5905437,3.5905473 0 0 0 -0.0879,0.006 187.74406,187.74406 0 0 0 -5.42578,-41.53516 3.5905437,3.5905473 0 0 0 2.70703,-3.47265 3.5905437,3.5905473 0 0 0 -3.58984,-3.589846 3.5905437,3.5905473 0 0 0 -1.00586,0.142579 187.74406,187.74406 0 0 0 -16.02928,-38.691407 3.5905437,3.5905473 0 0 0 1.86914,-3.142578 3.5905437,3.5905473 0 0 0 -3.58984,-3.589844 3.5905437,3.5905473 0 0 0 -1.83203,0.509766 187.74406,187.74406 0 0 0 -25.53318,-33.207031 3.5905437,3.5905473 0 0 0 1.11914,-2.595704 3.5905437,3.5905473 0 0 0 -3.58984,-3.589843 3.5905437,3.5905473 0 0 0 -2.5957,1.11914 187.74406,187.74406 0 0 0 -33.207,-25.533203 3.5905437,3.5905473 0 0 0 0.50977,-1.832031 3.5905437,3.5905473 0 0 0 -3.58984,-3.589844 3.5905437,3.5905473 0 0 0 -3.14258,1.869141 187.74406,187.74406 0 0 0 -38.69137,-16.029297 3.5905437,3.5905473 0 0 0 0.14258,-1.00586 3.5905437,3.5905473 0 0 0 -3.58984,-3.589843 3.5905437,3.5905473 0 0 0 -3.4746,2.708984 187.74406,187.74406 0 0 0 -41.53317,-5.427734 3.5905437,3.5905473 0 0 0 0.006,-0.08789 3.5905437,3.5905473 0 0 0 -3.58984,-3.589844 z"
         transform="translate(-14.370078,50.338581)" />
    </g>
    <g
       id="g5"
       inkscape:label="carrier"
       style="display:inline;stroke-width:0.377953;stroke-dasharray:none"
       transform="translate(-36.271194,288.01495)">
      <path
         id="path293-9-5"
         style="display:inline;fill:none;stroke:#ff0000;stroke-width:0.377953;stroke-linecap:round;stroke-dasharray:none;stroke-opacity:1"
         inkscape:label="innerEdge"
         d="m 634.10836,41.604779 a 32.634411,32.634411 0 0 1 -59.31836,0.01563 113.08662,113.08662 0 0 0 -83.40039,108.855461 113.08662,113.08662 0 0 0 3.98633,28.79102 32.634411,32.634411 0 0 1 35.79687,32.41406 32.634411,32.634411 0 0 1 -6.125,18.9336 113.08662,113.08662 0 0 0 158.72852,-0.27148 32.634411,32.634411 0 0 1 -5.96484,-18.73438 32.634411,32.634411 0 0 1 35.7207,-32.42579 113.08662,113.08662 0 0 0 4.03125,-28.70703 113.08662,113.08662 0 0 0 -83.45508,-108.871086 z" />
      <circle
         style="display:inline;fill:none;stroke:#ff0000;stroke-width:0.377953;stroke-linecap:round;stroke-dasharray:none;stroke-opacity:1"
         id="path6-3"
         cx="604.44604"
         cy="28.130314"
         r="11.527559"
         inkscape:label="topHole" />
      <circle
         style="display:inline;fill:none;stroke:#ff0000;stroke-width:0.377953;stroke-linecap:round;stroke-dasharray:none;stroke-opacity:1"
         id="path6-3-4"
         cx="710.44556"
         cy="211.60921"
         r="11.527559"
         inkscape:label="rightHole" />
      <circle
         style="display:inline;fill:none;stroke:#ff0000;stroke-width:0.377953;stroke-linecap:round;stroke-dasharray:none;stroke-opacity:1"
         id="path6-3-1"
         cx="498.53931"
         cy="211.68022"
         r="11.527559"
         inkscape:label="leftHole" />
      <path
         id="path6-6-7"
         style="display:inline;fill:none;stroke:#000000;stroke-width:0.377953;stroke-linecap:round;stroke-dasharray:none;stroke-opacity:1"
         inkscape:label="outerEdge"
         d="m 615.22389,8.1425449 a 3.5905437,3.5905473 0 0 0 -3.58984,3.5898441 3.5905437,3.5905473 0 0 0 0.0176,0.255859 187.74406,187.74406 0 0 0 -41.4648,5.640625 3.5905437,3.5905473 0 0 0 -3.55469,-3.089843 3.5905437,3.5905473 0 0 0 -3.58984,3.589843 3.5905437,3.5905473 0 0 0 0.14844,1.021485 187.74406,187.74406 0 0 0 -38.50777,16.400391 3.5905437,3.5905473 0 0 0 -3.33203,-2.25586 3.5905437,3.5905473 0 0 0 -3.58984,3.589844 3.5905437,3.5905473 0 0 0 0.67187,2.078125 187.74406,187.74406 0 0 0 -33.11129,25.580078 3.5905437,3.5905473 0 0 0 -2.85351,-1.412109 3.5905437,3.5905473 0 0 0 -3.58984,3.589843 3.5905437,3.5905473 0 0 0 1.41796,2.84961 187.74406,187.74406 0 0 0 -25.582,33.10937 3.5905437,3.5905473 0 0 0 -2.08203,-0.66601 3.5905437,3.5905473 0 0 0 -3.58984,3.58984 3.5905437,3.5905473 0 0 0 2.25781,3.32617 187.74406,187.74406 0 0 0 -16.40233,38.51368 3.5905437,3.5905473 0 0 0 -1.02148,-0.14844 3.5905437,3.5905473 0 0 0 -3.58984,3.58984 3.5905437,3.5905473 0 0 0 3.08984,3.55469 187.74406,187.74406 0 0 0 -5.64062,41.45704 3.5905437,3.5905473 0 0 0 -0.25586,-0.01 3.5905437,3.5905473 0 0 0 -3.58984,3.58985 3.5905437,3.5905473 0 0 0 3.58984,3.58984 3.5905437,3.5905473 0 0 0 0.25586,-0.0176 187.74406,187.74406 0 0 0 5.64062,41.46484 3.5905437,3.5905473 0 0 0 -3.08984,3.55469 3.5905437,3.5905473 0 0 0 3.58984,3.58985 3.5905437,3.5905473 0 0 0 1.02148,-0.14844 187.74406,187.74406 0 0 0 16.40233,38.51172 3.5905437,3.5905473 0 0 0 -2.25781,3.32617 3.5905437,3.5905473 0 0 0 3.58984,3.5918 3.5905437,3.5905473 0 0 0 2.07812,-0.67188 187.74406,187.74406 0 0 0 25.58591,33.11524 3.5905437,3.5905473 0 0 0 -1.41796,2.84765 3.5905437,3.5905473 0 0 0 3.58984,3.5918 3.5905437,3.5905473 0 0 0 2.8496,-1.41992 187.74406,187.74406 0 0 0 33.11716,25.58593 3.5905437,3.5905473 0 0 0 -0.67383,2.08008 3.5905437,3.5905473 0 0 0 3.58984,3.58985 3.5905437,3.5905473 0 0 0 3.32617,-2.25977 187.74406,187.74406 0 0 0 38.51363,16.4043 3.5905437,3.5905473 0 0 0 -0.14844,1.01953 3.5905437,3.5905473 0 0 0 3.58984,3.5918 3.5905437,3.5905473 0 0 0 3.55469,-3.08985 187.74406,187.74406 0 0 0 41.4648,5.64063 3.5905437,3.5905473 0 0 0 -0.0176,0.25586 3.5905437,3.5905473 0 0 0 3.58984,3.58984 3.5905437,3.5905473 0 0 0 3.58984,-3.58984 3.5905437,3.5905473 0 0 0 -0.01,-0.25586 187.74406,187.74406 0 0 0 41.45699,-5.64063 3.5905437,3.5905473 0 0 0 3.55468,3.08985 3.5905437,3.5905473 0 0 0 3.58984,-3.5918 3.5905437,3.5905473 0 0 0 -0.14844,-1.01953 187.74406,187.74406 0 0 0 38.51364,-16.4043 3.5905437,3.5905473 0 0 0 3.32617,2.25977 3.5905437,3.5905473 0 0 0 3.58984,-3.58985 3.5905437,3.5905473 0 0 0 -0.66602,-2.08203 187.74406,187.74406 0 0 0 33.10934,-25.58398 3.5905437,3.5905473 0 0 0 2.84961,1.41992 3.5905437,3.5905473 0 0 0 3.58984,-3.5918 3.5905437,3.5905473 0 0 0 -1.41406,-2.85351 187.74406,187.74406 0 0 0 25.582,-33.10938 3.5905437,3.5905473 0 0 0 2.07813,0.67188 3.5905437,3.5905473 0 0 0 3.58984,-3.5918 3.5905437,3.5905473 0 0 0 -2.25586,-3.33203 187.74406,187.74406 0 0 0 16.40037,-38.50586 3.5905437,3.5905473 0 0 0 1.02149,0.14844 3.5905437,3.5905473 0 0 0 3.58984,-3.58985 3.5905437,3.5905473 0 0 0 -3.08984,-3.55664 187.74406,187.74406 0 0 0 5.64062,-41.46289 3.5905437,3.5905473 0 0 0 0.25586,0.0176 3.5905437,3.5905473 0 0 0 3.58984,-3.58984 3.5905437,3.5905473 0 0 0 -3.58984,-3.58985 3.5905437,3.5905473 0 0 0 -0.0879,0.006 187.74406,187.74406 0 0 0 -5.42578,-41.53517 3.5905437,3.5905473 0 0 0 2.70703,-3.47265 3.5905437,3.5905473 0 0 0 -3.58984,-3.58984 3.5905437,3.5905473 0 0 0 -1.00586,0.14258 187.74406,187.74406 0 0 0 -16.02928,-38.69141 3.5905437,3.5905473 0 0 0 1.86914,-3.14258 3.5905437,3.5905473 0 0 0 -3.58984,-3.58984 3.5905437,3.5905473 0 0 0 -1.83203,0.50976 187.74406,187.74406 0 0 0 -25.53318,-33.207026 3.5905437,3.5905473 0 0 0 1.11914,-2.595704 3.5905437,3.5905473 0 0 0 -3.58984,-3.589843 3.5905437,3.5905473 0 0 0 -2.5957,1.11914 187.74406,187.74406 0 0 0 -33.207,-25.533203 3.5905437,3.5905473 0 0 0 0.50977,-1.832031 3.5905437,3.5905473 0 0 0 -3.58984,-3.589844 3.5905437,3.5905473 0 0 0 -3.14258,1.869141 187.74406,187.74406 0 0 0 -38.69137,-16.029297 3.5905437,3.5905473 0 0 0 0.14258,-1.00586 3.5905437,3.5905473 0 0 0 -3.58984,-3.589843 3.5905437,3.5905473 0 0 0 -3.4746,2.708984 187.74406,187.74406 0 0 0 -41.53317,-5.427734 3.5905437,3.5905473 0 0 0 0.006,-0.08789 3.5905437,3.5905473 0 0 0 -3.58984,-3.5898441 z"
         transform="translate(-10.748016,-49.000007)" />
    </g>
  </g>
</svg>
