<?xml version="1.0" encoding="UTF-8" standalone="no"?>
<svg
   viewBox="0 0 793.70077 1122.5197"
   width="210mm"
   height="297mm"
   version="1.1"
   id="svg777"
   sodipodi:docname="planetary-gears.svg"
   inkscape:version="1.3.2 (1:1.3.2+202311252150+091e20ef0f)"
   xmlns:inkscape="http://www.inkscape.org/namespaces/inkscape"
   xmlns:sodipodi="http://sodipodi.sourceforge.net/DTD/sodipodi-0.dtd"
   xmlns="http://www.w3.org/2000/svg"
   xmlns:svg="http://www.w3.org/2000/svg">
  <sodipodi:namedview
     id="namedview777"
     pagecolor="#ffffff"
     bordercolor="#000000"
     borderopacity="0.25"
     inkscape:showpageshadow="2"
     inkscape:pageopacity="0.0"
     inkscape:pagecheckerboard="0"
     inkscape:deskcolor="#d1d1d1"
     showgrid="false"
     inkscape:zoom="1.4574355"
     inkscape:cx="205.84101"
     inkscape:cy="337.57926"
     inkscape:window-width="3440"
     inkscape:window-height="1363"
     inkscape:window-x="0"
     inkscape:window-y="40"
     inkscape:window-maximized="1"
     inkscape:current-layer="g777"
     inkscape:document-units="mm" />
  <desc
     id="desc1">voq288eo.dxf - scale = 1.000000, origin = (0.000000, 0.000000), method = auto</desc>
  <defs
     id="defs4">
    <inkscape:path-effect
       effect="skeletal"
       id="path-effect1"
       is_visible="true"
       lpeversion="1"
       pattern="M 0,0 H 1"
       copytype="single_stretched"
       prop_scale="1"
       scale_y_rel="false"
       spacing="0"
       normal_offset="0"
       tang_offset="0"
       prop_units="false"
       vertical_pattern="false"
       hide_knot="false"
       fuse_tolerance="0" />
    <marker
       id="DistanceX"
       orient="auto"
       refX="0"
       refY="0"
       style="overflow:visible">
      <path
         d="M 3,-3 -3,3 M 0,-5 V 5"
         style="stroke:#000000;stroke-width:0.5"
         id="path1" />
    </marker>
    <pattern
       id="Hatch"
       patternUnits="userSpaceOnUse"
       width="8"
       height="8"
       x="0"
       y="0">
      <path
         d="M8 4 l-4,4"
         stroke="#000000"
         stroke-width="0.25"
         linecap="square"
         id="path2" />
      <path
         d="M6 2 l-4,4"
         stroke="#000000"
         stroke-width="0.25"
         linecap="square"
         id="path3" />
      <path
         d="M4 0 l-4,4"
         stroke="#000000"
         stroke-width="0.25"
         linecap="square"
         id="path4" />
    </pattern>
    <symbol
       id="*Model_Space" />
    <symbol
       id="*Paper_Space" />
    <symbol
       id="*Paper_Space0" />
  </defs>
  <g
     inkscape:groupmode="layer"
     inkscape:label="all"
     id="g777"
     style="display:inline;stroke-width:0.377953;stroke-dasharray:none">
    <g
       id="g1"
       inkscape:label="sun"
       transform="translate(26.914136,81.840182)"
       style="stroke-width:0.377953;stroke-dasharray:none">
      <circle
         style="display:inline;fill:none;stroke:#000000;stroke-width:0.377953;stroke-linecap:round;stroke-dasharray:none;stroke-opacity:1"
         id="path6-3-9"
         cx="199.45337"
         cy="199.42902"
         r="18.708643"
         inkscape:label="hole" />
      <path
         id="path776"
         style="fill:none;stroke:#000000;stroke-width:0.377953;stroke-linecap:round;stroke-dasharray:none"
         d="m 272.92427,185.94951 0.9846,7.48377 m 0.8608,-7.82187 -1.8454,0.3381 m 6.4502,-2.4181 -4.6048,2.08 m 10.5504,-6.6752 -5.9456,4.5952 m 4.688,-9.2885 1.2576,4.6933 m -8.704,-5.7003 7.4464,1.007 m -12.4747,-0.5056 5.0283,-0.5014 m -6.7958,1.1307 1.7675,-0.6293 m -4.656,-6.3435 2.8885,6.9728 m -1.1936,-7.7781 -1.6949,0.8053 m 5.6053,-4.0053 -3.9104,3.2 m 8.463,-9.1776 -4.5526,5.9776 m 2.1238,-10.1856 2.4288,4.208 m -9.8816,-3.2534 7.4528,-0.9546 m -12.1803,2.7402 4.7275,-1.7856 m -6.272,2.8512 1.5445,-1.0656 m -6.1397,-4.9226 4.5952,5.9882 m -3.1659,-7.2042 -1.4293,1.216 m 4.3776,-5.3195 -2.9483,4.1035 m 5.7995,-11.056 -2.8512,6.9525 m -0.5846,-10.3883 3.4358,3.4358 m -10.3883,-0.5846 6.9525,-2.8512 m -11.056,5.7995 4.1035,-2.9483 m -5.3195,4.3776 1.216,-1.4293 m -7.2042,-3.1659 5.9882,4.5952 m -4.9226,-6.1397 -1.0656,1.5445 m 2.8512,-6.272 -1.7856,4.7275 m 2.7402,-12.1803 -0.9546,7.4528 m -3.2534,-9.8816 4.208,2.4288 m -10.1856,2.1238 5.9776,-4.5526 m -9.1776,8.463 3.2,-3.9104 m -4.0053,5.6053 0.8053,-1.6949 m -7.7781,-1.1936 6.9728,2.8885 m -6.3435,-4.656 -0.6293,1.7675 m 1.1307,-6.7958 -0.5014,5.0283 m -0.5056,-12.4747 1.007,7.4464 m -5.7003,-8.704 4.6933,1.2576 m -9.2885,4.688 4.5952,-5.9456 m -6.6752,10.5504 2.08,-4.6048 m -2.4181,6.4502 0.3381,-1.8454 m -7.82187,0.8608 7.48377,0.9846 m -7.33337,-2.8555 -0.1504,1.8709 m -0.66666,-6.8576 0.81706,4.9867 m -3.71733,-11.9179 2.90027,6.9312 m -7.75787,-6.9312 h 4.8576 m -7.75787,6.9312 2.90027,-6.9312 m -3.71733,11.9179 0.81706,-4.9867 m -0.66666,6.8576 -0.1504,-1.8709 m -7.33337,2.8555 7.48377,-0.9846 m -7.82187,-0.8608 0.3381,1.8454 m -2.4181,-6.4502 2.08,4.6048 m -6.6752,-10.5504 4.5952,5.9456 m -9.2885,-4.688 4.6933,-1.2576 m -5.7003,8.704 1.007,-7.4464 m -0.5056,12.4747 -0.5014,-5.0283 m 1.1307,6.7958 -0.6293,-1.7675 m -6.3435,4.656 6.9728,-2.8885 m -7.7781,1.1936 0.8053,1.6949 m -4.0053,-5.6053 3.2,3.9104 m -9.1776,-8.463 5.9776,4.5526 m -10.1856,-2.1238 4.208,-2.4288 m -3.2534,9.8816 -0.9546,-7.4528 m 2.7402,12.1803 -1.7856,-4.7275 m 2.8512,6.272 -1.0656,-1.5445 m -4.9226,6.1397 5.9882,-4.5952 m -7.2042,3.1659 1.216,1.4293 m -5.3195,-4.3776 4.1035,2.9483 m -11.056,-5.7995 6.9525,2.8512 m -10.3883,0.5846 3.4358,-3.4358 m -0.5846,10.3883 -2.8512,-6.9525 m 5.7995,11.056 -2.9483,-4.1035 m 4.3776,5.3195 -1.4293,-1.216 m -3.1659,7.2042 4.5952,-5.9882 m -6.1397,4.9226 1.5445,1.0656 m -6.272,-2.8512 4.7275,1.7856 m -12.1803,-2.7402 7.4528,0.9546 m -9.8816,3.2534 2.4288,-4.208 m 2.1238,10.1856 -4.5526,-5.9776 m 8.463,9.1776 -3.9104,-3.2 m 5.6053,4.0053 -1.6949,-0.8053 m -1.1936,7.7781 2.8885,-6.9728 m -4.656,6.3435 1.7675,0.6293 m -6.7958,-1.1307 5.0283,0.5014 m -12.4747,0.5056 7.4464,-1.007 m -8.704,5.7003 1.2576,-4.6933 m 4.688,9.2885 -5.9456,-4.5952 m 10.5504,6.6752 -4.6048,-2.08 m 6.4502,2.4181 -1.8454,-0.3381 m 0.8608,7.82187 0.9846,-7.48377 m -2.8555,7.33337 1.8709,0.1504 m -6.8576,0.66666 4.9867,-0.81706 m -11.9179,3.71733 6.9312,-2.90027 m -6.9312,7.75787 v -4.8576 m 6.9312,7.75787 -6.9312,-2.90027 m 11.9179,3.71733 -4.9867,-0.81706 m 6.8576,0.66666 -1.8709,0.1504 m 2.8555,7.33337 -0.9846,-7.48377 m -0.8608,7.82187 1.8454,-0.3381 m -6.4502,2.4181 4.6048,-2.08 m -10.5504,6.6752 5.9456,-4.5952 m -4.688,9.2885 -1.2576,-4.6933 m 8.704,5.7003 -7.4464,-1.007 m 12.4747,0.5056 -5.0283,0.5014 m 6.7958,-1.1307 -1.7675,0.6293 m 4.656,6.3435 -2.8885,-6.9728 m 1.1936,7.7781 1.6949,-0.8053 m -5.6053,4.0053 3.9104,-3.2 m -8.463,9.1776 4.5526,-5.9776 m -2.1238,10.1856 -2.4288,-4.208 m 9.8816,3.2534 -7.4528,0.9546 m 12.1803,-2.7402 -4.7275,1.7856 m 6.272,-2.8512 -1.5445,1.0656 m 6.1397,4.9226 -4.5952,-5.9882 m 3.1659,7.2042 1.4293,-1.216 m -4.3776,5.3195 2.9483,-4.1035 m -5.7995,11.056 2.8512,-6.9525 m 0.5846,10.3883 -3.4358,-3.4358 m 10.3883,0.5846 -6.9525,2.8512 m 11.056,-5.7995 -4.1035,2.9483 m 5.3195,-4.3776 -1.216,1.4293 m 7.2042,3.1659 -5.9882,-4.5952 m 4.9226,6.1397 1.0656,-1.5445 m -2.8512,6.272 1.7856,-4.7275 m -2.7402,12.1803 0.9546,-7.4528 m 3.2534,9.8816 -4.208,-2.4288 m 10.1856,-2.1238 -5.9776,4.5526 m 9.1776,-8.463 -3.2,3.9104 m 4.0053,-5.6053 -0.8053,1.6949 m 7.7781,1.1936 -6.9728,-2.8885 m 6.3435,4.656 0.6293,-1.7675 m -1.1307,6.7958 0.5014,-5.0283 m 0.5056,12.4747 -1.007,-7.4464 m 5.7003,8.704 -4.6933,-1.2576 m 9.2885,-4.688 -4.5952,5.9456 m 6.6752,-10.5504 -2.08,4.6048 m 2.4181,-6.4502 -0.3381,1.8454 m 7.82187,-0.8608 -7.48377,-0.9846 m 7.33337,2.8555 0.1504,-1.8709 m 0.66666,6.8576 -0.81706,-4.9867 m 3.71733,11.9179 -2.90027,-6.9312 m 7.75787,6.9312 h -4.8576 m 7.75787,-6.9312 -2.90027,6.9312 m 3.71733,-11.9179 -0.81706,4.9867 m 0.66666,-6.8576 0.1504,1.8709 m 7.33337,-2.8555 -7.48377,0.9846 m 7.82187,0.8608 -0.3381,-1.8454 m 2.4181,6.4502 -2.08,-4.6048 m 6.6752,10.5504 -4.5952,-5.9456 m 9.2885,4.688 -4.6933,1.2576 m 5.7003,-8.704 -1.007,7.4464 m 0.5056,-12.4747 0.5014,5.0283 m -1.1307,-6.7958 0.6293,1.7675 m 6.3435,-4.656 -6.9728,2.8885 m 7.7781,-1.1936 -0.8053,-1.6949 m 4.0053,5.6053 -3.2,-3.9104 m 9.1776,8.463 -5.9776,-4.5526 m 10.1856,2.1238 -4.208,2.4288 m 3.2534,-9.8816 0.9546,7.4528 m -2.7402,-12.1803 1.7856,4.7275 m -2.8512,-6.272 1.0656,1.5445 m 4.9226,-6.1397 -5.9882,4.5952 m 7.2042,-3.1659 -1.216,-1.4293 m 5.3195,4.3776 -4.1035,-2.9483 m 11.056,5.7995 -6.9525,-2.8512 m 10.3883,-0.5846 -3.4358,3.4358 m 0.5846,-10.3883 2.8512,6.9525 m -5.7995,-11.056 2.9483,4.1035 m -4.3776,-5.3195 1.4293,1.216 m 3.1659,-7.2042 -4.5952,5.9882 m 6.1397,-4.9226 -1.5445,-1.0656 m 6.272,2.8512 -4.7275,-1.7856 m 12.1803,2.7402 -7.4528,-0.9546 m 9.8816,-3.2534 -2.4288,4.208 m -2.1238,-10.1856 4.5526,5.9776 m -8.463,-9.1776 3.9104,3.2 m -5.6053,-4.0053 1.6949,0.8053 m 1.1936,-7.7781 -2.8885,6.9728 m 4.656,-6.3435 -1.7675,-0.6293 m 6.7958,1.1307 -5.0283,-0.5014 m 12.4747,-0.5056 -7.4464,1.007 m 8.704,-5.7003 -1.2576,4.6933 m -4.688,-9.2885 5.9456,4.5952 m -10.5504,-6.6752 4.6048,2.08 m -6.4502,-2.4181 1.8454,0.3381 m -0.8608,-7.82187 -0.9846,7.48377 m 2.8555,-7.33337 -1.8709,-0.1504 m 6.8576,-0.66666 -4.9867,0.81706 m 11.9179,-3.71733 -6.9312,2.90027 m 6.9312,-7.75787 v 4.8576 m -6.9312,-7.75787 6.9312,2.90027 m -11.9179,-3.71733 4.9867,0.81706 m -6.8576,-0.66666 1.8709,-0.1504"
         inkscape:label="teeth" />
    </g>
    <g
       id="g2"
       inkscape:label="basePlate"
       transform="translate(-6.1146816,594.54757)"
       style="display:inline;stroke-width:0.377953;stroke-dasharray:none">
      <path
         id="path6-6-7-3"
         style="display:inline;fill:none;stroke:#000000;stroke-width:0.377953;stroke-linecap:round;stroke-dasharray:none;stroke-opacity:1"
         inkscape:label="outerEdge"
         d="m 357.52274,-125.81083 a 3.5905437,3.5905473 0 0 0 -3.58984,3.58985 3.5905437,3.5905473 0 0 0 0.0176,0.25586 187.74406,187.74406 0 0 0 -41.4648,5.64062 3.5905437,3.5905473 0 0 0 -3.55469,-3.08984 3.5905437,3.5905473 0 0 0 -3.58984,3.58984 3.5905437,3.5905473 0 0 0 0.14844,1.02149 187.74406,187.74406 0 0 0 -38.50777,16.400389 3.5905437,3.5905473 0 0 0 -3.33203,-2.255859 3.5905437,3.5905473 0 0 0 -3.58984,3.589843 3.5905437,3.5905473 0 0 0 0.67187,2.078125 187.74406,187.74406 0 0 0 -33.11129,25.580078 3.5905437,3.5905473 0 0 0 -2.85351,-1.412109 3.5905437,3.5905473 0 0 0 -3.58984,3.589843 3.5905437,3.5905473 0 0 0 1.41796,2.84961 187.74406,187.74406 0 0 0 -25.582,33.10937 3.5905437,3.5905473 0 0 0 -2.08203,-0.66601 3.5905437,3.5905473 0 0 0 -3.58984,3.58984 3.5905437,3.5905473 0 0 0 2.25781,3.32617 187.74406,187.74406 0 0 0 -16.40233,38.51368 3.5905437,3.5905473 0 0 0 -1.02148,-0.14844 3.5905437,3.5905473 0 0 0 -3.58984,3.58984 3.5905437,3.5905473 0 0 0 3.08984,3.55469 187.74406,187.74406 0 0 0 -5.64062,41.45704 3.5905437,3.5905473 0 0 0 -0.25586,-0.01 3.5905437,3.5905473 0 0 0 -3.58984,3.58985 3.5905437,3.5905473 0 0 0 3.58984,3.58984 3.5905437,3.5905473 0 0 0 0.25586,-0.0176 187.74406,187.74406 0 0 0 5.64062,41.46484 3.5905437,3.5905473 0 0 0 -3.08984,3.55469 3.5905437,3.5905473 0 0 0 3.58984,3.58985 3.5905437,3.5905473 0 0 0 1.02148,-0.14844 187.74406,187.74406 0 0 0 16.40233,38.51172 3.5905437,3.5905473 0 0 0 -2.25781,3.32617 3.5905437,3.5905473 0 0 0 3.58984,3.5918 3.5905437,3.5905473 0 0 0 2.07812,-0.67188 187.74406,187.74406 0 0 0 25.58591,33.11524 3.5905437,3.5905473 0 0 0 -1.41796,2.84765 3.5905437,3.5905473 0 0 0 3.58984,3.5918 3.5905437,3.5905473 0 0 0 2.8496,-1.41992 187.74406,187.74406 0 0 0 33.11716,25.58593 3.5905437,3.5905473 0 0 0 -0.67383,2.08008 3.5905437,3.5905473 0 0 0 3.58984,3.58985 3.5905437,3.5905473 0 0 0 3.32617,-2.25977 187.74406,187.74406 0 0 0 38.51363,16.4043 3.5905437,3.5905473 0 0 0 -0.14844,1.01953 3.5905437,3.5905473 0 0 0 3.58984,3.5918 3.5905437,3.5905473 0 0 0 3.55469,-3.08985 187.74406,187.74406 0 0 0 41.4648,5.64063 3.5905437,3.5905473 0 0 0 -0.0176,0.25586 3.5905437,3.5905473 0 0 0 3.58984,3.58984 3.5905437,3.5905473 0 0 0 3.58984,-3.58984 3.5905437,3.5905473 0 0 0 -0.01,-0.25586 187.74406,187.74406 0 0 0 41.45699,-5.64063 3.5905437,3.5905473 0 0 0 3.55468,3.08985 3.5905437,3.5905473 0 0 0 3.58984,-3.5918 3.5905437,3.5905473 0 0 0 -0.14844,-1.01953 187.74406,187.74406 0 0 0 38.51364,-16.4043 3.5905437,3.5905473 0 0 0 3.32617,2.25977 3.5905437,3.5905473 0 0 0 3.58984,-3.58985 3.5905437,3.5905473 0 0 0 -0.66602,-2.08203 187.74406,187.74406 0 0 0 33.10934,-25.58398 3.5905437,3.5905473 0 0 0 2.84961,1.41992 3.5905437,3.5905473 0 0 0 3.58984,-3.5918 3.5905437,3.5905473 0 0 0 -1.41406,-2.85351 187.74406,187.74406 0 0 0 25.582,-33.10938 3.5905437,3.5905473 0 0 0 2.07813,0.67188 3.5905437,3.5905473 0 0 0 3.58984,-3.5918 3.5905437,3.5905473 0 0 0 -2.25586,-3.33203 187.74406,187.74406 0 0 0 16.40037,-38.50586 3.5905437,3.5905473 0 0 0 1.02149,0.14844 3.5905437,3.5905473 0 0 0 3.58984,-3.58985 3.5905437,3.5905473 0 0 0 -3.08984,-3.55664 187.74406,187.74406 0 0 0 5.64062,-41.46289 3.5905437,3.5905473 0 0 0 0.25586,0.0176 3.5905437,3.5905473 0 0 0 3.58984,-3.58984 3.5905437,3.5905473 0 0 0 -3.58984,-3.58985 3.5905437,3.5905473 0 0 0 -0.0879,0.006 187.74406,187.74406 0 0 0 -5.42578,-41.53517 3.5905437,3.5905473 0 0 0 2.70703,-3.47265 3.5905437,3.5905473 0 0 0 -3.58984,-3.58984 3.5905437,3.5905473 0 0 0 -1.00586,0.14258 187.74406,187.74406 0 0 0 -16.02928,-38.69141 3.5905437,3.5905473 0 0 0 1.86914,-3.14258 3.5905437,3.5905473 0 0 0 -3.58984,-3.58984 3.5905437,3.5905473 0 0 0 -1.83203,0.50976 187.74406,187.74406 0 0 0 -25.53318,-33.207026 3.5905437,3.5905473 0 0 0 1.11914,-2.595704 3.5905437,3.5905473 0 0 0 -3.58984,-3.589843 3.5905437,3.5905473 0 0 0 -2.5957,1.11914 187.74406,187.74406 0 0 0 -33.207,-25.533203 3.5905437,3.5905473 0 0 0 0.50977,-1.832031 3.5905437,3.5905473 0 0 0 -3.58984,-3.589843 3.5905437,3.5905473 0 0 0 -3.14258,1.86914 187.74406,187.74406 0 0 0 -38.69137,-16.0293 3.5905437,3.5905473 0 0 0 0.14258,-1.00586 3.5905437,3.5905473 0 0 0 -3.58984,-3.58984 3.5905437,3.5905473 0 0 0 -3.4746,2.70898 187.74406,187.74406 0 0 0 -41.53317,-5.42773 3.5905437,3.5905473 0 0 0 0.006,-0.0879 3.5905437,3.5905473 0 0 0 -3.58984,-3.58984 z"
         transform="translate(-123.9798,-15.004262)" />
    </g>
    <g
       inkscape:groupmode="layer"
       inkscape:label="planets"
       id="g584"
       style="display:inline;stroke-width:0.377953;stroke-dasharray:none"
       transform="translate(26.251932,26.25201)">
      <g
         id="g779"
         inkscape:label="leftPlanet"
         style="display:inline;stroke-width:0.377953;stroke-dasharray:none"
         transform="translate(13.496381,-114.10553)">
        <path
           id="path485"
           style="fill:none;stroke:#000000;stroke-width:0.377953;stroke-linecap:round;stroke-dasharray:none"
           d="m 62.367371,247.22011 3.93,-6.8063 m -7.908,5.0881 3.978,1.7182 m -6.47,-2.1338 2.492,0.4156 m -10.174,0.8508 7.682,-1.2664 m -8.773,5.3379 1.091,-4.0715 m 4.929,9.008 -6.02,-4.9365 m 8.386,5.8242 -2.366,-0.8877 m 6.67,1.3886 -4.304,-0.5009 m 4.304,8.3601 v -7.8592 m -4.304,8.36 4.304,-0.5008 m -6.67,1.3886 2.366,-0.8878 m -8.386,5.8243 6.02,-4.9365 m -4.929,9.008 -1.091,-4.0715 m 8.773,5.3378 -7.682,-1.2663 m 10.174,0.8508 -2.492,0.4155 m 6.47,-2.1337 -3.978,1.7182 m 7.908,5.0881 -3.93,-6.8063 m 0.453,9.3934 3.477,-2.5871 m -5.082,4.5376 1.605,-1.9505 m -4.351,9.2365 2.746,-7.286 m 0.235,10.2668 -2.981,-2.9808 m 10.267,0.2353 -7.286,2.7455 m 9.237,-4.3505 -1.951,1.605 m 4.538,-5.0821 -2.587,3.4771 m 9.393,0.4525 -6.806,-3.9296 m 5.088,7.9075 1.718,-3.9779 m -2.134,6.4707 0.416,-2.4928 m 0.851,10.1747 -1.267,-7.6819 m 5.338,8.7729 -4.071,-1.091 m 9.008,-4.929 -4.937,6.02 m 5.824,-8.386 -0.887,2.366 m 1.388,-6.6697 -0.501,4.3037 m 8.361,-4.3037 h -7.86 m 8.36,4.3037 -0.5,-4.3037 m 1.388,6.6697 -0.888,-2.366 m 5.824699,8.386 -4.936699,-6.02 m 9.008099,4.929 -4.0714,1.091 m 5.3378,-8.7729 -1.2664,7.6819 m 0.8508,-10.1747 0.4156,2.4928 m -2.1338,-6.4707 1.7182,3.9779 m 5.0881,-7.9075 -6.8063,3.9296 m 9.3934,-0.4525 -2.5871,-3.4771 m 4.5376,5.0821 -1.9505,-1.605 m 9.2365,4.3505 -7.286,-2.7455 m 10.2668,-0.2353 -2.9808,2.9808 m 0.2353,-10.2668 2.7455,7.286 m -4.3505,-9.2365 1.605,1.9505 m -5.0821,-4.5376 3.4771,2.5871 m 0.4525,-9.3934 -3.9296,6.8063 m 7.9075,-5.0881 -3.9779,-1.7182 m 6.4707,2.1337 -2.4928,-0.4155 m 10.1748,-0.8508 -7.682,1.2663 m 8.7727,-5.3378 -1.0907,4.0715 m -4.929,-9.008 6.0197,4.9365 m -8.3857,-5.8243 2.366,0.8878 m -6.6698,-1.3886 4.3038,0.5008 m -4.3038,-8.36 v 7.8592 m 4.3038,-8.3601 -4.3038,0.5009 m 6.6698,-1.3886 -2.366,0.8877 m 8.3857,-5.8242 -6.0197,4.9365 m 4.929,-9.008 1.0907,4.0715 m -8.7727,-5.3379 7.682,1.2664 m -10.1748,-0.8508 2.4928,-0.4156 m -6.4707,2.1338 3.9779,-1.7182 m -7.9075,-5.0881 3.9296,6.8063 m -0.4525,-9.3934 -3.4771,2.5871 m 5.0821,-4.5376 -1.605,1.9505 m 4.3505,-9.2365 -2.7455,7.286 m -0.2353,-10.2668 2.9808,2.9808 m -10.2668,-0.2353 7.286,-2.7455 m -9.2365,4.3505 1.9505,-1.605 m -4.5376,5.0821 2.5871,-3.4771 m -9.3934,-0.4525 6.8063,3.9296 m -5.0881,-7.9075 -1.7182,3.9779 m 2.1338,-6.4707 -0.4156,2.4928 m -0.8508,-10.1748 1.2664,7.682 m -5.3378,-8.7727 4.0714,1.0907 m -9.008099,4.929 4.936699,-6.0197 m -5.824699,8.3857 0.888,-2.366 m -1.388,6.6698 0.5,-4.3038 m -8.36,4.3038 h 7.86 m -8.361,-4.3038 0.501,4.3038 m -1.388,-6.6698 0.887,2.366 m -5.824,-8.3857 4.937,6.0197 m -9.008,-4.929 4.071,-1.0907 m -5.338,8.7727 1.267,-7.682 m -0.851,10.1748 -0.416,-2.4928 m 2.134,6.4707 -1.718,-3.9779 m -5.088,7.9075 6.806,-3.9296 m -9.393,0.4525 2.587,3.4771 m -4.538,-5.0821 1.951,1.605 m -9.237,-4.3505 7.286,2.7455 m -10.267,0.2353 2.981,-2.9808 m -0.235,10.2668 -2.746,-7.286 m 4.351,9.2365 -1.605,-1.9505 m 5.082,4.5376 -3.477,-2.5871"
           inkscape:label="teeth" />
        <circle
           style="display:inline;fill:none;stroke:#000000;stroke-width:0.377953;stroke-linecap:round;stroke-dasharray:none;stroke-opacity:1"
           id="path6-3-0"
           cx="121.40575"
           cy="96.236115"
           r="9.2598429"
           inkscape:label="hole"
           transform="translate(-27.866459,164.44411)" />
      </g>
      <g
         id="g778"
         inkscape:label="rightPlanet"
         style="display:inline;stroke-width:0.377953;stroke-dasharray:none"
         transform="translate(-16.114413,-109.11383)">
        <path
           id="path581"
           style="fill:none;stroke:#000000;stroke-width:0.377953;stroke-linecap:round;stroke-dasharray:none"
           d="m 309.37837,294.34391 h -7.86 m 8.361,4.3041 -0.501,-4.3041 m 1.387,6.6711 -0.886,-2.367 m 5.824,8.386 -4.938,-6.019 m 9.009,4.928 -4.071,1.091 m 5.336,-8.7724 -1.265,7.6814 m 0.851,-10.1744 0.414,2.493 m -2.132,-6.4705 1.718,3.9775 m 5.088,-7.9071 -6.806,3.9296 m 9.392,-0.4529 -2.586,-3.4767 m 4.538,5.0819 -1.952,-1.6052 m 9.237,4.3501 -7.285,-2.7449 m 10.266,-0.2354 -2.981,2.9803 m 0.236,-10.2663 2.745,7.286 m -4.351,-9.237 1.606,1.951 m -5.083,-4.5369 3.477,2.5859 m 0.453,-9.3922 -3.93,6.8063 m 7.909,-5.0886 -3.979,-1.7177 m 6.47,2.1325 -2.491,-0.4148 m 10.174,-0.8506 -7.683,1.2654 m 8.774,-5.3372 -1.091,4.0718 m -4.93,-9.009 6.021,4.9372 m -8.386,-5.8238 2.365,0.8866 m -6.67,-1.3885 4.305,0.5019 m -4.305,-8.3612 v 7.8593 m 4.304,-8.3603 -4.304,0.501 m 6.671,-1.3875 -2.367,0.8865 m 8.387,-5.8242 -6.02,4.9377 m 4.928,-9.009 1.092,4.0713 m -8.773,-5.3366 7.681,1.2653 m -10.174,-0.8511 2.493,-0.4142 m -6.471,2.1324 3.978,-1.7182 m -7.907,-5.0882 3.929,6.8064 m -0.452,-9.392 -3.477,2.5856 m 5.082,-4.5374 -1.605,1.9518 m 4.35,-9.2368 -2.745,7.285 m -0.236,-10.2656 2.981,2.9806 m -10.267,-0.2364 7.286,-2.7442 m -9.237,4.3506 1.951,-1.6064 m -4.536,5.0833 2.585,-3.4769 m -9.392,-0.4527 6.807,3.9296 m -5.089,-7.9087 -1.718,3.9791 m 2.133,-6.4707 -0.415,2.4916 m -0.851,-10.1743 1.266,7.6827 m -5.338,-8.7737 4.072,1.091 m -9.009,4.9296 4.937,-6.0206 m -5.823,8.3859 0.886,-2.3653 m -1.388,6.6701 0.502,-4.3048 m -8.362,4.3048 h 7.86 m -8.361,-4.3041 0.501,4.3041 m -1.387,-6.6707 0.886,2.3666 m -5.8237,-8.3862 4.9377,6.0196 m -9.009,-4.9284 4.0713,-1.0912 m -5.3367,8.7726 1.2654,-7.6814 m -0.8511,10.1744 -0.4143,-2.493 m 2.1324,6.4705 -1.7181,-3.9775 m -5.0882,7.9072 6.8063,-3.9297 m -9.3919,0.4529 2.5856,3.4768 m -4.5374,-5.082 1.9518,1.6052 m -9.2368,-4.3501 7.285,2.7449 m -10.2657,0.2354 2.9807,-2.9803 m -0.2364,10.2663 -2.7443,-7.286 m 4.3506,9.237 -1.6063,-1.951 m 5.0832,4.5369 -3.4769,-2.5859 m -0.4527,9.3922 3.9296,-6.8063 m -7.9086,5.0886 3.979,1.7177 m -6.4707,-2.1325 2.4917,0.4148 m -10.1743,0.8506 7.6826,-1.2654 m -8.7736,5.3372 1.091,-4.0718 m 4.9296,9.009 -6.0206,-4.9372 m 8.3859,5.8238 -2.3653,-0.8866 m 6.67,1.3886 -4.3047,-0.502 m 4.3047,8.3612 v -7.8592 m -4.304,8.3602 4.304,-0.501 m -6.6706,1.3875 2.3666,-0.8865 m -8.3863,5.8242 6.0197,-4.9377 m -4.9285,9.009 -1.0912,-4.0713 m 8.7727,5.3366 -7.6815,-1.2653 m 10.1744,0.8511 -2.4929,0.4142 m 6.4705,-2.1324 -3.9776,1.7182 m 7.9072,5.0882 -3.9296,-6.8064 m 0.4529,9.392 3.4767,-2.5856 m -5.0819,4.5374 1.6052,-1.9518 m -4.3501,9.2368 2.7449,-7.285 m 0.2353,10.2656 -2.9802,-2.9806 m 10.2662,0.2364 -7.286,2.7442 m 9.237,-4.3505 -1.951,1.6063 m 4.5369,-5.0833 -2.5859,3.477 m 9.3922,0.4527 -6.8063,-3.9297 m 5.0886,7.9087 1.7177,-3.979 m -2.1324,6.4707 0.4147,-2.4917 m 0.8507,10.1747 -1.2654,-7.683 m 5.3372,8.774 -4.0718,-1.091 m 9.0091,-4.93 -4.9373,6.021 m 5.8233,-8.3863 -0.886,2.3653 m 1.388,-6.6701 -0.502,4.3048"
           inkscape:label="teeth" />
        <circle
           style="display:inline;fill:none;stroke:#000000;stroke-width:0.377953;stroke-linecap:round;stroke-dasharray:none;stroke-opacity:1"
           id="path6-3-90"
           cx="303.70126"
           cy="101.1568"
           r="9.2598429"
           inkscape:label="hole"
           transform="translate(1.744335,159.45241)" />
      </g>
      <g
         id="g780"
         inkscape:label="topPlanet"
         style="display:inline;stroke-width:0.377953;stroke-dasharray:none"
         transform="translate(1.3725456,20.740319)">
        <path
           id="path389"
           style="fill:none;stroke:#000000;stroke-width:0.377953;stroke-linecap:round;stroke-dasharray:none"
           d="m 226.68337,56.865007 3.9296,6.806 m -0.4527,-9.392 -3.4769,2.586 m 5.0832,-4.537 -1.6063,1.951 m 4.3506,-9.237 -2.7443,7.286 m -0.2364,-10.266 2.9807,2.98 m -10.2657,-0.235 7.285,-2.745 m -9.2368,4.35 1.9518,-1.605 m -4.5374,5.082 2.5856,-3.477 m -9.3919,-0.453 6.8063,3.93 m -5.0882,-7.908 -1.7181,3.978 m 2.1324,-6.471 -0.4143,2.493 m -0.8511,-10.174 1.2654,7.681 m -5.3367,-8.772 4.0713,1.091 m -9.009,4.928 4.9377,-6.019 m -5.82418,8.386 0.88648,-2.367 m -1.38744,6.671 0.50096,-4.304 m -8.36023,4.304 h 7.85927 m -8.3612,-4.305 0.50193,4.305 m -1.38857,-6.67 0.88664,2.365 m -5.82376,-8.386 4.93712,6.021 m -9.00902,-4.93 4.0719,-1.091 m -5.3372,8.774 1.2653,-7.683 m -0.8506,10.175 -0.4147,-2.492 m 2.1324,6.471 -1.7177,-3.979 m -5.0886,7.908 6.8063,-3.929 m -9.3922,0.452 2.5859,3.477 m -4.5369,-5.083 1.951,1.606 m -9.237,-4.35 7.286,2.744 m -10.2662,0.236 2.9802,-2.98 m -0.2353,10.265 -2.7449,-7.285 m 4.3501,9.237 -1.6052,-1.952 m 5.0819,4.538 -3.4767,-2.586 m -0.4529,9.392 3.9296,-6.806 m -7.9072,5.088 3.9776,1.718 m -6.4705,-2.132 2.4929,0.414 m -10.1744,0.851 7.6815,-1.265 m -8.7727,5.336 1.0912,-4.071 m 4.9285,9.009 -6.0197,-4.938 m 8.3863,5.825 -2.3666,-0.887 m 6.6706,1.388 -4.304,-0.501 m 4.304,8.36 v -7.859 m -4.3048,8.361 4.3048,-0.502 m -6.67,1.389 2.3652,-0.887 m -8.3859,5.824 6.0207,-4.937 m -4.9296,9.008 -1.0911,-4.071 m 8.7737,5.337 -7.6826,-1.266 m 10.1743,0.851 -2.4917,0.415 m 6.4707,-2.133 -3.979,1.718 m 7.9086,5.089 -3.9296,-6.807 m 0.4527,9.3926 3.4769,-2.5856 m -5.0832,4.536603 1.6063,-1.951003 m -4.3506,9.237003 2.7443,-7.286 m 0.2363,10.2663 -2.9806,-2.9803 m 10.2656,0.2354 -7.285,2.7449 m 9.2369,-4.3501 -1.9519,1.6052 m 4.5375,-5.082 -2.5856,3.4768 m 9.3919,0.4528 -6.8063,-3.9296 m 5.0882,7.9072 1.7181,-3.9776 m -2.1324,6.4706 0.4143,-2.493 m 0.8511,10.1744 -1.2654,-7.6814 m 5.3367,8.7726 -4.0713,-1.0912 m 9.00898,-4.9284 -4.93768,6.0196 m 5.82417,-8.3862 -0.88649,2.3666 m 1.38745,-6.6707 -0.50096,4.3041 m 8.36023,-4.3041 h -7.85927 m 8.36119,4.3048 -0.50192,-4.3048 m 1.38857,6.67 -0.88665,-2.3652 m 5.82378,8.3859 -4.93713,-6.0207 m 9.00903,4.9296 -4.0719,1.0911 m 5.3372,-8.7737 -1.2653,7.6826 m 0.8506,-10.1743 0.4147,2.4917 m -2.1324,-6.4707 1.7177,3.979 m 5.0886,-7.9086 -6.8063,3.9296 m 9.3922,-0.4527 -2.5859,-3.4769 m 4.5369,5.0832 -1.951,-1.6063 m 9.237,4.3506 -7.286,-2.7443 m 10.2662,-0.2363 -2.9802,2.9806 m 0.2353,-10.2656 2.7449,7.285 m -4.3501,-9.236903 1.6052,1.951903 m -5.0819,-4.537103 3.4767,2.5852 m 0.4529,-9.3922 -3.9296,6.807 m 7.9072,-5.089 -3.9776,-1.718 m 6.4705,2.133 -2.4929,-0.415 m 10.1744,-0.851 -7.6815,1.266 m 8.7727,-5.337 -1.0912,4.071 m -4.9285,-9.009 6.0197,4.938 m -8.3863,-5.824 2.3666,0.886 m -6.6706,-1.387 4.304,0.501 m -4.304,-8.36 v 7.859 m 4.3048,-8.361 -4.3048,0.502 m 6.67,-1.389 -2.3652,0.887 m 8.3859,-5.824 -6.0207,4.937 m 4.9296,-9.009 1.0911,4.072 m -8.7737,-5.337 7.6826,1.265 m -10.1743,-0.851 2.4917,-0.414 m -6.4707,2.132 3.979,-1.718"
           inkscape:label="teeth" />
        <circle
           style="display:inline;fill:none;stroke:#000000;stroke-width:0.377953;stroke-linecap:round;stroke-dasharray:none;stroke-opacity:1"
           id="path6-3-8"
           cx="215.18871"
           cy="47.532055"
           r="9.2598429"
           inkscape:label="hole"
           transform="translate(-15.742624,29.598262)" />
      </g>
    </g>
    <g
       inkscape:groupmode="layer"
       inkscape:label="ring"
       id="g293"
       style="display:inline;stroke-width:0.377953;stroke-dasharray:none"
       transform="translate(26.251932,26.25201)">
      <path
         id="path292"
         style="display:inline;fill:none;stroke:#000000;stroke-width:0.377953;stroke-linecap:round;stroke-dasharray:none"
         d="m 228.58437,32.033007 8.0281,1.598 m 13.5786,3.634 7.7508,2.632 m 12.9881,5.376 7.341,3.621 m 12.1753,7.024 6.8056,4.549 m 11.1545,8.553 6.153,5.398 m 9.943,9.937 5.396,6.154 m 8.561,11.149703 4.546,6.8064 m 7.032,12.1713 3.62,7.3417 m 5.383,12.985 2.63,7.7513 m 3.642,13.5765 1.596,8.0284 m 1.839,13.9357 0.535,8.16805 m 0.004,14.05653 -0.536,8.16792 m -1.831,13.9368 -1.598,8.0281 m -3.634,13.5786 -2.632,7.7508 m -5.375,12.9881 -3.621,7.341 m -7.025,12.1753 -4.548,6.8056 m -8.554,11.1542 -5.398,6.154 m -9.936,9.942 -6.155,5.397 m -11.1494,8.56 -6.8064,4.547 m -12.1713,7.032 -7.3417,3.619 m -12.985,5.383 -7.7513,2.631 m -13.5765,3.642 -8.0284,1.596 m -13.9357,1.838 -8.16806,0.535 m -14.05653,0.004 -8.16791,-0.536 m -13.9368,-1.831 -8.0281,-1.597 m -13.5786,-3.635 -7.7508,-2.631 m -12.9881,-5.376 -7.341,-3.621 m -12.1753,-7.025 -6.8056,-4.548 m -11.154499,-8.554 -6.153,-5.398 m -9.943,-9.936 -5.396,-6.155 m -8.56,-11.1491 -4.547,-6.8064 m -7.032,-12.1713 -3.62,-7.3417 m -5.383,-12.985 -2.63,-7.7513 m -3.642,-13.5766 -1.596,-8.0283 m -1.839,-13.9358 -0.535,-8.16797 m -0.004,-14.05653 0.536,-8.1679 m 1.831,-13.9368 1.598,-8.0281 m 3.634,-13.5786 2.632,-7.7508 m 5.375,-12.9881 3.621,-7.341 m 7.025,-12.1753 4.548,-6.8056 m 8.554,-11.153803 5.398,-6.154 m 9.936,-9.942 6.155,-5.397 m 11.149399,-8.56 6.8064,-4.547 m 12.1713,-7.032 7.3417,-3.62 m 12.985,-5.383 7.7513,-2.63 m 13.5766,-3.642 8.0283,-1.596 m 13.9358,-1.839 8.16797,-0.534 m 14.05653,-0.004 8.1679,0.536 m 11.3616,8.413 2.5752,-6.583 m -6.1536,13.029 3.5784,-6.446 m -8.7817,5.763 5.2033,0.683 m -6.9953,-7.835 1.792,7.152 m -2.5799,-14.176 0.7879,7.024 m 31.3432,6.228 3.4124,-6.19 m -7.8016,12.115 4.3892,-5.925 m -9.4588,4.568 5.0696,1.357 m -5.9128,-8.682 0.8432,7.325 m -0.7074,-14.392 -0.1358,7.067 m 30.2621,10.266 4.1912,-5.691 m -9.3161,10.992 5.1249,-5.301 m -9.974,3.294 4.8491,2.007 m -4.729,-9.379 -0.1201,7.372 m 1.1771,-14.361 -1.057,6.989 m 28.6632,14.128 4.8982,-5.096 m -10.6711,9.683 5.7729,-4.587 m -10.3186,1.964 4.5457,2.623 m -3.4644,-9.916 -1.0813,7.293 m 3.0415,-14.084 -1.9602,6.791 m 26.5736,17.748 5.522,-4.413 m -11.8439,8.207 6.3219,-3.794 m -10.4864,0.601 4.1645,3.193 m -2.1405,-10.283 -2.024,7.09 m 4.8539,-13.567 -2.8299,6.477 m 24.0294,21.065 6.051,-3.654 m -12.814,6.59 6.763,-2.936 m -10.475,-0.774 3.712,3.71 m -0.78,-10.475 -2.932,6.765 m 6.583,-12.817 -3.651,6.052 m 21.075,24.022303 6.476,-2.8336 m -13.565,4.8617 7.089,-2.0281 m -10.285,-2.1346 3.196,4.1627 m 0.594,-10.487403 -3.79,6.324703 m 8.2,-11.848703 -4.41,5.524 m 17.759,26.567503 6.79,-1.9641 m -14.082,3.0496 7.292,-1.0855 m -9.918,-3.4587 2.626,4.5442 m 1.957,-10.3197 -4.583,5.7755 m 9.676,-10.6767 -5.093,4.9012 m 14.14,28.6578 6.988,-1.061 m -14.36,1.1853 7.372,-0.1243 m -9.382,-4.7236 2.01,4.8479 m 3.288,-9.9759 -5.298,5.128 m 10.987,-9.3224 -5.689,4.1944 m 10.277,30.2582 7.067,-0.1398 m -14.392,-0.6992 7.325,0.839 m -8.685,-5.9078 1.36,5.0688 m 4.562,-9.4613 -5.922,4.3925 m 12.11,-7.8085 -6.188,3.416 m 6.24,31.3408 7.025,0.7838 m -14.178,-2.5717 7.153,1.7879 m -7.839,-6.9908 0.686,5.2029 m 5.758,-8.785 -6.444,3.5821 m 13.025,-6.1611 -6.581,2.579 m 2.096,31.88725 6.863,1.69403 m -13.721,-4.40034 6.858,2.70631 m -6.859,-7.95431 10e-4,5.248 m 6.855,-7.95822 -6.856,2.71022 m 13.718,-4.40819 -6.862,1.69797 m -2.084,31.88798 6.583,2.5753 m -13.029,-6.1536 6.446,3.5783 m -5.763,-8.7816 -0.683,5.2033 m 7.835,-6.9954 -7.152,1.7921 m 14.177,-2.5799 -7.025,0.7878 m -6.228,31.3432 6.19,3.4125 m -12.114,-7.8016 5.924,4.3891 m -4.567,-9.4587 -1.357,5.0696 m 8.681,-5.9128 -7.324,0.8432 m 14.391,-0.7074 -7.067,-0.1358 m -10.266,30.2621 5.692,4.1912 m -10.993,-9.3161 5.301,5.1249 m -3.294,-9.974 -2.007,4.8491 m 9.379,-4.729 -7.372,-0.1201 m 14.361,1.1771 -6.989,-1.057 m -14.128,28.6632 5.096,4.8982 m -9.682,-10.6712 4.586,5.773 m -1.964,-10.3186 -2.622,4.5456 m 9.916,-3.4643 -7.294,-1.0813 m 14.085,3.0415 -6.791,-1.9602 m -17.749,26.5743 4.413,5.521 m -8.207,-11.8436 3.794,6.3226 m -0.6,-10.4871 -3.194,4.1645 m 10.284,-2.1405 -7.09,-2.024 m 13.567,4.8539 -6.477,-2.8299 m -21.066,24.0301 3.655,6.05 m -6.591,-12.814 2.936,6.764 m 0.774,-10.475 -3.71,3.711 m 10.475,-0.779 -6.765,-2.932 m 12.817,6.583 -6.052,-3.651 m -24.022,21.074 2.8336,6.476 m -4.8617,-13.564 2.0281,7.088 m 2.1345,-10.284 -4.1626,3.196 m 10.4871,0.594 -6.3245,-3.79 m 11.8485,8.2 -5.524,-4.41 m -26.5672,17.759 1.9641,6.79 m -3.0496,-14.083 1.0855,7.293 m 3.4587,-9.918 -4.5442,2.625 m 10.3197,1.958 -5.7755,-4.583 m 10.6767,9.676 -4.9012,-5.093 m -28.6578,14.139 1.061,6.988 m -1.1853,-14.36 0.1243,7.372 m 4.7236,-9.382 -4.8479,2.01 m 9.9759,3.288 -5.128,-5.298 m 9.3224,10.987 -4.1944,-5.689 m -30.2582,10.278 0.1398,7.067 m 0.6992,-14.393 -0.839,7.326 m 5.9078,-8.685 -5.0688,1.359 m 9.4613,4.562 -4.3925,-5.921 m 7.8085,12.11 -3.416,-6.189 m -31.3408,6.241 -0.7838,7.024 m 2.5717,-14.177 -1.7879,7.153 m 6.9908,-7.84 -5.2029,0.687 m 8.785,5.758 -3.5821,-6.445 m 6.1611,13.026 -2.579,-6.581 m -31.88725,2.096 -1.69404,6.862 m 4.40034,-13.721 -2.7063,6.859 m 7.9543,-6.86 -5.248,10e-4 m 7.95823,6.856 -2.71023,-6.857 m 4.40819,13.718 -1.69796,-6.861 m -31.88798,-2.084 -2.5753,6.582 m 6.1536,-13.029 -3.5783,6.447 m 8.7816,-5.763 -5.2033,-0.684 m 6.9954,7.836 -1.7921,-7.152 m 2.5799,14.176 -0.7878,-7.024 m -31.3432,-6.229 -3.4125,6.19 m 7.8016,-12.114 -4.3891,5.924 m 9.4587,-4.567 -5.0696,-1.357 m 5.9128,8.682 -0.8432,-7.325 m 0.7074,14.392 0.1358,-7.067 m -30.2621,-10.267 -4.1912,5.692 m 9.3161,-10.992 -5.1249,5.3 m 9.974,-3.293 -4.8491,-2.007 m 4.729,9.379 0.1201,-7.372 m -1.1771,14.361 1.057,-6.989 m -28.6632,-14.129 -4.8982,5.096 m 10.6712,-9.682 -5.773,4.586 m 10.3186,-1.963 -4.5456,-2.623 m 3.4643,9.916 1.0813,-7.293 m -3.0415,14.084 1.9602,-6.791 m -26.573599,-17.749 -5.522,4.413 m 11.843899,-8.207 -6.321899,3.794 m 10.486399,-0.6 -4.1645,-3.194 m 2.1405,10.284 2.024,-7.09 m -4.8539,13.567 2.8299,-6.477 m -24.029399,-21.066 -6.051,3.655 m 12.814,-6.591 -6.763,2.936 m 10.475,0.774 -3.712,-3.71 m 0.78,10.475 2.932,-6.765 m -6.583,12.817 3.651,-6.052 m -21.075,-24.0217 -6.475,2.8336 m 13.564,-4.8617 -7.089,2.0281 m 10.285,2.1345 -3.196,-4.1626 m -0.594,10.4868 3.79,-6.3242 m -8.2,11.8482 4.41,-5.524 m -17.759,-26.5669 -6.79,1.9641 m 14.082,-3.0496 -7.292,1.0855 m 9.918,3.4586 -2.626,-4.5441 m -1.957,10.3197 4.583,-5.7756 m -9.676,10.6768 5.093,-4.9012 m -14.14,-28.6578 -6.988,1.061 m 14.36,-1.1853 -7.372,0.1243 m 9.382,4.7236 -2.01,-4.8479 m -3.288,9.9758 5.298,-5.1279 m -10.987,9.3224 5.689,-4.1945 m -10.277,-30.2582 -7.067,0.1398 m 14.392,0.6993 -7.325,-0.8391 m 8.685,5.9078 -1.36,-5.0687 m -4.562,9.4613 5.922,-4.3926 m -12.11,7.8086 6.188,-3.416 m -6.24,-31.3408 -7.025,-0.7839 m 14.178,2.5718 -7.153,-1.7879 m 7.839,6.9908 -0.686,-5.2029 m -5.758,8.785 6.444,-3.5821 m -13.025,6.1611 6.581,-2.579 m -2.096,-31.88727 -6.863,-1.69403 m 13.721,4.40034 -6.858,-2.70631 m 6.859,7.95431 -10e-4,-5.248 m -6.855,7.95823 6.856,-2.71023 m -13.718,4.40819 6.862,-1.69796 m 2.084,-31.88807 -6.583,-2.5752 m 13.029,6.1536 -6.446,-3.5784 m 5.763,8.7817 0.683,-5.2033 m -7.835,6.9953 7.152,-1.792 m -14.177,2.5799 7.025,-0.7879 m 6.228,-31.3432 -6.19,-3.4124 m 12.114,7.8016 -5.924,-4.3892 m 4.567,9.4588 1.357,-5.0696 m -8.681,5.9128 7.324,-0.8432 m -14.391,0.7074 7.067,0.1358 m 10.266,-30.2621 -5.692,-4.1912 m 10.993,9.3161 -5.301,-5.1249 m 3.294,9.974 2.007,-4.8491 m -9.379,4.729 7.372,0.1201 m -14.361,-1.1771 6.989,1.057 m 14.128,-28.6632 -5.096,-4.8982 m 9.682,10.6711 -4.586,-5.7729 m 1.964,10.3186 2.622,-4.5457 m -9.916,3.4644 7.294,1.0813 m -14.085,-3.0415 6.791,1.9602 m 17.749,-26.573903 -4.413,-5.521 m 8.207,11.843203 -3.794,-6.322203 m 0.6,10.486703 3.194,-4.1645 m -10.284,2.1405 7.09,2.024 m -13.567,-4.8539 6.477,2.8299 m 21.066,-24.029703 -3.655,-6.05 m 6.591,12.813 -2.936,-6.763 m -0.774,10.475 3.71,-3.712 m -10.475,0.78 6.765,2.932 m -12.817,-6.583 6.052,3.651 m 24.021999,-21.075 -2.8336,-6.475 m 4.8617,13.564 -2.0281,-7.089 m -2.1345,10.285 4.1626,-3.196 m -10.487099,-0.594 6.324499,3.79 m -11.848499,-8.2 5.524,4.41 m 26.567199,-17.759 -1.9641,-6.79 m 3.0496,14.083 -1.0855,-7.293 m -3.4587,9.918 4.5442,-2.625 m -10.3197,-1.958 5.7755,4.583 m -10.6767,-9.676 4.9012,5.093 m 28.6578,-14.139 -1.061,-6.989 m 1.1853,14.361 -0.1243,-7.372 m -4.7236,9.381 4.8479,-2.009 m -9.9758,-3.288 5.1279,5.297 m -9.3224,-10.987 4.1945,5.69 m 30.2582,-10.278 -0.1398,-7.067 m -0.6993,14.392 0.8391,-7.325 m -5.9078,8.685 5.0687,-1.36 m -9.4613,-4.562 4.3926,5.922 m -7.8086,-12.11 3.416,6.188 m 31.3408,-6.24 0.7839,-7.025 m -2.5718,14.178 1.7879,-7.153 m -6.9908,7.839 5.2029,-0.686 m -8.785,-5.758 3.5821,6.444 m -6.1611,-13.025 2.579,6.581 m 31.88726,-2.096 1.69404,-6.862 m -4.40034,13.72 2.7063,-6.858 m -7.9543,6.86 5.248,-0.002 m -7.95823,-6.855 2.71023,6.857 m -4.40819,-13.718 1.69796,6.861"
         inkscape:label="teeth" />
      <path
         id="path6-6"
         style="display:inline;fill:none;stroke:#000000;stroke-width:0.377953;stroke-linecap:round;stroke-dasharray:none;stroke-opacity:1"
         inkscape:label="outerEdge"
         d="m 213.84646,-42.19606 a 3.5905437,3.5905473 0 0 0 -3.58984,3.589844 3.5905437,3.5905473 0 0 0 0.0176,0.255859 187.74406,187.74406 0 0 0 -41.4648,5.640625 3.5905437,3.5905473 0 0 0 -3.55469,-3.089843 3.5905437,3.5905473 0 0 0 -3.58984,3.589843 3.5905437,3.5905473 0 0 0 0.14844,1.021485 187.74406,187.74406 0 0 0 -38.50777,16.400391 3.5905437,3.5905473 0 0 0 -3.33203,-2.25586 3.5905437,3.5905473 0 0 0 -3.58984,3.589844 3.5905437,3.5905473 0 0 0 0.67187,2.078125 187.74406,187.74406 0 0 0 -33.111291,25.580078 3.5905437,3.5905473 0 0 0 -2.853513,-1.412109 3.5905437,3.5905473 0 0 0 -3.58984,3.589843 3.5905437,3.5905473 0 0 0 1.417967,2.84961 187.74406,187.74406 0 0 0 -25.582006,33.109375 3.5905437,3.5905473 0 0 0 -2.082029,-0.666016 3.5905437,3.5905473 0 0 0 -3.58984,3.589844 3.5905437,3.5905473 0 0 0 2.25781,3.326172 187.74406,187.74406 0 0 0 -16.402327,38.513672 3.5905437,3.5905473 0 0 0 -1.021484,-0.148438 3.5905437,3.5905473 0 0 0 -3.58984,3.589846 3.5905437,3.5905473 0 0 0 3.089841,3.55469 187.74406,187.74406 0 0 0 -5.64062,41.45703 3.5905437,3.5905473 0 0 0 -0.255859,-0.01 3.5905437,3.5905473 0 0 0 -3.58984,3.58985 3.5905437,3.5905473 0 0 0 3.58984,3.58984 3.5905437,3.5905473 0 0 0 0.255859,-0.0176 187.74406,187.74406 0 0 0 5.64062,41.46484 3.5905437,3.5905473 0 0 0 -3.089841,3.55469 3.5905437,3.5905473 0 0 0 3.58984,3.58985 3.5905437,3.5905473 0 0 0 1.021484,-0.14844 187.74406,187.74406 0 0 0 16.402327,38.51172 3.5905437,3.5905473 0 0 0 -2.25781,3.32617 3.5905437,3.5905473 0 0 0 3.58984,3.5918 3.5905437,3.5905473 0 0 0 2.078123,-0.67188 187.74406,187.74406 0 0 0 25.585912,33.11524 3.5905437,3.5905473 0 0 0 -1.417967,2.84765 3.5905437,3.5905473 0 0 0 3.58984,3.5918 3.5905437,3.5905473 0 0 0 2.849606,-1.41992 187.74406,187.74406 0 0 0 33.117158,25.58593 3.5905437,3.5905473 0 0 0 -0.67383,2.08008 3.5905437,3.5905473 0 0 0 3.58984,3.58985 3.5905437,3.5905473 0 0 0 3.32617,-2.25977 187.74406,187.74406 0 0 0 38.51363,16.4043 3.5905437,3.5905473 0 0 0 -0.14844,1.01953 3.5905437,3.5905473 0 0 0 3.58984,3.5918 3.5905437,3.5905473 0 0 0 3.55469,-3.08985 187.74406,187.74406 0 0 0 41.4648,5.64063 3.5905437,3.5905473 0 0 0 -0.0176,0.25586 3.5905437,3.5905473 0 0 0 3.58984,3.58984 3.5905437,3.5905473 0 0 0 3.58984,-3.58984 3.5905437,3.5905473 0 0 0 -0.01,-0.25586 187.74406,187.74406 0 0 0 41.45699,-5.64063 3.5905437,3.5905473 0 0 0 3.55468,3.08985 3.5905437,3.5905473 0 0 0 3.58984,-3.5918 3.5905437,3.5905473 0 0 0 -0.14844,-1.01953 187.74406,187.74406 0 0 0 38.51364,-16.4043 3.5905437,3.5905473 0 0 0 3.32617,2.25977 3.5905437,3.5905473 0 0 0 3.58984,-3.58985 3.5905437,3.5905473 0 0 0 -0.66602,-2.08203 187.74406,187.74406 0 0 0 33.10934,-25.58398 3.5905437,3.5905473 0 0 0 2.84961,1.41992 3.5905437,3.5905473 0 0 0 3.58984,-3.5918 3.5905437,3.5905473 0 0 0 -1.41406,-2.85351 187.74406,187.74406 0 0 0 25.582,-33.10938 3.5905437,3.5905473 0 0 0 2.07813,0.67188 3.5905437,3.5905473 0 0 0 3.58984,-3.5918 3.5905437,3.5905473 0 0 0 -2.25586,-3.33203 187.74406,187.74406 0 0 0 16.40037,-38.50586 3.5905437,3.5905473 0 0 0 1.02149,0.14844 3.5905437,3.5905473 0 0 0 3.58984,-3.58985 3.5905437,3.5905473 0 0 0 -3.08984,-3.55664 187.74406,187.74406 0 0 0 5.64062,-41.46289 3.5905437,3.5905473 0 0 0 0.25586,0.0176 3.5905437,3.5905473 0 0 0 3.58984,-3.58984 3.5905437,3.5905473 0 0 0 -3.58984,-3.58985 3.5905437,3.5905473 0 0 0 -0.0879,0.006 187.74406,187.74406 0 0 0 -5.42578,-41.53516 3.5905437,3.5905473 0 0 0 2.70703,-3.47265 3.5905437,3.5905473 0 0 0 -3.58984,-3.589846 3.5905437,3.5905473 0 0 0 -1.00586,0.142579 187.74406,187.74406 0 0 0 -16.02928,-38.691407 3.5905437,3.5905473 0 0 0 1.86914,-3.142578 3.5905437,3.5905473 0 0 0 -3.58984,-3.589844 3.5905437,3.5905473 0 0 0 -1.83203,0.509766 187.74406,187.74406 0 0 0 -25.53318,-33.207031 3.5905437,3.5905473 0 0 0 1.11914,-2.595704 3.5905437,3.5905473 0 0 0 -3.58984,-3.589843 3.5905437,3.5905473 0 0 0 -2.5957,1.11914 187.74406,187.74406 0 0 0 -33.207,-25.533203 3.5905437,3.5905473 0 0 0 0.50977,-1.832031 3.5905437,3.5905473 0 0 0 -3.58984,-3.589844 3.5905437,3.5905473 0 0 0 -3.14258,1.869141 187.74406,187.74406 0 0 0 -38.69137,-16.029297 3.5905437,3.5905473 0 0 0 0.14258,-1.00586 3.5905437,3.5905473 0 0 0 -3.58984,-3.589843 3.5905437,3.5905473 0 0 0 -3.4746,2.708984 187.74406,187.74406 0 0 0 -41.53317,-5.427734 3.5905437,3.5905473 0 0 0 0.006,-0.08789 3.5905437,3.5905473 0 0 0 -3.58984,-3.589844 z"
         transform="translate(-14.370078,50.338581)" />
    </g>
    <g
       id="g5"
       inkscape:label="carrier"
       style="display:inline;stroke-width:0.377953;stroke-dasharray:none"
       transform="translate(-36.271194,288.01495)">
      <path
         id="path293-9-5"
         style="display:inline;fill:none;stroke:#000000;stroke-width:0.377953;stroke-linecap:round;stroke-dasharray:none"
         inkscape:label="innerEdge"
         d="m 634.10836,41.604779 a 32.634411,32.634411 0 0 1 -59.31836,0.01563 113.08662,113.08662 0 0 0 -83.40039,108.855461 113.08662,113.08662 0 0 0 3.98633,28.79102 32.634411,32.634411 0 0 1 35.79687,32.41406 32.634411,32.634411 0 0 1 -6.125,18.9336 113.08662,113.08662 0 0 0 158.72852,-0.27148 32.634411,32.634411 0 0 1 -5.96484,-18.73438 32.634411,32.634411 0 0 1 35.7207,-32.42579 113.08662,113.08662 0 0 0 4.03125,-28.70703 113.08662,113.08662 0 0 0 -83.45508,-108.871086 z" />
      <circle
         style="display:inline;fill:none;stroke:#000000;stroke-width:0.377953;stroke-linecap:round;stroke-dasharray:none;stroke-opacity:1"
         id="path6-3"
         cx="604.44604"
         cy="28.130314"
         r="9.2598429"
         inkscape:label="topHole" />
      <circle
         style="display:inline;fill:none;stroke:#000000;stroke-width:0.377953;stroke-linecap:round;stroke-dasharray:none;stroke-opacity:1"
         id="path6-3-4"
         cx="710.44556"
         cy="211.60921"
         r="9.2598429"
         inkscape:label="rightHole" />
      <circle
         style="display:inline;fill:none;stroke:#000000;stroke-width:0.377953;stroke-linecap:round;stroke-dasharray:none;stroke-opacity:1"
         id="path6-3-1"
         cx="498.53931"
         cy="211.68022"
         r="9.2598429"
         inkscape:label="leftHole" />
      <path
         id="path6-6-7"
         style="display:inline;fill:none;stroke:#000000;stroke-width:0.377953;stroke-linecap:round;stroke-dasharray:none;stroke-opacity:1"
         inkscape:label="outerEdge"
         d="m 615.22389,8.1425449 a 3.5905437,3.5905473 0 0 0 -3.58984,3.5898441 3.5905437,3.5905473 0 0 0 0.0176,0.255859 187.74406,187.74406 0 0 0 -41.4648,5.640625 3.5905437,3.5905473 0 0 0 -3.55469,-3.089843 3.5905437,3.5905473 0 0 0 -3.58984,3.589843 3.5905437,3.5905473 0 0 0 0.14844,1.021485 187.74406,187.74406 0 0 0 -38.50777,16.400391 3.5905437,3.5905473 0 0 0 -3.33203,-2.25586 3.5905437,3.5905473 0 0 0 -3.58984,3.589844 3.5905437,3.5905473 0 0 0 0.67187,2.078125 187.74406,187.74406 0 0 0 -33.11129,25.580078 3.5905437,3.5905473 0 0 0 -2.85351,-1.412109 3.5905437,3.5905473 0 0 0 -3.58984,3.589843 3.5905437,3.5905473 0 0 0 1.41796,2.84961 187.74406,187.74406 0 0 0 -25.582,33.10937 3.5905437,3.5905473 0 0 0 -2.08203,-0.66601 3.5905437,3.5905473 0 0 0 -3.58984,3.58984 3.5905437,3.5905473 0 0 0 2.25781,3.32617 187.74406,187.74406 0 0 0 -16.40233,38.51368 3.5905437,3.5905473 0 0 0 -1.02148,-0.14844 3.5905437,3.5905473 0 0 0 -3.58984,3.58984 3.5905437,3.5905473 0 0 0 3.08984,3.55469 187.74406,187.74406 0 0 0 -5.64062,41.45704 3.5905437,3.5905473 0 0 0 -0.25586,-0.01 3.5905437,3.5905473 0 0 0 -3.58984,3.58985 3.5905437,3.5905473 0 0 0 3.58984,3.58984 3.5905437,3.5905473 0 0 0 0.25586,-0.0176 187.74406,187.74406 0 0 0 5.64062,41.46484 3.5905437,3.5905473 0 0 0 -3.08984,3.55469 3.5905437,3.5905473 0 0 0 3.58984,3.58985 3.5905437,3.5905473 0 0 0 1.02148,-0.14844 187.74406,187.74406 0 0 0 16.40233,38.51172 3.5905437,3.5905473 0 0 0 -2.25781,3.32617 3.5905437,3.5905473 0 0 0 3.58984,3.5918 3.5905437,3.5905473 0 0 0 2.07812,-0.67188 187.74406,187.74406 0 0 0 25.58591,33.11524 3.5905437,3.5905473 0 0 0 -1.41796,2.84765 3.5905437,3.5905473 0 0 0 3.58984,3.5918 3.5905437,3.5905473 0 0 0 2.8496,-1.41992 187.74406,187.74406 0 0 0 33.11716,25.58593 3.5905437,3.5905473 0 0 0 -0.67383,2.08008 3.5905437,3.5905473 0 0 0 3.58984,3.58985 3.5905437,3.5905473 0 0 0 3.32617,-2.25977 187.74406,187.74406 0 0 0 38.51363,16.4043 3.5905437,3.5905473 0 0 0 -0.14844,1.01953 3.5905437,3.5905473 0 0 0 3.58984,3.5918 3.5905437,3.5905473 0 0 0 3.55469,-3.08985 187.74406,187.74406 0 0 0 41.4648,5.64063 3.5905437,3.5905473 0 0 0 -0.0176,0.25586 3.5905437,3.5905473 0 0 0 3.58984,3.58984 3.5905437,3.5905473 0 0 0 3.58984,-3.58984 3.5905437,3.5905473 0 0 0 -0.01,-0.25586 187.74406,187.74406 0 0 0 41.45699,-5.64063 3.5905437,3.5905473 0 0 0 3.55468,3.08985 3.5905437,3.5905473 0 0 0 3.58984,-3.5918 3.5905437,3.5905473 0 0 0 -0.14844,-1.01953 187.74406,187.74406 0 0 0 38.51364,-16.4043 3.5905437,3.5905473 0 0 0 3.32617,2.25977 3.5905437,3.5905473 0 0 0 3.58984,-3.58985 3.5905437,3.5905473 0 0 0 -0.66602,-2.08203 187.74406,187.74406 0 0 0 33.10934,-25.58398 3.5905437,3.5905473 0 0 0 2.84961,1.41992 3.5905437,3.5905473 0 0 0 3.58984,-3.5918 3.5905437,3.5905473 0 0 0 -1.41406,-2.85351 187.74406,187.74406 0 0 0 25.582,-33.10938 3.5905437,3.5905473 0 0 0 2.07813,0.67188 3.5905437,3.5905473 0 0 0 3.58984,-3.5918 3.5905437,3.5905473 0 0 0 -2.25586,-3.33203 187.74406,187.74406 0 0 0 16.40037,-38.50586 3.5905437,3.5905473 0 0 0 1.02149,0.14844 3.5905437,3.5905473 0 0 0 3.58984,-3.58985 3.5905437,3.5905473 0 0 0 -3.08984,-3.55664 187.74406,187.74406 0 0 0 5.64062,-41.46289 3.5905437,3.5905473 0 0 0 0.25586,0.0176 3.5905437,3.5905473 0 0 0 3.58984,-3.58984 3.5905437,3.5905473 0 0 0 -3.58984,-3.58985 3.5905437,3.5905473 0 0 0 -0.0879,0.006 187.74406,187.74406 0 0 0 -5.42578,-41.53517 3.5905437,3.5905473 0 0 0 2.70703,-3.47265 3.5905437,3.5905473 0 0 0 -3.58984,-3.58984 3.5905437,3.5905473 0 0 0 -1.00586,0.14258 187.74406,187.74406 0 0 0 -16.02928,-38.69141 3.5905437,3.5905473 0 0 0 1.86914,-3.14258 3.5905437,3.5905473 0 0 0 -3.58984,-3.58984 3.5905437,3.5905473 0 0 0 -1.83203,0.50976 187.74406,187.74406 0 0 0 -25.53318,-33.207026 3.5905437,3.5905473 0 0 0 1.11914,-2.595704 3.5905437,3.5905473 0 0 0 -3.58984,-3.589843 3.5905437,3.5905473 0 0 0 -2.5957,1.11914 187.74406,187.74406 0 0 0 -33.207,-25.533203 3.5905437,3.5905473 0 0 0 0.50977,-1.832031 3.5905437,3.5905473 0 0 0 -3.58984,-3.589844 3.5905437,3.5905473 0 0 0 -3.14258,1.869141 187.74406,187.74406 0 0 0 -38.69137,-16.029297 3.5905437,3.5905473 0 0 0 0.14258,-1.00586 3.5905437,3.5905473 0 0 0 -3.58984,-3.589843 3.5905437,3.5905473 0 0 0 -3.4746,2.708984 187.74406,187.74406 0 0 0 -41.53317,-5.427734 3.5905437,3.5905473 0 0 0 0.006,-0.08789 3.5905437,3.5905473 0 0 0 -3.58984,-3.5898441 z"
         transform="translate(-10.748016,-49.000007)" />
    </g>
  </g>
</svg>
