999
"DXF R12 Output" (www.mydxf.blogspot.com)
 0 
SECTION
 2 
HEADER
 9 
$ACADVER
 1 
AC1009
 9 
$EXTMIN
 10 
 0 
 20 
 0 
 9 
$EXTMAX
 10 
 8.5 
 20 
 11 
 0 
ENDSEC
 0 
SECTION
 2 
ENTITIES
0
LINE
8
Layer 1
10
0.793749
20
297.793749
11
-0.793749
21
296.206251
0
LINE
8
Layer 1
10
0.000000
20
298.322915
11
0.000000
21
295.677085
0
LINE
8
Layer 1
10
2.116664
20
295.941668
11
1.058332
21
294.883336
0
LINE
8
Layer 1
10
1.587498
20
296.470834
11
0.529166
21
295.412502
0
LINE
8
Layer 1
10
1.058332
20
297.000000
11
0.000000
21
295.941668
0
LINE
8
ring
10
60.479538
20
288.524611
11
62.603637
21
288.101807
0
LINE
8
ring
10
66.196304
20
287.140313
11
68.247034
21
286.443930
0
LINE
8
ring
10
71.683464
20
285.021532
11
73.625768
21
284.063477
0
LINE
8
ring
10
76.847145
20
282.205046
11
78.647792
21
281.001458
0
LINE
8
ring
10
81.599083
20
278.738479
11
83.227062
21
277.310260
0
LINE
8
ring
10
85.857811
20
274.681099
11
87.285500
21
273.052855
0
LINE
8
ring
10
89.550595
20
270.102834
11
90.753390
21
268.301976
0
LINE
8
ring
10
92.613937
20
265.081657
11
93.571728
21
263.139168
0
LINE
8
ring
10
94.995978
20
259.703557
11
95.691832
21
257.652695
0
LINE
8
ring
10
96.655443
20
254.060584
11
97.077717
21
251.936406
0
LINE
8
ring
10
97.564285
20
248.249257
11
97.705837
21
246.088130
0
LINE
8
ring
10
97.706896
20
242.369011
11
97.565079
21
240.207918
0
LINE
8
ring
10
97.080628
20
236.520478
11
96.657824
21
234.396379
0
LINE
8
ring
10
95.696329
20
230.803712
11
94.999947
21
228.752982
0
LINE
8
ring
10
93.577813
20
225.316552
11
92.619758
21
223.374248
0
LINE
8
ring
10
90.761063
20
220.152870
11
89.557739
21
218.352224
0
LINE
8
ring
10
87.294496
20
215.401013
11
85.866277
21
213.772769
0
LINE
8
ring
10
83.237381
20
211.142285
11
81.608872
21
209.714330
0
LINE
8
ring
10
78.658930
20
207.449500
11
76.858073
21
206.246441
0
LINE
8
ring
10
73.637754
20
204.385893
11
71.695265
21
203.428367
0
LINE
8
ring
10
68.259654
20
202.004117
11
66.208792
21
201.307999
0
LINE
8
ring
10
62.616681
20
200.344388
11
60.492503
21
199.922113
0
LINE
8
ring
10
56.805354
20
199.435810
11
54.644224
21
199.294258
0
LINE
8
ring
10
50.925105
20
199.293200
11
48.764015
21
199.435016
0
LINE
8
ring
10
45.076574
20
199.919468
11
42.952476
21
200.342007
0
LINE
8
ring
10
39.359809
20
201.303766
11
37.309079
21
201.999884
0
LINE
8
ring
10
33.872649
20
203.422282
11
31.930345
21
204.380337
0
LINE
8
ring
10
28.708967
20
206.239033
11
26.908321
21
207.442356
0
LINE
8
ring
10
23.957030
20
209.705599
11
22.329051
21
211.133818
0
LINE
8
ring
10
19.698303
20
213.762715
11
18.270613
21
215.391223
0
LINE
8
ring
10
16.005782
20
218.341085
11
14.802723
21
220.141943
0
LINE
8
ring
10
12.942176
20
223.362262
11
11.984385
21
225.304751
0
LINE
8
ring
10
10.560135
20
228.740361
11
9.864282
21
230.791224
0
LINE
8
ring
10
8.900670
20
234.383361
11
8.478396
21
236.507513
0
LINE
8
ring
10
7.991828
20
240.194689
11
7.850276
21
242.355795
0
LINE
8
ring
10
7.849217
20
246.074914
11
7.991034
21
248.236001
0
LINE
8
ring
10
8.475485
20
251.923441
11
8.898289
21
254.047540
0
LINE
8
ring
10
9.859784
20
257.640207
11
10.556166
21
259.690937
0
LINE
8
ring
10
11.978300
20
263.127367
11
12.936355
21
265.069671
0
LINE
8
ring
10
14.795050
20
268.291049
11
15.998374
21
270.091695
0
LINE
8
ring
10
18.261617
20
273.042801
11
19.689836
21
274.671045
0
LINE
8
ring
10
22.318733
20
277.301529
11
23.947241
21
278.729484
0
LINE
8
ring
10
26.897182
20
280.994314
11
28.698040
21
282.197373
0
LINE
8
ring
10
31.918359
20
284.057921
11
33.860848
21
285.015711
0
LINE
8
ring
10
37.296458
20
286.439961
11
39.347321
21
287.135815
0
LINE
8
ring
10
42.939458
20
288.099426
11
45.063610
21
288.521700
0
LINE
8
ring
10
48.750786
20
289.008269
11
50.911892
21
289.149556
0
LINE
8
ring
10
54.631011
20
289.150614
11
56.792098
21
289.008798
0
LINE
8
ring
10
59.798184
20
286.782861
11
60.479538
21
288.524611
0
LINE
8
ring
10
58.851400
20
285.077359
11
59.798184
21
286.782861
0
LINE
8
ring
10
57.474696
20
285.258069
11
58.851400
21
285.077359
0
LINE
8
ring
10
57.000563
20
287.150367
11
57.474696
21
285.258069
0
LINE
8
ring
10
56.792098
20
289.008798
11
57.000563
21
287.150367
0
LINE
8
ring
10
65.293441
20
285.502544
11
66.196304
21
287.140313
0
LINE
8
ring
10
64.132133
20
283.934890
11
65.293441
21
285.502544
0
LINE
8
ring
10
62.790803
20
284.293929
11
64.132133
21
283.934890
0
LINE
8
ring
10
62.567707
20
286.231999
11
62.790803
21
284.293929
0
LINE
8
ring
10
62.603637
20
288.101807
11
62.567707
21
286.231999
0
LINE
8
ring
10
70.574544
20
283.515790
11
71.683464
21
285.021532
0
LINE
8
ring
10
69.218583
20
282.113236
11
70.574544
21
283.515790
0
LINE
8
ring
10
67.935593
20
282.644254
11
69.218583
21
282.113236
0
LINE
8
ring
10
67.967370
20
284.594760
11
67.935593
21
282.644254
0
LINE
8
ring
10
68.247034
20
286.443930
11
67.967370
21
284.594760
0
LINE
8
ring
10
75.551165
20
280.856731
11
76.847145
21
282.205046
0
LINE
8
ring
10
74.023754
20
279.643089
11
75.551165
21
280.856731
0
LINE
8
ring
10
72.821039
20
280.337090
11
74.023754
21
279.643089
0
LINE
8
ring
10
73.107132
20
282.266694
11
72.821039
21
280.337090
0
LINE
8
ring
10
73.625768
20
284.063477
11
73.107132
21
282.266694
0
LINE
8
ring
10
80.138055
20
277.570875
11
81.599083
21
278.738479
0
LINE
8
ring
10
78.465388
20
276.567047
11
80.138055
21
277.570875
0
LINE
8
ring
10
77.363532
20
277.411860
11
78.465388
21
276.567047
0
LINE
8
ring
10
77.899048
20
279.287754
11
77.363532
21
277.411860
0
LINE
8
ring
10
78.647792
20
281.001458
11
77.899048
21
279.287754
0
LINE
8
ring
10
84.256819
20
273.714313
11
85.857811
21
274.681099
0
LINE
8
ring
10
82.467444
20
272.937497
11
84.256819
21
273.714313
0
LINE
8
ring
10
81.485312
20
273.919100
11
82.467444
21
272.937497
0
LINE
8
ring
10
82.261069
20
275.709004
11
81.485312
21
273.919100
0
LINE
8
ring
10
83.227062
20
277.310260
11
82.261069
21
275.709004
0
LINE
8
ring
10
87.837156
20
269.353111
11
89.550595
21
270.102834
0
LINE
8
ring
10
85.961527
20
268.816510
11
87.837156
21
269.353111
0
LINE
8
ring
10
85.115920
20
269.917890
11
85.961527
21
268.816510
0
LINE
8
ring
10
86.118689
20
271.591299
11
85.115920
21
269.917890
0
LINE
8
ring
10
87.285500
20
273.052855
11
86.118689
21
271.591299
0
LINE
8
ring
10
90.817419
20
264.561989
11
92.613937
21
265.081657
0
LINE
8
ring
10
88.888080
20
264.274784
11
90.817419
21
264.561989
0
LINE
8
ring
10
88.193285
20
265.477102
11
88.888080
21
264.274784
0
LINE
8
ring
10
89.405869
20
267.005202
11
88.193285
21
265.477102
0
LINE
8
ring
10
90.753390
20
268.301976
11
89.405869
21
267.005202
0
LINE
8
ring
10
93.147072
20
259.422835
11
94.995978
21
259.703557
0
LINE
8
ring
10
91.196566
20
259.389947
11
93.147072
21
259.422835
0
LINE
8
ring
10
90.664755
20
260.672619
11
91.196566
21
259.389947
0
LINE
8
ring
10
92.066515
20
262.029401
11
90.664755
21
260.672619
0
LINE
8
ring
10
93.571728
20
263.139168
11
92.066515
21
262.029401
0
LINE
8
ring
10
94.785635
20
254.023595
11
96.655443
21
254.060584
0
LINE
8
ring
10
92.847564
20
254.245581
11
94.785635
21
254.023595
0
LINE
8
ring
10
92.487731
20
255.586699
11
92.847564
21
254.245581
0
LINE
8
ring
10
94.054592
20
256.748880
11
92.487731
21
255.586699
0
LINE
8
ring
10
95.691832
20
257.652695
11
94.054592
21
256.748880
0
LINE
8
ring
10
95.705590
20
248.456637
11
97.564285
21
248.249257
0
LINE
8
ring
10
93.813028
20
248.929685
11
95.705590
21
248.456637
0
LINE
8
ring
10
93.631524
20
250.306284
11
93.813028
21
248.929685
0
LINE
8
ring
10
95.336497
20
251.254046
11
93.631524
21
250.306284
0
LINE
8
ring
10
97.077717
20
251.936406
11
95.336497
21
251.254046
0
LINE
8
ring
10
95.891063
20
242.817222
11
97.706896
21
242.369011
0
LINE
8
ring
10
94.076552
20
243.533266
11
95.891063
21
242.817222
0
LINE
8
ring
10
94.076288
20
244.921797
11
94.076552
21
243.533266
0
LINE
8
ring
10
95.890269
20
245.638876
11
94.076288
21
244.921797
0
LINE
8
ring
10
97.705837
20
246.088130
11
95.890269
21
245.638876
0
LINE
8
ring
10
95.338878
20
237.201858
11
97.080628
21
236.520478
0
LINE
8
ring
10
93.633376
20
238.148615
11
95.338878
21
237.201858
0
LINE
8
ring
10
93.814086
20
239.525320
11
93.633376
21
238.148615
0
LINE
8
ring
10
95.706384
20
239.999479
11
93.814086
21
239.525320
0
LINE
8
ring
10
97.565079
20
240.207918
11
95.706384
21
239.999479
0
LINE
8
ring
10
94.058561
20
231.706601
11
95.696329
21
230.803712
0
LINE
8
ring
10
92.491171
20
232.867883
11
94.058561
21
231.706601
0
LINE
8
ring
10
92.850210
20
234.209213
11
92.491171
21
232.867883
0
LINE
8
ring
10
94.788016
20
234.432309
11
92.850210
21
234.209213
0
LINE
8
ring
10
96.657824
20
234.396379
11
94.788016
21
234.432309
0
LINE
8
ring
10
92.071807
20
226.425472
11
93.577813
21
225.316552
0
LINE
8
ring
10
90.669252
20
227.781433
11
92.071807
21
226.425472
0
LINE
8
ring
10
91.200270
20
229.064423
11
90.669252
21
227.781433
0
LINE
8
ring
10
93.150776
20
229.032646
11
91.200270
21
229.064423
0
LINE
8
ring
10
94.999947
20
228.752982
11
93.150776
21
229.032646
0
LINE
8
ring
10
89.412748
20
221.448851
11
90.761063
21
220.152870
0
LINE
8
ring
10
88.199370
20
222.976289
11
89.412748
21
221.448851
0
LINE
8
ring
10
88.893107
20
224.178977
11
88.199370
21
222.976289
0
LINE
8
ring
10
90.822975
20
223.892883
11
88.893107
21
224.178977
0
LINE
8
ring
10
92.619758
20
223.374248
11
90.822975
21
223.892883
0
LINE
8
ring
10
86.126891
20
216.861775
11
87.294496
21
215.401013
0
LINE
8
ring
10
85.123064
20
218.534628
11
86.126891
21
216.861775
0
LINE
8
ring
10
85.968142
20
219.636484
11
85.123064
21
218.534628
0
LINE
8
ring
10
87.844035
20
219.100968
11
85.968142
21
219.636484
0
LINE
8
ring
10
89.557739
20
218.352224
11
87.844035
21
219.100968
0
LINE
8
ring
10
82.270330
20
212.743012
11
83.237381
21
211.142285
0
LINE
8
ring
10
81.493514
20
214.532651
11
82.270330
21
212.743012
0
LINE
8
ring
10
82.475117
20
215.514519
11
81.493514
21
214.532651
0
LINE
8
ring
10
84.265021
20
214.738761
11
82.475117
21
215.514519
0
LINE
8
ring
10
85.866277
20
213.772769
11
84.265021
21
214.738761
0
LINE
8
ring
10
77.909208
20
209.162939
11
78.658930
21
207.449500
0
LINE
8
ring
10
77.372607
20
211.038304
11
77.909208
21
209.162939
0
LINE
8
ring
10
78.473960
20
211.883911
11
77.372607
21
211.038304
0
LINE
8
ring
10
80.147316
20
210.881141
11
78.473960
21
211.883911
0
LINE
8
ring
10
81.608872
20
209.714330
11
80.147316
21
210.881141
0
LINE
8
ring
10
73.118086
20
206.182412
11
73.637754
21
204.385893
0
LINE
8
ring
10
72.830881
20
208.112016
11
73.118086
21
206.182412
0
LINE
8
ring
10
74.033199
20
208.806546
11
72.830881
21
208.112016
0
LINE
8
ring
10
75.561299
20
207.593962
11
74.033199
21
208.806546
0
LINE
8
ring
10
76.858073
20
206.246441
11
75.561299
21
207.593962
0
LINE
8
ring
10
67.978932
20
203.853023
11
68.259654
21
202.004117
0
LINE
8
ring
10
67.946044
20
205.803529
11
67.978932
21
203.853023
0
LINE
8
ring
10
69.228716
20
206.335341
11
67.946044
21
205.803529
0
LINE
8
ring
10
70.585498
20
204.933580
11
69.228716
21
206.335341
0
LINE
8
ring
10
71.695265
20
203.428367
11
70.585498
21
204.933580
0
LINE
8
ring
10
62.579692
20
202.214196
11
62.616681
21
200.344388
0
LINE
8
ring
10
62.801678
20
204.152531
11
62.579692
21
202.214196
0
LINE
8
ring
10
64.142796
20
204.512099
11
62.801678
21
204.152531
0
LINE
8
ring
10
65.304977
20
202.945503
11
64.142796
21
204.512099
0
LINE
8
ring
10
66.208792
20
201.307999
11
65.304977
21
202.945503
0
LINE
8
ring
10
57.012734
20
201.294241
11
56.805354
21
199.435810
0
LINE
8
ring
10
57.485782
20
203.186803
11
57.012734
21
201.294241
0
LINE
8
ring
10
58.862381
20
203.368572
11
57.485782
21
203.186803
0
LINE
8
ring
10
59.810143
20
201.663334
11
58.862381
21
203.368572
0
LINE
8
ring
10
60.492503
20
199.922113
11
59.810143
21
201.663334
0
LINE
8
ring
10
51.373319
20
201.108768
11
50.925105
21
199.293200
0
LINE
8
ring
10
52.089360
20
202.923543
11
51.373319
21
201.108768
0
LINE
8
ring
10
53.477892
20
202.923808
11
52.089360
21
202.923543
0
LINE
8
ring
10
54.194972
20
201.109562
11
53.477892
21
202.923808
0
LINE
8
ring
10
54.644224
20
199.294258
11
54.194972
21
201.109562
0
LINE
8
ring
10
45.757955
20
201.660953
11
45.076574
21
199.919468
0
LINE
8
ring
10
46.704712
20
203.366719
11
45.757955
21
201.660953
0
LINE
8
ring
10
48.081417
20
203.185745
11
46.704712
21
203.366719
0
LINE
8
ring
10
48.555576
20
201.293447
11
48.081417
21
203.185745
0
LINE
8
ring
10
48.764015
20
199.435016
11
48.555576
21
201.293447
0
LINE
8
ring
10
40.262698
20
202.941535
11
39.359809
21
201.303766
0
LINE
8
ring
10
41.423980
20
204.508924
11
40.262698
21
202.941535
0
LINE
8
ring
10
42.765310
20
204.149885
11
41.423980
21
204.508924
0
LINE
8
ring
10
42.988406
20
202.211815
11
42.765310
21
204.149885
0
LINE
8
ring
10
42.952476
20
200.342007
11
42.988406
21
202.211815
0
LINE
8
ring
10
34.981569
20
204.928288
11
33.872649
21
203.422282
0
LINE
8
ring
10
36.337530
20
206.330578
11
34.981569
21
204.928288
0
LINE
8
ring
10
37.620520
20
205.799560
11
36.337530
21
206.330578
0
LINE
8
ring
10
37.588743
20
203.849054
11
37.620520
21
205.799560
0
LINE
8
ring
10
37.309079
20
201.999884
11
37.588743
21
203.849054
0
LINE
8
ring
10
30.004948
20
207.587348
11
28.708967
21
206.239033
0
LINE
8
ring
10
31.532385
20
208.800725
11
30.004948
21
207.587348
0
LINE
8
ring
10
32.735074
20
208.106724
11
31.532385
21
208.800725
0
LINE
8
ring
10
32.448980
20
206.177120
11
32.735074
21
208.106724
0
LINE
8
ring
10
31.930345
20
204.380337
11
32.448980
21
206.177120
0
LINE
8
ring
10
25.418058
20
210.873204
11
23.957030
21
209.705599
0
LINE
8
ring
10
27.090725
20
211.877032
11
25.418058
21
210.873204
0
LINE
8
ring
10
28.192581
20
211.031954
11
27.090725
21
211.877032
0
LINE
8
ring
10
27.657065
20
209.156060
11
28.192581
21
211.031954
0
LINE
8
ring
10
26.908321
20
207.442356
11
27.657065
21
209.156060
0
LINE
8
ring
10
21.299294
20
214.729766
11
19.698303
21
213.762715
0
LINE
8
ring
10
23.088669
20
215.506581
11
21.299294
21
214.729766
0
LINE
8
ring
10
24.070801
20
214.524978
11
23.088669
21
215.506581
0
LINE
8
ring
10
23.295044
20
212.735074
11
24.070801
21
214.524978
0
LINE
8
ring
10
22.329051
20
211.133818
11
23.295044
21
212.735074
0
LINE
8
ring
10
17.718957
20
219.090808
11
16.005782
21
218.341085
0
LINE
8
ring
10
19.594586
20
219.627409
11
17.718957
21
219.090808
0
LINE
8
ring
10
20.440193
20
218.526055
11
19.594586
21
219.627409
0
LINE
8
ring
10
19.437424
20
216.852780
11
20.440193
21
218.526055
0
LINE
8
ring
10
18.270613
20
215.391223
11
19.437424
21
216.852780
0
LINE
8
ring
10
14.738694
20
223.881930
11
12.942176
21
223.362262
0
LINE
8
ring
10
16.668033
20
224.169135
11
14.738694
21
223.881930
0
LINE
8
ring
10
17.362828
20
222.966843
11
16.668033
21
224.169135
0
LINE
8
ring
10
16.150244
20
221.438717
11
17.362828
21
222.966843
0
LINE
8
ring
10
14.802723
20
220.141943
11
16.150244
21
221.438717
0
LINE
8
ring
10
12.409041
20
229.021084
11
10.560135
21
228.740361
0
LINE
8
ring
10
14.359547
20
229.053972
11
12.409041
21
229.021084
0
LINE
8
ring
10
14.891359
20
227.771300
11
14.359547
21
229.053972
0
LINE
8
ring
10
13.489598
20
226.414545
11
14.891359
21
227.771300
0
LINE
8
ring
10
11.984385
20
225.304751
11
13.489598
21
226.414545
0
LINE
8
ring
10
10.770478
20
234.420350
11
8.900670
21
234.383361
0
LINE
8
ring
10
12.708549
20
234.198338
11
10.770478
21
234.420350
0
LINE
8
ring
10
13.068382
20
232.857246
11
12.708549
21
234.198338
0
LINE
8
ring
10
11.501521
20
231.695039
11
13.068382
21
232.857246
0
LINE
8
ring
10
9.864282
20
230.791224
11
11.501521
21
231.695039
0
LINE
8
ring
10
9.850523
20
239.987282
11
7.991828
21
240.194689
0
LINE
8
ring
10
11.743085
20
239.514234
11
9.850523
21
239.987282
0
LINE
8
ring
10
11.924589
20
238.137635
11
11.743085
21
239.514234
0
LINE
8
ring
10
10.219617
20
237.189872
11
11.924589
21
238.137635
0
LINE
8
ring
10
8.478396
20
236.507513
11
10.219617
21
237.189872
0
LINE
8
ring
10
9.665051
20
245.626702
11
7.849217
21
246.074914
0
LINE
8
ring
10
11.479561
20
244.910658
11
9.665051
21
245.626702
0
LINE
8
ring
10
11.479825
20
243.522127
11
11.479561
21
244.910658
0
LINE
8
ring
10
9.665844
20
242.805046
11
11.479825
21
243.522127
0
LINE
8
ring
10
7.850276
20
242.355795
11
9.665844
21
242.805046
0
LINE
8
ring
10
10.217235
20
251.242087
11
8.475485
21
251.923441
0
LINE
8
ring
10
11.922737
20
250.295303
11
10.217235
21
251.242087
0
LINE
8
ring
10
11.742027
20
248.918599
11
11.922737
21
250.295303
0
LINE
8
ring
10
9.849730
20
248.444466
11
11.742027
21
248.918599
0
LINE
8
ring
10
7.991034
20
248.236001
11
9.849730
21
248.444466
0
LINE
8
ring
10
11.497552
20
256.737344
11
9.859784
21
257.640207
0
LINE
8
ring
10
13.064942
20
255.576036
11
11.497552
21
256.737344
0
LINE
8
ring
10
12.705903
20
254.234706
11
13.064942
21
255.576036
0
LINE
8
ring
10
10.768097
20
254.011610
11
12.705903
21
254.234706
0
LINE
8
ring
10
8.898289
20
254.047540
11
10.768097
21
254.011610
0
LINE
8
ring
10
13.484306
20
262.018447
11
11.978300
21
263.127367
0
LINE
8
ring
10
14.886861
20
260.662486
11
13.484306
21
262.018447
0
LINE
8
ring
10
14.355843
20
259.379496
11
14.886861
21
260.662486
0
LINE
8
ring
10
12.405337
20
259.411273
11
14.355843
21
259.379496
0
LINE
8
ring
10
10.556166
20
259.690937
11
12.405337
21
259.411273
0
LINE
8
ring
10
16.143365
20
266.995068
11
14.795050
21
268.291049
0
LINE
8
ring
10
17.356743
20
265.467657
11
16.143365
21
266.995068
0
LINE
8
ring
10
16.663006
20
264.264942
11
17.356743
21
265.467657
0
LINE
8
ring
10
14.733138
20
264.551036
11
16.663006
21
264.264942
0
LINE
8
ring
10
12.936355
20
265.069671
11
14.733138
21
264.551036
0
LINE
8
ring
10
19.429222
20
271.582039
11
18.261617
21
273.042801
0
LINE
8
ring
10
20.433050
20
269.909291
11
19.429222
21
271.582039
0
LINE
8
ring
10
19.587971
20
268.807435
11
20.433050
21
269.909291
0
LINE
8
ring
10
17.712078
20
269.342951
11
19.587971
21
268.807435
0
LINE
8
ring
10
15.998374
20
270.091695
11
17.712078
21
269.342951
0
LINE
8
ring
10
23.285783
20
275.700802
11
22.318733
21
277.301529
0
LINE
8
ring
10
24.062599
20
273.911427
11
23.285783
21
275.700802
0
LINE
8
ring
10
23.080996
20
272.929295
11
24.062599
21
273.911427
0
LINE
8
ring
10
21.291092
20
273.705052
11
23.080996
21
272.929295
0
LINE
8
ring
10
19.689836
20
274.671045
11
21.291092
21
273.705052
0
LINE
8
ring
10
27.646905
20
279.281139
11
26.897182
21
280.994314
0
LINE
8
ring
10
28.183506
20
277.405510
11
27.646905
21
279.281139
0
LINE
8
ring
10
27.082152
20
276.559903
11
28.183506
21
277.405510
0
LINE
8
ring
10
25.408797
20
277.562673
11
27.082152
21
276.559903
0
LINE
8
ring
10
23.947241
20
278.729484
11
25.408797
21
277.562673
0
LINE
8
ring
10
32.438027
20
282.261402
11
31.918359
21
284.057921
0
LINE
8
ring
10
32.725231
20
280.331798
11
32.438027
21
282.261402
0
LINE
8
ring
10
31.522913
20
279.637268
11
32.725231
21
280.331798
0
LINE
8
ring
10
29.994814
20
280.849852
11
31.522913
21
279.637268
0
LINE
8
ring
10
28.698040
20
282.197373
11
29.994814
21
280.849852
0
LINE
8
ring
10
37.577181
20
284.590791
11
37.296458
21
286.439961
0
LINE
8
ring
10
37.610069
20
282.640285
11
37.577181
21
284.590791
0
LINE
8
ring
10
36.327397
20
282.108738
11
37.610069
21
282.640285
0
LINE
8
ring
10
34.970642
20
283.510234
11
36.327397
21
282.108738
0
LINE
8
ring
10
33.860848
20
285.015711
11
34.970642
21
283.510234
0
LINE
8
ring
10
42.976447
20
286.229618
11
42.939458
21
288.099426
0
LINE
8
ring
10
42.754435
20
284.291547
11
42.976447
21
286.229618
0
LINE
8
ring
10
41.413343
20
283.931715
11
42.754435
21
284.291547
0
LINE
8
ring
10
40.251136
20
285.498575
11
41.413343
21
283.931715
0
LINE
8
ring
10
39.347321
20
287.135815
11
40.251136
21
285.498575
0
LINE
8
ring
10
48.543379
20
287.149573
11
48.750786
21
289.008269
0
LINE
8
ring
10
48.070331
20
285.257011
11
48.543379
21
287.149573
0
LINE
8
ring
10
46.693732
20
285.075507
11
48.070331
21
285.257011
0
LINE
8
ring
10
45.745969
20
286.780480
11
46.693732
21
285.075507
0
LINE
8
ring
10
45.063610
20
288.521700
11
45.745969
21
286.780480
0
LINE
8
ring
10
54.182796
20
287.335046
11
54.631011
21
289.150614
0
LINE
8
ring
10
53.466755
20
285.520536
11
54.182796
21
287.335046
0
LINE
8
ring
10
52.078224
20
285.520006
11
53.466755
21
285.520536
0
LINE
8
ring
10
51.361143
20
287.334252
11
52.078224
21
285.520006
0
LINE
8
ring
10
50.911892
20
289.149556
11
51.361143
21
287.334252
0
LINE
8
ring
10
102.777997
20
244.221962
11
102.667194
21
247.553903
0
LINE
8
ring
10
102.667194
20
247.553903
11
102.338292
21
250.844934
0
LINE
8
ring
10
102.338292
20
250.844934
11
101.796550
21
254.085945
0
LINE
8
ring
10
101.796550
20
254.085945
11
101.047225
21
257.267828
0
LINE
8
ring
10
101.047225
20
257.267828
11
100.095577
21
260.381477
0
LINE
8
ring
10
100.095577
20
260.381477
11
98.946863
21
263.417782
0
LINE
8
ring
10
98.946863
20
263.417782
11
97.606343
21
266.367636
0
LINE
8
ring
10
97.606343
20
266.367636
11
96.079275
21
269.221931
0
LINE
8
ring
10
96.079275
20
269.221931
11
94.370918
21
271.971558
0
LINE
8
ring
10
94.370918
20
271.971558
11
92.486529
21
274.607409
0
LINE
8
ring
10
92.486529
20
274.607409
11
90.431368
21
277.120377
0
LINE
8
ring
10
90.431368
20
277.120377
11
88.210694
21
279.501353
0
LINE
8
ring
10
88.210694
20
279.501353
11
85.829764
21
281.741229
0
LINE
8
ring
10
85.829764
20
281.741229
11
83.293837
21
283.830897
0
LINE
8
ring
10
83.293837
20
283.830897
11
80.608172
21
285.761250
0
LINE
8
ring
10
80.608172
20
285.761250
11
77.778028
21
287.523178
0
LINE
8
ring
10
77.778028
20
287.523178
11
74.837081
21
289.093191
0
LINE
8
ring
10
74.837081
20
289.093191
11
71.822514
21
290.453869
0
LINE
8
ring
10
71.822514
20
290.453869
11
68.744845
21
291.605212
0
LINE
8
ring
10
68.744845
20
291.605212
11
65.614590
21
292.547219
0
LINE
8
ring
10
65.614590
20
292.547219
11
62.442267
21
293.279892
0
LINE
8
ring
10
62.442267
20
293.279892
11
59.238393
21
293.803230
0
LINE
8
ring
10
59.238393
20
293.803230
11
56.013485
21
294.117232
0
LINE
8
ring
10
56.013485
20
294.117232
11
52.778059
21
294.221900
0
LINE
8
ring
10
52.778059
20
294.221900
11
49.542633
21
294.117232
0
LINE
8
ring
10
49.542633
20
294.117232
11
46.317725
21
293.803230
0
LINE
8
ring
10
46.317725
20
293.803230
11
43.113851
21
293.279892
0
LINE
8
ring
10
43.113851
20
293.279892
11
39.941528
21
292.547219
0
LINE
8
ring
10
39.941528
20
292.547219
11
36.811273
21
291.605212
0
LINE
8
ring
10
36.811273
20
291.605212
11
33.733604
21
290.453869
0
LINE
8
ring
10
33.733604
20
290.453869
11
30.719037
21
289.093191
0
LINE
8
ring
10
30.719037
20
289.093191
11
27.778090
21
287.523178
0
LINE
8
ring
10
27.778090
20
287.523178
11
24.947946
21
285.761250
0
LINE
8
ring
10
24.947946
20
285.761250
11
22.262281
21
283.830897
0
LINE
8
ring
10
22.262281
20
283.830897
11
19.726354
21
281.741229
0
LINE
8
ring
10
19.726354
20
281.741229
11
17.345424
21
279.501353
0
LINE
8
ring
10
17.345424
20
279.501353
11
15.124750
21
277.120377
0
LINE
8
ring
10
15.124750
20
277.120377
11
13.069589
21
274.607409
0
LINE
8
ring
10
13.069589
20
274.607409
11
11.185200
21
271.971558
0
LINE
8
ring
10
11.185200
20
271.971558
11
9.476843
21
269.221931
0
LINE
8
ring
10
9.476843
20
269.221931
11
7.949775
21
266.367636
0
LINE
8
ring
10
7.949775
20
266.367636
11
6.609255
21
263.417782
0
LINE
8
ring
10
6.609255
20
263.417782
11
5.460541
21
260.381477
0
LINE
8
ring
10
5.460541
20
260.381477
11
4.508893
21
257.267828
0
LINE
8
ring
10
4.508893
20
257.267828
11
3.759568
21
254.085945
0
LINE
8
ring
10
3.759568
20
254.085945
11
3.217826
21
250.844934
0
LINE
8
ring
10
3.217826
20
250.844934
11
2.888924
21
247.553903
0
LINE
8
ring
10
2.888924
20
247.553903
11
2.778121
21
244.221962
0
LINE
8
ring
10
2.778121
20
244.221962
11
2.888924
21
240.890021
0
LINE
8
ring
10
2.888924
20
240.890021
11
3.217826
21
237.598991
0
LINE
8
ring
10
3.217826
20
237.598991
11
3.759568
21
234.357980
0
LINE
8
ring
10
3.759568
20
234.357980
11
4.508893
21
231.176096
0
LINE
8
ring
10
4.508893
20
231.176096
11
5.460541
21
228.062447
0
LINE
8
ring
10
5.460541
20
228.062447
11
6.609255
21
225.026142
0
LINE
8
ring
10
6.609255
20
225.026142
11
7.949775
21
222.076288
0
LINE
8
ring
10
7.949775
20
222.076288
11
9.476843
21
219.221993
0
LINE
8
ring
10
9.476843
20
219.221993
11
11.185200
21
216.472366
0
LINE
8
ring
10
11.185200
20
216.472366
11
13.069589
21
213.836515
0
LINE
8
ring
10
13.069589
20
213.836515
11
15.124750
21
211.323547
0
LINE
8
ring
10
15.124750
20
211.323547
11
17.345424
21
208.942571
0
LINE
8
ring
10
17.345424
20
208.942571
11
19.726354
21
206.702695
0
LINE
8
ring
10
19.726354
20
206.702695
11
22.262281
21
204.613027
0
LINE
8
ring
10
22.262281
20
204.613027
11
24.947946
21
202.682674
0
LINE
8
ring
10
24.947946
20
202.682674
11
27.778090
21
200.920746
0
LINE
8
ring
10
27.778090
20
200.920746
11
30.719037
21
199.350733
0
LINE
8
ring
10
30.719037
20
199.350733
11
33.733604
21
197.990055
0
LINE
8
ring
10
33.733604
20
197.990055
11
36.811273
21
196.838713
0
LINE
8
ring
10
36.811273
20
196.838713
11
39.941528
21
195.896705
0
LINE
8
ring
10
39.941528
20
195.896705
11
43.113851
21
195.164032
0
LINE
8
ring
10
43.113851
20
195.164032
11
46.317725
21
194.640695
0
LINE
8
ring
10
46.317725
20
194.640695
11
49.542633
21
194.326692
0
LINE
8
ring
10
49.542633
20
194.326692
11
52.778059
21
194.222025
0
LINE
8
ring
10
52.778059
20
194.222025
11
56.013485
21
194.326692
0
LINE
8
ring
10
56.013485
20
194.326692
11
59.238393
21
194.640695
0
LINE
8
ring
10
59.238393
20
194.640695
11
62.442267
21
195.164032
0
LINE
8
ring
10
62.442267
20
195.164032
11
65.614590
21
195.896705
0
LINE
8
ring
10
65.614590
20
195.896705
11
68.744845
21
196.838713
0
LINE
8
ring
10
68.744845
20
196.838713
11
71.822514
21
197.990055
0
LINE
8
ring
10
71.822514
20
197.990055
11
74.837081
21
199.350733
0
LINE
8
ring
10
74.837081
20
199.350733
11
77.778028
21
200.920746
0
LINE
8
ring
10
77.778028
20
200.920746
11
80.608172
21
202.682674
0
LINE
8
ring
10
80.608172
20
202.682674
11
83.293837
21
204.613027
0
LINE
8
ring
10
83.293837
20
204.613027
11
85.829764
21
206.702695
0
LINE
8
ring
10
85.829764
20
206.702695
11
88.210694
21
208.942571
0
LINE
8
ring
10
88.210694
20
208.942571
11
90.431368
21
211.323547
0
LINE
8
ring
10
90.431368
20
211.323547
11
92.486529
21
213.836515
0
LINE
8
ring
10
92.486529
20
213.836515
11
94.370918
21
216.472366
0
LINE
8
ring
10
94.370918
20
216.472366
11
96.079275
21
219.221993
0
LINE
8
ring
10
96.079275
20
219.221993
11
97.606343
21
222.076288
0
LINE
8
ring
10
97.606343
20
222.076288
11
98.946863
21
225.026142
0
LINE
8
ring
10
98.946863
20
225.026142
11
100.095577
21
228.062447
0
LINE
8
ring
10
100.095577
20
228.062447
11
101.047225
21
231.176096
0
LINE
8
ring
10
101.047225
20
231.176096
11
101.796550
21
234.357980
0
LINE
8
ring
10
101.796550
20
234.357980
11
102.338292
21
237.598991
0
LINE
8
ring
10
102.338292
20
237.598991
11
102.667194
21
240.890021
0
LINE
8
ring
10
102.667194
20
240.890021
11
102.777997
21
244.221962
0
LINE
8
ring
10
102.777997
20
244.221962
11
102.777997
21
244.221962
0
LINE
8
planet3
10
16.501346
20
231.589762
11
17.541157
21
233.390593
0
LINE
8
planet3
10
15.448835
20
232.044368
11
16.501346
21
231.589762
0
LINE
8
planet3
10
14.789494
20
232.154329
11
15.448835
21
232.044368
0
LINE
8
planet3
10
12.756968
20
231.819261
11
14.789494
21
232.154329
0
LINE
8
planet3
10
12.468307
20
230.742011
11
12.756968
21
231.819261
0
LINE
8
planet3
10
14.061097
20
229.435897
11
12.468307
21
230.742011
0
LINE
8
planet3
10
14.687100
20
229.201027
11
14.061097
21
229.435897
0
LINE
8
planet3
10
15.825866
20
229.068497
11
14.687100
21
229.201027
0
LINE
8
planet3
10
15.825866
20
226.989087
11
15.825866
21
229.068497
0
LINE
8
planet3
10
14.687100
20
226.856583
11
15.825866
21
226.989087
0
LINE
8
planet3
10
14.061097
20
226.621687
11
14.687100
21
226.856583
0
LINE
8
planet3
10
12.468307
20
225.315573
11
14.061097
21
226.621687
0
LINE
8
planet3
10
12.756968
20
224.238323
11
12.468307
21
225.315573
0
LINE
8
planet3
10
14.789494
20
223.903282
11
12.756968
21
224.238323
0
LINE
8
planet3
10
15.448835
20
224.013216
11
14.789494
21
223.903282
0
LINE
8
planet3
10
16.501346
20
224.467822
11
15.448835
21
224.013216
0
LINE
8
planet3
10
17.541157
20
222.666991
11
16.501346
21
224.467822
0
LINE
8
planet3
10
16.621202
20
221.982488
11
17.541157
21
222.666991
0
LINE
8
planet3
10
16.196547
20
221.466419
11
16.621202
21
221.982488
0
LINE
8
planet3
10
15.470002
20
219.538667
11
16.196547
21
221.466419
0
LINE
8
planet3
10
16.258724
20
218.749998
11
15.470002
21
219.538667
0
LINE
8
planet3
10
18.186475
20
219.476411
11
16.258724
21
218.749998
0
LINE
8
planet3
10
18.702677
20
219.901067
11
18.186475
21
219.476411
0
LINE
8
planet3
10
19.387153
20
220.821048
11
18.702677
21
219.901067
0
LINE
8
planet3
10
21.187905
20
219.781343
11
19.387153
21
220.821048
0
LINE
8
planet3
10
20.733351
20
218.728858
11
21.187905
21
219.781343
0
LINE
8
planet3
10
20.623285
20
218.069306
11
20.733351
21
218.728858
0
LINE
8
planet3
10
20.958511
20
216.036806
11
20.623285
21
218.069306
0
LINE
8
planet3
10
22.035629
20
215.748146
11
20.958511
21
216.036806
0
LINE
8
planet3
10
23.341875
20
217.340935
11
22.035629
21
215.748146
0
LINE
8
planet3
10
23.576560
20
217.966939
11
23.341875
21
217.340935
0
LINE
8
planet3
10
23.709116
20
219.105624
11
23.576560
21
217.966939
0
LINE
8
planet3
10
25.788739
20
219.105624
11
23.709116
21
219.105624
0
LINE
8
planet3
10
25.921030
20
217.966939
11
25.788739
21
219.105624
0
LINE
8
planet3
10
26.155980
20
217.340935
11
25.921030
21
217.966939
0
LINE
8
planet3
10
27.462146
20
215.748146
11
26.155980
21
217.340935
0
LINE
8
planet3
10
28.539370
20
216.036806
11
27.462146
21
215.748146
0
LINE
8
planet3
10
28.874438
20
218.069306
11
28.539370
21
216.036806
0
LINE
8
planet3
10
28.764477
20
218.728858
11
28.874438
21
218.069306
0
LINE
8
planet3
10
28.309870
20
219.781343
11
28.764477
21
218.728858
0
LINE
8
planet3
10
30.110702
20
220.821048
11
28.309870
21
219.781343
0
LINE
8
planet3
10
30.795204
20
219.901067
11
30.110702
21
220.821048
0
LINE
8
planet3
10
31.311273
20
219.476411
11
30.795204
21
219.901067
0
LINE
8
planet3
10
33.239025
20
218.749998
11
31.311273
21
219.476411
0
LINE
8
planet3
10
34.027694
20
219.538667
11
33.239025
21
218.749998
0
LINE
8
planet3
10
33.301282
20
221.466419
11
34.027694
21
219.538667
0
LINE
8
planet3
10
32.876626
20
221.982488
11
33.301282
21
221.466419
0
LINE
8
planet3
10
31.956644
20
222.666991
11
32.876626
21
221.982488
0
LINE
8
planet3
10
32.996350
20
224.467822
11
31.956644
21
222.666991
0
LINE
8
planet3
10
34.048834
20
224.013216
11
32.996350
21
224.467822
0
LINE
8
planet3
10
34.708387
20
223.903282
11
34.048834
21
224.013216
0
LINE
8
planet3
10
36.740913
20
224.238323
11
34.708387
21
223.903282
0
LINE
8
planet3
10
37.029494
20
225.315573
11
36.740913
21
224.238323
0
LINE
8
planet3
10
35.436784
20
226.621687
11
37.029494
21
225.315573
0
LINE
8
planet3
10
34.810780
20
226.856583
11
35.436784
21
226.621687
0
LINE
8
planet3
10
33.672068
20
226.989087
11
34.810780
21
226.856583
0
LINE
8
planet3
10
33.672068
20
229.068497
11
33.672068
21
226.989087
0
LINE
8
planet3
10
34.810780
20
229.201027
11
33.672068
21
229.068497
0
LINE
8
planet3
10
35.436784
20
229.435897
11
34.810780
21
229.201027
0
LINE
8
planet3
10
37.029494
20
230.742011
11
35.436784
21
229.435897
0
LINE
8
planet3
10
36.740913
20
231.819261
11
37.029494
21
230.742011
0
LINE
8
planet3
10
34.708387
20
232.154329
11
36.740913
21
231.819261
0
LINE
8
planet3
10
34.048834
20
232.044368
11
34.708387
21
232.154329
0
LINE
8
planet3
10
32.996350
20
231.589762
11
34.048834
21
232.044368
0
LINE
8
planet3
10
31.956644
20
233.390593
11
32.996350
21
231.589762
0
LINE
8
planet3
10
32.876626
20
234.075096
11
31.956644
21
233.390593
0
LINE
8
planet3
10
33.301282
20
234.591165
11
32.876626
21
234.075096
0
LINE
8
planet3
10
34.027694
20
236.518916
11
33.301282
21
234.591165
0
LINE
8
planet3
10
33.239025
20
237.307585
11
34.027694
21
236.518916
0
LINE
8
planet3
10
31.311273
20
236.581173
11
33.239025
21
237.307585
0
LINE
8
planet3
10
30.795204
20
236.156517
11
31.311273
21
236.581173
0
LINE
8
planet3
10
30.110702
20
235.236536
11
30.795204
21
236.156517
0
LINE
8
planet3
10
28.309870
20
236.276241
11
30.110702
21
235.236536
0
LINE
8
planet3
10
28.764477
20
237.328726
11
28.309870
21
236.276241
0
LINE
8
planet3
10
28.874438
20
237.988278
11
28.764477
21
237.328726
0
LINE
8
planet3
10
28.539370
20
240.020805
11
28.874438
21
237.988278
0
LINE
8
planet3
10
27.462146
20
240.309385
11
28.539370
21
240.020805
0
LINE
8
planet3
10
26.155980
20
238.716675
11
27.462146
21
240.309385
0
LINE
8
planet3
10
25.921030
20
238.090672
11
26.155980
21
238.716675
0
LINE
8
planet3
10
25.788739
20
236.951959
11
25.921030
21
238.090672
0
LINE
8
planet3
10
23.709116
20
236.951959
11
25.788739
21
236.951959
0
LINE
8
planet3
10
23.576560
20
238.090672
11
23.709116
21
236.951959
0
LINE
8
planet3
10
23.341875
20
238.716675
11
23.576560
21
238.090672
0
LINE
8
planet3
10
22.035629
20
240.309385
11
23.341875
21
238.716675
0
LINE
8
planet3
10
20.958511
20
240.020805
11
22.035629
21
240.309385
0
LINE
8
planet3
10
20.623285
20
237.988278
11
20.958511
21
240.020805
0
LINE
8
planet3
10
20.733351
20
237.328726
11
20.623285
21
237.988278
0
LINE
8
planet3
10
21.187905
20
236.276241
11
20.733351
21
237.328726
0
LINE
8
planet3
10
19.387153
20
235.236536
11
21.187905
21
236.276241
0
LINE
8
planet3
10
18.702677
20
236.156517
11
19.387153
21
235.236536
0
LINE
8
planet3
10
18.186475
20
236.581173
11
18.702677
21
236.156517
0
LINE
8
planet3
10
16.258724
20
237.307585
11
18.186475
21
236.581173
0
LINE
8
planet3
10
15.470002
20
236.518916
11
16.258724
21
237.307585
0
LINE
8
planet3
10
16.196547
20
234.591165
11
15.470002
21
236.518916
0
LINE
8
planet3
10
16.621202
20
234.075096
11
16.196547
21
234.591165
0
LINE
8
planet3
10
17.541157
20
233.390593
11
16.621202
21
234.075096
0
LINE
8
planet3
10
26.748902
20
228.028445
11
26.480953
21
229.028444
0
LINE
8
planet3
10
26.480953
20
229.028444
11
25.748903
21
229.760494
0
LINE
8
planet3
10
25.748903
20
229.760494
11
24.748904
21
230.028443
0
LINE
8
planet3
10
24.748904
20
230.028443
11
23.748906
21
229.760494
0
LINE
8
planet3
10
23.748906
20
229.760494
11
23.016856
21
229.028444
0
LINE
8
planet3
10
23.016856
20
229.028444
11
22.748907
21
228.028445
0
LINE
8
planet3
10
22.748907
20
228.028445
11
23.016856
21
227.028446
0
LINE
8
planet3
10
23.016856
20
227.028446
11
23.748906
21
226.296397
0
LINE
8
planet3
10
23.748906
20
226.296397
11
24.748904
21
226.028448
0
LINE
8
planet3
10
24.748904
20
226.028448
11
25.748903
21
226.296397
0
LINE
8
planet3
10
25.748903
20
226.296397
11
26.480953
21
227.028446
0
LINE
8
planet3
10
26.480953
20
227.028446
11
26.748902
21
228.028445
0
LINE
8
planet3
10
26.748902
20
228.028445
11
26.748902
21
228.028445
0
LINE
8
planet2
10
81.856257
20
219.121605
11
79.776635
21
219.121605
0
LINE
8
planet2
10
81.988813
20
217.982814
11
81.856257
21
219.121605
0
LINE
8
planet2
10
82.223234
20
217.356546
11
81.988813
21
217.982814
0
LINE
8
planet2
10
83.529745
20
215.764021
11
82.223234
21
217.356546
0
LINE
8
planet2
10
84.606862
20
216.052681
11
83.529745
21
215.764021
0
LINE
8
planet2
10
84.941560
20
218.085048
11
84.606862
21
216.052681
0
LINE
8
planet2
10
84.832022
20
218.744654
11
84.941560
21
218.085048
0
LINE
8
planet2
10
84.377469
20
219.797033
11
84.832022
21
218.744654
0
LINE
8
planet2
10
86.178221
20
220.836738
11
84.377469
21
219.797033
0
LINE
8
planet2
10
86.862432
20
219.916862
11
86.178221
21
220.836738
0
LINE
8
planet2
10
87.378898
20
219.492154
11
86.862432
21
219.916862
0
LINE
8
planet2
10
89.306385
20
218.765900
11
87.378898
21
219.492154
0
LINE
8
planet2
10
90.095107
20
219.554437
11
89.306385
21
218.765900
0
LINE
8
planet2
10
89.368827
20
221.482188
11
90.095107
21
219.554437
0
LINE
8
planet2
10
88.943907
20
221.998390
11
89.368827
21
221.482188
0
LINE
8
planet2
10
88.023952
20
222.682575
11
88.943907
21
221.998390
0
LINE
8
planet2
10
89.063763
20
224.483406
11
88.023952
21
222.682575
0
LINE
8
planet2
10
90.116539
20
224.028932
11
89.063763
21
224.483406
0
LINE
8
planet2
10
90.775615
20
223.919183
11
90.116539
21
224.028932
0
LINE
8
planet2
10
92.808406
20
224.253986
11
90.775615
21
223.919183
0
LINE
8
planet2
10
93.097066
20
225.331315
11
92.808406
21
224.253986
0
LINE
8
planet2
10
91.504012
20
226.637615
11
93.097066
21
225.331315
0
LINE
8
planet2
10
90.878273
20
226.872194
11
91.504012
21
226.637615
0
LINE
8
planet2
10
89.739243
20
227.004988
11
90.878273
21
226.872194
0
LINE
8
planet2
10
89.739243
20
229.084425
11
89.739243
21
227.004988
0
LINE
8
planet2
10
90.878008
20
229.216981
11
89.739243
21
229.084425
0
LINE
8
planet2
10
91.504276
20
229.451534
11
90.878008
21
229.216981
0
LINE
8
planet2
10
93.097066
20
230.757966
11
91.504276
21
229.451534
0
LINE
8
planet2
10
92.808141
20
231.835162
11
93.097066
21
230.757966
0
LINE
8
planet2
10
90.775879
20
232.169939
11
92.808141
21
231.835162
0
LINE
8
planet2
10
90.116274
20
232.060349
11
90.775879
21
232.169939
0
LINE
8
planet2
10
89.063763
20
231.605742
11
90.116274
21
232.060349
0
LINE
8
planet2
10
88.024216
20
233.406600
11
89.063763
21
231.605742
0
LINE
8
planet2
10
88.944171
20
234.090706
11
88.024216
21
233.406600
0
LINE
8
planet2
10
89.368827
20
234.607119
11
88.944171
21
234.090706
0
LINE
8
planet2
10
90.095107
20
236.534606
11
89.368827
21
234.607119
0
LINE
8
planet2
10
89.306385
20
237.323222
11
90.095107
21
236.534606
0
LINE
8
planet2
10
87.378634
20
236.597154
11
89.306385
21
237.323222
0
LINE
8
planet2
10
86.862432
20
236.172128
11
87.378634
21
236.597154
0
LINE
8
planet2
10
86.178485
20
235.252199
11
86.862432
21
236.172128
0
LINE
8
planet2
10
84.377469
20
236.291904
11
86.178485
21
235.252199
0
LINE
8
planet2
10
84.832022
20
237.344706
11
84.377469
21
236.291904
0
LINE
8
planet2
10
84.941824
20
238.003941
11
84.832022
21
237.344706
0
LINE
8
planet2
10
84.606862
20
240.036653
11
84.941824
21
238.003941
0
LINE
8
planet2
10
83.529480
20
240.325313
11
84.606862
21
240.036653
0
LINE
8
planet2
10
82.223234
20
238.732365
11
83.529480
21
240.325313
0
LINE
8
planet2
10
81.988813
20
238.106547
11
82.223234
21
238.732365
0
LINE
8
planet2
10
81.855993
20
236.967570
11
81.988813
21
238.106547
0
LINE
8
planet2
10
79.776370
20
236.967570
11
81.855993
21
236.967570
0
LINE
8
planet2
10
79.643814
20
238.106362
11
79.776370
21
236.967570
0
LINE
8
planet2
10
79.409394
20
238.732524
11
79.643814
21
238.106362
0
LINE
8
planet2
10
78.102962
20
240.325208
11
79.409394
21
238.732524
0
LINE
8
planet2
10
77.025765
20
240.036495
11
78.102962
21
240.325208
0
LINE
8
planet2
10
76.690962
20
238.004127
11
77.025765
21
240.036495
0
LINE
8
planet2
10
76.800579
20
237.344521
11
76.690962
21
238.004127
0
LINE
8
planet2
10
77.255159
20
236.292142
11
76.800579
21
237.344521
0
LINE
8
planet2
10
75.454328
20
235.252411
11
77.255159
21
236.292142
0
LINE
8
planet2
10
74.770222
20
236.172313
11
75.454328
21
235.252411
0
LINE
8
planet2
10
74.253809
20
236.597021
11
74.770222
21
236.172313
0
LINE
8
planet2
10
72.326322
20
237.323275
11
74.253809
21
236.597021
0
LINE
8
planet2
10
71.537679
20
236.534739
11
72.326322
21
237.323275
0
LINE
8
planet2
10
72.263774
20
234.606987
11
71.537679
21
236.534739
0
LINE
8
planet2
10
72.688774
20
234.090785
11
72.263774
21
234.606987
0
LINE
8
planet2
10
73.608702
20
233.406600
11
72.688774
21
234.090785
0
LINE
8
planet2
10
72.568997
20
231.605769
11
73.608702
21
233.406600
0
LINE
8
planet2
10
71.516221
20
232.060243
11
72.568997
21
231.605769
0
LINE
8
planet2
10
70.856960
20
232.169992
11
71.516221
21
232.060243
0
LINE
8
planet2
10
68.824275
20
231.835189
11
70.856960
21
232.169992
0
LINE
8
planet2
10
68.535614
20
230.757860
11
68.824275
21
231.835189
0
LINE
8
planet2
10
70.128563
20
229.451561
11
68.535614
21
230.757860
0
LINE
8
planet2
10
70.754381
20
229.216981
11
70.128563
21
229.451561
0
LINE
8
planet2
10
71.893331
20
229.084161
11
70.754381
21
229.216981
0
LINE
8
planet2
10
71.893331
20
227.004750
11
71.893331
21
229.084161
0
LINE
8
planet2
10
70.754566
20
226.872194
11
71.893331
21
227.004750
0
LINE
8
planet2
10
70.128404
20
226.637641
11
70.754566
21
226.872194
0
LINE
8
planet2
10
68.535694
20
225.331210
11
70.128404
21
226.637641
0
LINE
8
planet2
10
68.824407
20
224.254013
11
68.535694
21
225.331210
0
LINE
8
planet2
10
70.856801
20
223.919236
11
68.824407
21
224.254013
0
LINE
8
planet2
10
71.516380
20
224.028826
11
70.856801
21
223.919236
0
LINE
8
planet2
10
72.568785
20
224.483433
11
71.516380
21
224.028826
0
LINE
8
planet2
10
73.608491
20
222.682575
11
72.568785
21
224.483433
0
LINE
8
planet2
10
72.688615
20
221.998469
11
73.608491
21
222.682575
0
LINE
8
planet2
10
72.263906
20
221.482056
11
72.688615
21
221.998469
0
LINE
8
planet2
10
71.537653
20
219.554569
11
72.263906
21
221.482056
0
LINE
8
planet2
10
72.326163
20
218.765953
11
71.537653
21
219.554569
0
LINE
8
planet2
10
74.253915
20
219.492021
11
72.326163
21
218.765953
0
LINE
8
planet2
10
74.770116
20
219.917021
11
74.253915
21
219.492021
0
LINE
8
planet2
10
75.454301
20
220.836976
11
74.770116
21
219.917021
0
LINE
8
planet2
10
77.255132
20
219.797244
11
75.454301
21
220.836976
0
LINE
8
planet2
10
76.800658
20
218.744469
11
77.255132
21
219.797244
0
LINE
8
planet2
10
76.690936
20
218.085207
11
76.800658
21
218.744469
0
LINE
8
planet2
10
77.025739
20
216.052416
11
76.690936
21
218.085207
0
LINE
8
planet2
10
78.103068
20
215.763756
11
77.025739
21
216.052416
0
LINE
8
planet2
10
79.409394
20
217.356810
11
78.103068
21
215.763756
0
LINE
8
planet2
10
79.643814
20
217.982628
11
79.409394
21
217.356810
0
LINE
8
planet2
10
79.776635
20
219.121605
11
79.643814
21
217.982628
0
LINE
8
planet2
10
82.815712
20
228.047233
11
82.547763
21
229.047232
0
LINE
8
planet2
10
82.547763
20
229.047232
11
81.815713
21
229.779282
0
LINE
8
planet2
10
81.815713
20
229.779282
11
80.815715
21
230.047231
0
LINE
8
planet2
10
80.815715
20
230.047231
11
79.815716
21
229.779282
0
LINE
8
planet2
10
79.815716
20
229.779282
11
79.083666
21
229.047232
0
LINE
8
planet2
10
79.083666
20
229.047232
11
78.815717
21
228.047233
0
LINE
8
planet2
10
78.815717
20
228.047233
11
79.083666
21
227.047235
0
LINE
8
planet2
10
79.083666
20
227.047235
11
79.815716
21
226.315185
0
LINE
8
planet2
10
79.815716
20
226.315185
11
80.815715
21
226.047236
0
LINE
8
planet2
10
80.815715
20
226.047236
11
81.815713
21
226.315185
0
LINE
8
planet2
10
81.815713
20
226.315185
11
82.547763
21
227.047235
0
LINE
8
planet2
10
82.547763
20
227.047235
11
82.815712
21
228.047233
0
LINE
8
planet2
10
82.815712
20
228.047233
11
82.815712
21
228.047233
0
LINE
8
planet1
10
59.976566
20
281.954486
11
61.016271
21
280.153734
0
LINE
8
planet1
10
60.896495
20
282.638697
11
59.976566
21
281.954486
0
LINE
8
planet1
10
61.321494
20
283.154899
11
60.896495
21
282.638697
0
LINE
8
planet1
10
62.047590
20
285.082651
11
61.321494
21
283.154899
0
LINE
8
planet1
10
61.258947
20
285.871108
11
62.047590
21
285.082651
0
LINE
8
planet1
10
59.331460
20
285.144828
11
61.258947
21
285.871108
0
LINE
8
planet1
10
58.815047
20
284.720172
11
59.331460
21
285.144828
0
LINE
8
planet1
10
58.130941
20
283.800217
11
58.815047
21
284.720172
0
LINE
8
planet1
10
56.330110
20
284.840028
11
58.130941
21
283.800217
0
LINE
8
planet1
10
56.784690
20
285.892539
11
56.330110
21
284.840028
0
LINE
8
planet1
10
56.894306
20
286.552145
11
56.784690
21
285.892539
0
LINE
8
planet1
10
56.559503
20
288.584407
11
56.894306
21
286.552145
0
LINE
8
planet1
10
55.482306
20
288.873067
11
56.559503
21
288.584407
0
LINE
8
planet1
10
54.175875
20
287.280542
11
55.482306
21
288.873067
0
LINE
8
planet1
10
53.941327
20
286.654274
11
54.175875
21
287.280542
0
LINE
8
planet1
10
53.808782
20
285.515508
11
53.941327
21
286.654274
0
LINE
8
planet1
10
51.729353
20
285.515508
11
53.808782
21
285.515508
0
LINE
8
planet1
10
51.596550
20
286.654538
11
51.729353
21
285.515508
0
LINE
8
planet1
10
51.361961
20
287.280277
11
51.596550
21
286.654538
0
LINE
8
planet1
10
50.055683
20
288.873331
11
51.361961
21
287.280277
0
LINE
8
planet1
10
48.978327
20
288.584671
11
50.055683
21
288.873331
0
LINE
8
planet1
10
48.643550
20
286.551880
11
48.978327
21
288.584671
0
LINE
8
planet1
10
48.753273
20
285.892539
11
48.643550
21
286.551880
0
LINE
8
planet1
10
49.207747
20
284.839763
11
48.753273
21
285.892539
0
LINE
8
planet1
10
47.406916
20
283.800217
11
49.207747
21
284.839763
0
LINE
8
planet1
10
46.722730
20
284.720172
11
47.406916
21
283.800217
0
LINE
8
planet1
10
46.206529
20
285.145092
11
46.722730
21
284.720172
0
LINE
8
planet1
10
44.278777
20
285.871108
11
46.206529
21
285.145092
0
LINE
8
planet1
10
43.490267
20
285.082651
11
44.278777
21
285.871108
0
LINE
8
planet1
10
44.216521
20
283.155164
11
43.490267
21
285.082651
0
LINE
8
planet1
10
44.641230
20
282.638697
11
44.216521
21
283.155164
0
LINE
8
planet1
10
45.561105
20
281.954486
11
44.641230
21
282.638697
0
LINE
8
planet1
10
44.521400
20
280.153734
11
45.561105
21
281.954486
0
LINE
8
planet1
10
43.468995
20
280.608288
11
44.521400
21
280.153734
0
LINE
8
planet1
10
42.809416
20
280.717825
11
43.468995
21
280.608288
0
LINE
8
planet1
10
40.777021
20
280.383127
11
42.809416
21
280.717825
0
LINE
8
planet1
10
40.488308
20
279.306010
11
40.777021
21
280.383127
0
LINE
8
planet1
10
42.081019
20
277.999499
11
40.488308
21
279.306010
0
LINE
8
planet1
10
42.707181
20
277.764814
11
42.081019
21
277.999499
0
LINE
8
planet1
10
43.845946
20
277.632258
11
42.707181
21
277.764814
0
LINE
8
planet1
10
43.845946
20
275.552900
11
43.845946
21
277.632258
0
LINE
8
planet1
10
42.706969
20
275.420080
11
43.845946
21
275.552900
0
LINE
8
planet1
10
42.081177
20
275.185394
11
42.706969
21
275.420080
0
LINE
8
planet1
10
40.488203
20
273.879148
11
42.081177
21
275.185394
0
LINE
8
planet1
10
40.776889
20
272.802031
11
40.488203
21
273.879148
0
LINE
8
planet1
10
42.809574
20
272.467069
11
40.776889
21
272.802031
0
LINE
8
planet1
10
43.468836
20
272.576871
11
42.809574
21
272.467069
0
LINE
8
planet1
10
44.521612
20
273.031424
11
43.468836
21
272.576871
0
LINE
8
planet1
10
45.561317
20
271.230408
11
44.521612
21
273.031424
0
LINE
8
planet1
10
44.641388
20
270.546302
11
45.561317
21
271.230408
0
LINE
8
planet1
10
44.216389
20
270.030100
11
44.641388
21
270.546302
0
LINE
8
planet1
10
43.490294
20
268.102348
11
44.216389
21
270.030100
0
LINE
8
planet1
10
44.278910
20
267.313811
11
43.490294
21
268.102348
0
LINE
8
planet1
10
46.206397
20
268.040065
11
44.278910
21
267.313811
0
LINE
8
planet1
10
46.722836
20
268.464774
11
46.206397
21
268.040065
0
LINE
8
planet1
10
47.406942
20
269.384676
11
46.722836
21
268.464774
0
LINE
8
planet1
10
49.207773
20
268.344971
11
47.406942
21
269.384676
0
LINE
8
planet1
10
48.753193
20
267.292565
11
49.207773
21
268.344971
0
LINE
8
planet1
10
48.643577
20
266.632960
11
48.753193
21
267.292565
0
LINE
8
planet1
10
48.978380
20
264.600592
11
48.643577
21
266.632960
0
LINE
8
planet1
10
50.055577
20
264.311879
11
48.978380
21
264.600592
0
LINE
8
planet1
10
51.362003
20
265.904563
11
50.055577
21
264.311879
0
LINE
8
planet1
10
51.596553
20
266.530725
11
51.362003
21
265.904563
0
LINE
8
planet1
10
51.729099
20
267.669517
11
51.596553
21
266.530725
0
LINE
8
planet1
10
53.808528
20
267.669517
11
51.729099
21
267.669517
0
LINE
8
planet1
10
53.941327
20
266.530540
11
53.808528
21
267.669517
0
LINE
8
planet1
10
54.175920
20
265.904748
11
53.941327
21
266.530540
0
LINE
8
planet1
10
55.482200
20
264.311773
11
54.175920
21
265.904748
0
LINE
8
planet1
10
56.559556
20
264.600460
11
55.482200
21
264.311773
0
LINE
8
planet1
10
56.894333
20
266.633145
11
56.559556
21
264.600460
0
LINE
8
planet1
10
56.784610
20
267.292406
11
56.894333
21
266.633145
0
LINE
8
planet1
10
56.330136
20
268.345182
11
56.784610
21
267.292406
0
LINE
8
planet1
10
58.130967
20
269.384888
11
56.330136
21
268.345182
0
LINE
8
planet1
10
58.815153
20
268.464959
11
58.130967
21
269.384888
0
LINE
8
planet1
10
59.331354
20
268.039959
11
58.815153
21
268.464959
0
LINE
8
planet1
10
61.259106
20
267.313864
11
59.331354
21
268.039959
0
LINE
8
planet1
10
62.047616
20
268.102480
11
61.259106
21
267.313864
0
LINE
8
planet1
10
61.321362
20
270.029967
11
62.047616
21
268.102480
0
LINE
8
planet1
10
60.896653
20
270.546408
11
61.321362
21
270.029967
0
LINE
8
planet1
10
59.976778
20
271.230408
11
60.896653
21
270.546408
0
LINE
8
planet1
10
61.016483
20
273.031424
11
59.976778
21
271.230408
0
LINE
8
planet1
10
62.068888
20
272.576871
11
61.016483
21
273.031424
0
LINE
8
planet1
10
62.728467
20
272.467069
11
62.068888
21
272.576871
0
LINE
8
planet1
10
64.760862
20
272.802031
11
62.728467
21
272.467069
0
LINE
8
planet1
10
65.049575
20
273.879148
11
64.760862
21
272.802031
0
LINE
8
planet1
10
63.456864
20
275.185659
11
65.049575
21
273.879148
0
LINE
8
planet1
10
62.830702
20
275.420080
11
63.456864
21
275.185659
0
LINE
8
planet1
10
61.691937
20
275.552636
11
62.830702
21
275.420080
0
LINE
8
planet1
10
61.691937
20
277.631993
11
61.691937
21
275.552636
0
LINE
8
planet1
10
62.830914
20
277.764814
11
61.691937
21
277.631993
0
LINE
8
planet1
10
63.456706
20
277.999499
11
62.830914
21
277.764814
0
LINE
8
planet1
10
65.049681
20
279.305745
11
63.456706
21
277.999499
0
LINE
8
planet1
10
64.760994
20
280.383127
11
65.049681
21
279.305745
0
LINE
8
planet1
10
62.728309
20
280.717825
11
64.760994
21
280.383127
0
LINE
8
planet1
10
62.069047
20
280.608288
11
62.728309
21
280.717825
0
LINE
8
planet1
10
61.016271
20
280.153734
11
62.069047
21
280.608288
0
LINE
8
planet1
10
54.770044
20
276.592629
11
54.612665
21
277.370885
0
LINE
8
planet1
10
54.612665
20
277.370885
11
54.184001
21
278.006371
0
LINE
8
planet1
10
54.184001
20
278.006371
11
53.548359
21
278.434803
0
LINE
8
planet1
10
53.548359
20
278.434803
11
52.770046
21
278.591899
0
LINE
8
planet1
10
52.770046
20
278.591899
11
51.991733
21
278.434803
0
LINE
8
planet1
10
51.991733
20
278.434803
11
51.356092
21
278.006371
0
LINE
8
planet1
10
51.356092
20
278.006371
11
50.927428
21
277.370885
0
LINE
8
planet1
10
50.927428
20
277.370885
11
50.770049
21
276.592629
0
LINE
8
planet1
10
50.770049
20
276.592629
11
50.927428
21
275.814374
0
LINE
8
planet1
10
50.927428
20
275.814374
11
51.356092
21
275.178888
0
LINE
8
planet1
10
51.356092
20
275.178888
11
51.991733
21
274.750455
0
LINE
8
planet1
10
51.991733
20
274.750455
11
52.770046
21
274.593359
0
LINE
8
planet1
10
52.770046
20
274.593359
11
53.548359
21
274.750455
0
LINE
8
planet1
10
53.548359
20
274.750455
11
54.184001
21
275.178888
0
LINE
8
planet1
10
54.184001
20
275.178888
11
54.612665
21
275.814374
0
LINE
8
planet1
10
54.612665
20
275.814374
11
54.770044
21
276.592629
0
LINE
8
planet1
10
54.770044
20
276.592629
11
54.770044
21
276.592629
0
LINE
8
sun
10
72.211122
20
247.800921
11
72.471631
21
245.820842
0
LINE
8
sun
10
72.699384
20
247.890376
11
72.211122
21
247.800921
0
LINE
8
sun
10
73.917735
20
248.440709
11
72.699384
21
247.890376
0
LINE
8
sun
10
75.490840
20
249.656521
11
73.917735
21
248.440709
0
LINE
8
sun
10
75.158101
20
250.898288
11
75.490840
21
249.656521
0
LINE
8
sun
10
73.187910
20
251.164723
11
75.158101
21
250.898288
0
LINE
8
sun
10
71.857507
20
251.032061
11
73.187910
21
251.164723
0
LINE
8
sun
10
71.389856
20
250.865559
11
71.857507
21
251.032061
0
LINE
8
sun
10
70.625609
20
252.710444
11
71.389856
21
250.865559
0
LINE
8
sun
10
71.074050
20
252.923512
11
70.625609
21
252.710444
0
LINE
8
sun
10
72.108676
20
253.770178
11
71.074050
21
252.923512
0
LINE
8
sun
10
73.313216
20
255.351749
11
72.108676
21
253.770178
0
LINE
8
sun
10
72.670597
20
256.465114
11
73.313216
21
255.351749
0
LINE
8
sun
10
70.698713
20
256.212544
11
72.670597
21
256.465114
0
LINE
8
sun
10
69.447897
20
255.740104
11
70.698713
21
256.212544
0
LINE
8
sun
10
69.039248
20
255.458164
11
69.447897
21
255.740104
0
LINE
8
sun
10
67.823436
20
257.042540
11
69.039248
21
255.458164
0
LINE
8
sun
10
68.201605
20
257.364273
11
67.823436
21
257.042540
0
LINE
8
sun
10
68.981675
20
258.449990
11
68.201605
21
257.364273
0
LINE
8
sun
10
69.736054
20
260.289503
11
68.981675
21
258.449990
0
LINE
8
sun
10
68.827000
20
261.198557
11
69.736054
21
260.289503
0
LINE
8
sun
10
66.987486
20
260.444178
11
68.827000
21
261.198557
0
LINE
8
sun
10
65.901770
20
259.664108
11
66.987486
21
260.444178
0
LINE
8
sun
10
65.580037
20
259.285940
11
65.901770
21
259.664108
0
LINE
8
sun
10
63.995661
20
260.501751
11
65.580037
21
259.285940
0
LINE
8
sun
10
64.277601
20
260.910400
11
63.995661
21
260.501751
0
LINE
8
sun
10
64.750040
20
262.161216
11
64.277601
21
260.910400
0
LINE
8
sun
10
65.002611
20
264.133100
11
64.750040
21
262.161216
0
LINE
8
sun
10
63.889246
20
264.775719
11
65.002611
21
264.133100
0
LINE
8
sun
10
62.307675
20
263.571179
11
63.889246
21
264.775719
0
LINE
8
sun
10
61.461009
20
262.536553
11
62.307675
21
263.571179
0
LINE
8
sun
10
61.247940
20
262.088112
11
61.461009
21
262.536553
0
LINE
8
sun
10
59.403056
20
262.852360
11
61.247940
21
262.088112
0
LINE
8
sun
10
59.569558
20
263.320010
11
59.403056
21
262.852360
0
LINE
8
sun
10
59.702220
20
264.650413
11
59.569558
21
263.320010
0
LINE
8
sun
10
59.435785
20
266.620604
11
59.702220
21
264.650413
0
LINE
8
sun
10
58.194017
20
266.953343
11
59.435785
21
266.620604
0
LINE
8
sun
10
56.978206
20
265.380239
11
58.194017
21
266.953343
0
LINE
8
sun
10
56.427873
20
264.161887
11
56.978206
21
265.380239
0
LINE
8
sun
10
56.338418
20
263.673625
11
56.427873
21
264.161887
0
LINE
8
sun
10
54.358339
20
263.934134
11
56.338418
21
263.673625
0
LINE
8
sun
10
54.398133
20
264.429142
11
54.358339
21
263.934134
0
LINE
8
sun
10
54.181952
20
265.748538
11
54.398133
21
264.429142
0
LINE
8
sun
10
53.414590
20
267.582416
11
54.181952
21
265.748538
0
LINE
8
sun
10
52.129352
20
267.582416
11
53.414590
21
267.582416
0
LINE
8
sun
10
51.361990
20
265.748538
11
52.129352
21
267.582416
0
LINE
8
sun
10
51.145809
20
264.429142
11
51.361990
21
265.748538
0
LINE
8
sun
10
51.185603
20
263.934134
11
51.145809
21
264.429142
0
LINE
8
sun
10
49.205524
20
263.673625
11
51.185603
21
263.934134
0
LINE
8
sun
10
49.116069
20
264.161887
11
49.205524
21
263.673625
0
LINE
8
sun
10
48.565736
20
265.380239
11
49.116069
21
264.161887
0
LINE
8
sun
10
47.349924
20
266.953343
11
48.565736
21
265.380239
0
LINE
8
sun
10
46.108157
20
266.620604
11
47.349924
21
266.953343
0
LINE
8
sun
10
45.841722
20
264.650413
11
46.108157
21
266.620604
0
LINE
8
sun
10
45.974384
20
263.320010
11
45.841722
21
264.650413
0
LINE
8
sun
10
46.140886
20
262.852360
11
45.974384
21
263.320010
0
LINE
8
sun
10
44.296002
20
262.088112
11
46.140886
21
262.852360
0
LINE
8
sun
10
44.082933
20
262.536553
11
44.296002
21
262.088112
0
LINE
8
sun
10
43.236267
20
263.571179
11
44.082933
21
262.536553
0
LINE
8
sun
10
41.654696
20
264.775719
11
43.236267
21
263.571179
0
LINE
8
sun
10
40.541331
20
264.133100
11
41.654696
21
264.775719
0
LINE
8
sun
10
40.793902
20
262.161216
11
40.541331
21
264.133100
0
LINE
8
sun
10
41.266341
20
260.910400
11
40.793902
21
262.161216
0
LINE
8
sun
10
41.548281
20
260.501751
11
41.266341
21
260.910400
0
LINE
8
sun
10
39.963905
20
259.285940
11
41.548281
21
260.501751
0
LINE
8
sun
10
39.642172
20
259.664108
11
39.963905
21
259.285940
0
LINE
8
sun
10
38.556456
20
260.444178
11
39.642172
21
259.664108
0
LINE
8
sun
10
36.716942
20
261.198557
11
38.556456
21
260.444178
0
LINE
8
sun
10
35.807888
20
260.289503
11
36.716942
21
261.198557
0
LINE
8
sun
10
36.562267
20
258.449990
11
35.807888
21
260.289503
0
LINE
8
sun
10
37.342337
20
257.364273
11
36.562267
21
258.449990
0
LINE
8
sun
10
37.720506
20
257.042540
11
37.342337
21
257.364273
0
LINE
8
sun
10
36.504694
20
255.458164
11
37.720506
21
257.042540
0
LINE
8
sun
10
36.096045
20
255.740104
11
36.504694
21
255.458164
0
LINE
8
sun
10
34.845229
20
256.212544
11
36.096045
21
255.740104
0
LINE
8
sun
10
32.873345
20
256.465114
11
34.845229
21
256.212544
0
LINE
8
sun
10
32.230726
20
255.351749
11
32.873345
21
256.465114
0
LINE
8
sun
10
33.435266
20
253.770178
11
32.230726
21
255.351749
0
LINE
8
sun
10
34.469892
20
252.923512
11
33.435266
21
253.770178
0
LINE
8
sun
10
34.918333
20
252.710444
11
34.469892
21
252.923512
0
LINE
8
sun
10
34.154085
20
250.865559
11
34.918333
21
252.710444
0
LINE
8
sun
10
33.686435
20
251.032061
11
34.154085
21
250.865559
0
LINE
8
sun
10
32.356032
20
251.164723
11
33.686435
21
251.032061
0
LINE
8
sun
10
30.385841
20
250.898288
11
32.356032
21
251.164723
0
LINE
8
sun
10
30.053102
20
249.656521
11
30.385841
21
250.898288
0
LINE
8
sun
10
31.626207
20
248.440709
11
30.053102
21
249.656521
0
LINE
8
sun
10
32.844558
20
247.890376
11
31.626207
21
248.440709
0
LINE
8
sun
10
33.332820
20
247.800921
11
32.844558
21
247.890376
0
LINE
8
sun
10
33.072311
20
245.820842
11
33.332820
21
247.800921
0
LINE
8
sun
10
32.577303
20
245.860636
11
33.072311
21
245.820842
0
LINE
8
sun
10
31.257907
20
245.644456
11
32.577303
21
245.860636
0
LINE
8
sun
10
29.424029
20
244.877093
11
31.257907
21
245.644456
0
LINE
8
sun
10
29.424029
20
243.591855
11
29.424029
21
244.877093
0
LINE
8
sun
10
31.257907
20
242.824493
11
29.424029
21
243.591855
0
LINE
8
sun
10
32.577303
20
242.608313
11
31.257907
21
242.824493
0
LINE
8
sun
10
33.072311
20
242.648106
11
32.577303
21
242.608313
0
LINE
8
sun
10
33.332820
20
240.668028
11
33.072311
21
242.648106
0
LINE
8
sun
10
32.844558
20
240.578572
11
33.332820
21
240.668028
0
LINE
8
sun
10
31.626207
20
240.028240
11
32.844558
21
240.578572
0
LINE
8
sun
10
30.053102
20
238.812428
11
31.626207
21
240.028240
0
LINE
8
sun
10
30.385841
20
237.570660
11
30.053102
21
238.812428
0
LINE
8
sun
10
32.356032
20
237.304225
11
30.385841
21
237.570660
0
LINE
8
sun
10
33.686435
20
237.436887
11
32.356032
21
237.304225
0
LINE
8
sun
10
34.154085
20
237.603389
11
33.686435
21
237.436887
0
LINE
8
sun
10
34.918333
20
235.758505
11
34.154085
21
237.603389
0
LINE
8
sun
10
34.469892
20
235.545436
11
34.918333
21
235.758505
0
LINE
8
sun
10
33.435266
20
234.698771
11
34.469892
21
235.545436
0
LINE
8
sun
10
32.230726
20
233.117199
11
33.435266
21
234.698771
0
LINE
8
sun
10
32.873345
20
232.003834
11
32.230726
21
233.117199
0
LINE
8
sun
10
34.845229
20
232.256405
11
32.873345
21
232.003834
0
LINE
8
sun
10
36.096045
20
232.728844
11
34.845229
21
232.256405
0
LINE
8
sun
10
36.504694
20
233.010784
11
36.096045
21
232.728844
0
LINE
8
sun
10
37.720506
20
231.426408
11
36.504694
21
233.010784
0
LINE
8
sun
10
37.342337
20
231.104675
11
37.720506
21
231.426408
0
LINE
8
sun
10
36.562267
20
230.018959
11
37.342337
21
231.104675
0
LINE
8
sun
10
35.807888
20
228.179446
11
36.562267
21
230.018959
0
LINE
8
sun
10
36.716942
20
227.270391
11
35.807888
21
228.179446
0
LINE
8
sun
10
38.556456
20
228.024770
11
36.716942
21
227.270391
0
LINE
8
sun
10
39.642172
20
228.804840
11
38.556456
21
228.024770
0
LINE
8
sun
10
39.963905
20
229.183009
11
39.642172
21
228.804840
0
LINE
8
sun
10
41.548281
20
227.967197
11
39.963905
21
229.183009
0
LINE
8
sun
10
41.266341
20
227.558549
11
41.548281
21
227.967197
0
LINE
8
sun
10
40.793902
20
226.307732
11
41.266341
21
227.558549
0
LINE
8
sun
10
40.541331
20
224.335848
11
40.793902
21
226.307732
0
LINE
8
sun
10
41.654696
20
223.693229
11
40.541331
21
224.335848
0
LINE
8
sun
10
43.236267
20
224.897770
11
41.654696
21
223.693229
0
LINE
8
sun
10
44.082933
20
225.932395
11
43.236267
21
224.897770
0
LINE
8
sun
10
44.296002
20
226.380837
11
44.082933
21
225.932395
0
LINE
8
sun
10
46.140886
20
225.616589
11
44.296002
21
226.380837
0
LINE
8
sun
10
45.974384
20
225.148938
11
46.140886
21
225.616589
0
LINE
8
sun
10
45.841722
20
223.818536
11
45.974384
21
225.148938
0
LINE
8
sun
10
46.108157
20
221.848345
11
45.841722
21
223.818536
0
LINE
8
sun
10
47.349924
20
221.515605
11
46.108157
21
221.848345
0
LINE
8
sun
10
48.565736
20
223.088710
11
47.349924
21
221.515605
0
LINE
8
sun
10
49.116069
20
224.307062
11
48.565736
21
223.088710
0
LINE
8
sun
10
49.205524
20
224.795323
11
49.116069
21
224.307062
0
LINE
8
sun
10
51.185603
20
224.534815
11
49.205524
21
224.795323
0
LINE
8
sun
10
51.145809
20
224.039806
11
51.185603
21
224.534815
0
LINE
8
sun
10
51.361990
20
222.720410
11
51.145809
21
224.039806
0
LINE
8
sun
10
52.129352
20
220.886533
11
51.361990
21
222.720410
0
LINE
8
sun
10
53.414590
20
220.886533
11
52.129352
21
220.886533
0
LINE
8
sun
10
54.181952
20
222.720410
11
53.414590
21
220.886533
0
LINE
8
sun
10
54.398133
20
224.039806
11
54.181952
21
222.720410
0
LINE
8
sun
10
54.358339
20
224.534815
11
54.398133
21
224.039806
0
LINE
8
sun
10
56.338418
20
224.795323
11
54.358339
21
224.534815
0
LINE
8
sun
10
56.427873
20
224.307062
11
56.338418
21
224.795323
0
LINE
8
sun
10
56.978206
20
223.088710
11
56.427873
21
224.307062
0
LINE
8
sun
10
58.194017
20
221.515605
11
56.978206
21
223.088710
0
LINE
8
sun
10
59.435785
20
221.848345
11
58.194017
21
221.515605
0
LINE
8
sun
10
59.702220
20
223.818536
11
59.435785
21
221.848345
0
LINE
8
sun
10
59.569558
20
225.148938
11
59.702220
21
223.818536
0
LINE
8
sun
10
59.403056
20
225.616589
11
59.569558
21
225.148938
0
LINE
8
sun
10
61.247940
20
226.380837
11
59.403056
21
225.616589
0
LINE
8
sun
10
61.461009
20
225.932395
11
61.247940
21
226.380837
0
LINE
8
sun
10
62.307675
20
224.897770
11
61.461009
21
225.932395
0
LINE
8
sun
10
63.889246
20
223.693229
11
62.307675
21
224.897770
0
LINE
8
sun
10
65.002611
20
224.335848
11
63.889246
21
223.693229
0
LINE
8
sun
10
64.750040
20
226.307732
11
65.002611
21
224.335848
0
LINE
8
sun
10
64.277601
20
227.558549
11
64.750040
21
226.307732
0
LINE
8
sun
10
63.995661
20
227.967197
11
64.277601
21
227.558549
0
LINE
8
sun
10
65.580037
20
229.183009
11
63.995661
21
227.967197
0
LINE
8
sun
10
65.901770
20
228.804840
11
65.580037
21
229.183009
0
LINE
8
sun
10
66.987486
20
228.024770
11
65.901770
21
228.804840
0
LINE
8
sun
10
68.827000
20
227.270391
11
66.987486
21
228.024770
0
LINE
8
sun
10
69.736054
20
228.179446
11
68.827000
21
227.270391
0
LINE
8
sun
10
68.981675
20
230.018959
11
69.736054
21
228.179446
0
LINE
8
sun
10
68.201605
20
231.104675
11
68.981675
21
230.018959
0
LINE
8
sun
10
67.823436
20
231.426408
11
68.201605
21
231.104675
0
LINE
8
sun
10
69.039248
20
233.010784
11
67.823436
21
231.426408
0
LINE
8
sun
10
69.447897
20
232.728844
11
69.039248
21
233.010784
0
LINE
8
sun
10
70.698713
20
232.256405
11
69.447897
21
232.728844
0
LINE
8
sun
10
72.670597
20
232.003834
11
70.698713
21
232.256405
0
LINE
8
sun
10
73.313216
20
233.117199
11
72.670597
21
232.003834
0
LINE
8
sun
10
72.108676
20
234.698771
11
73.313216
21
233.117199
0
LINE
8
sun
10
71.074050
20
235.545436
11
72.108676
21
234.698771
0
LINE
8
sun
10
70.625609
20
235.758505
11
71.074050
21
235.545436
0
LINE
8
sun
10
71.389856
20
237.603389
11
70.625609
21
235.758505
0
LINE
8
sun
10
71.857507
20
237.436887
11
71.389856
21
237.603389
0
LINE
8
sun
10
73.187910
20
237.304225
11
71.857507
21
237.436887
0
LINE
8
sun
10
75.158101
20
237.570660
11
73.187910
21
237.304225
0
LINE
8
sun
10
75.490840
20
238.812428
11
75.158101
21
237.570660
0
LINE
8
sun
10
73.917735
20
240.028240
11
75.490840
21
238.812428
0
LINE
8
sun
10
72.699384
20
240.578572
11
73.917735
21
240.028240
0
LINE
8
sun
10
72.211122
20
240.668028
11
72.699384
21
240.578572
0
LINE
8
sun
10
72.471631
20
242.648106
11
72.211122
21
240.668028
0
LINE
8
sun
10
72.966639
20
242.608313
11
72.471631
21
242.648106
0
LINE
8
sun
10
74.286035
20
242.824493
11
72.966639
21
242.608313
0
LINE
8
sun
10
76.119913
20
243.591855
11
74.286035
21
242.824493
0
LINE
8
sun
10
76.119913
20
244.877093
11
76.119913
21
243.591855
0
LINE
8
sun
10
74.286035
20
245.644456
11
76.119913
21
244.877093
0
LINE
8
sun
10
72.966639
20
245.860636
11
74.286035
21
245.644456
0
LINE
8
sun
10
72.471631
20
245.820842
11
72.966639
21
245.860636
0
LINE
8
sun
10
54.785572
20
244.237559
11
54.628193
21
245.015815
0
LINE
8
sun
10
54.628193
20
245.015815
11
54.199529
21
245.651301
0
LINE
8
sun
10
54.199529
20
245.651301
11
53.563888
21
246.079733
0
LINE
8
sun
10
53.563888
20
246.079733
11
52.785575
21
246.236829
0
LINE
8
sun
10
52.785575
20
246.236829
11
52.007262
21
246.079733
0
LINE
8
sun
10
52.007262
20
246.079733
11
51.371620
21
245.651301
0
LINE
8
sun
10
51.371620
20
245.651301
11
50.942956
21
245.015815
0
LINE
8
sun
10
50.942956
20
245.015815
11
50.785577
21
244.237559
0
LINE
8
sun
10
50.785577
20
244.237559
11
50.942956
21
243.459304
0
LINE
8
sun
10
50.942956
20
243.459304
11
51.371620
21
242.823818
0
LINE
8
sun
10
51.371620
20
242.823818
11
52.007262
21
242.395385
0
LINE
8
sun
10
52.007262
20
242.395385
11
52.785575
21
242.238289
0
LINE
8
sun
10
52.785575
20
242.238289
11
53.563888
21
242.395385
0
LINE
8
sun
10
53.563888
20
242.395385
11
54.199529
21
242.823818
0
LINE
8
sun
10
54.199529
20
242.823818
11
54.628193
21
243.459304
0
LINE
8
sun
10
54.628193
20
243.459304
11
54.785572
21
244.237559
0
LINE
8
sun
10
54.785572
20
244.237559
11
54.785572
21
244.237559
 0 
ENDSEC
 0 
EOF