<?xml version="1.0" encoding="UTF-8" standalone="no"?>
<!-- Created with Inkscape (http://www.inkscape.org/) -->

<svg
   version="1.1"
   id="svg1"
   width="793.32281"
   height="1122.6331"
   viewBox="0 0 793.32281 1122.6331"
   sodipodi:docname="rohloff-3.svg"
   inkscape:version="1.3.2 (1:1.3.2+202311252150+091e20ef0f)"
   xmlns:inkscape="http://www.inkscape.org/namespaces/inkscape"
   xmlns:sodipodi="http://sodipodi.sourceforge.net/DTD/sodipodi-0.dtd"
   xmlns="http://www.w3.org/2000/svg"
   xmlns:svg="http://www.w3.org/2000/svg">
  <defs
     id="defs1">
    <clipPath
       clipPathUnits="userSpaceOnUse"
       id="clipPath3">
      <path
         d="M 0,0.028 H 594.963 V 841.974 H 0 Z"
         transform="translate(0,2.1850394e-5)"
         clip-rule="evenodd"
         id="path3" />
    </clipPath>
  </defs>
  <sodipodi:namedview
     id="namedview1"
     pagecolor="#ffffff"
     bordercolor="#000000"
     borderopacity="0.25"
     inkscape:showpageshadow="2"
     inkscape:pageopacity="0.0"
     inkscape:pagecheckerboard="0"
     inkscape:deskcolor="#d1d1d1"
     showgrid="false"
     inkscape:zoom="2.0357224"
     inkscape:cx="558.5241"
     inkscape:cy="295.2269"
     inkscape:window-width="1920"
     inkscape:window-height="1003"
     inkscape:window-x="0"
     inkscape:window-y="40"
     inkscape:window-maximized="1"
     inkscape:current-layer="g1"
     inkscape:lockguides="false"
     inkscape:document-units="mm">
    <inkscape:page
       x="0"
       y="0"
       inkscape:label="1"
       id="page1"
       width="793.32281"
       height="1122.6331"
       margin="0"
       bleed="0" />
  </sodipodi:namedview>
  <g
     id="g1"
     inkscape:groupmode="layer"
     inkscape:label="1">
    <g
       id="g65"
       style="stroke-width:0.37795276;stroke-dasharray:none">
      <path
         id="path66"
         style="fill:none;stroke:#00ff00;stroke-width:0.28346458;stroke-linecap:round;stroke-linejoin:bevel;stroke-miterlimit:10;stroke-dasharray:none;stroke-opacity:1"
         transform="matrix(1.3333333,0,0,-1.3333333,0,1122.6331)"
         d="m 406.46,596.692 1.672,0.822 1.446,0.992 1.304,1.333 1.105,1.417 0.822,1.559 0.596,1.701 0.255,1.786 v 1.814 l -0.369,1.786 -0.595,1.7 -0.964,1.559 -1.077,1.418 -1.332,1.219 -1.559,0.963 -1.673,0.709 -1.785,0.369 -1.815,0.113 -1.814,-0.255 -1.701,-0.34 m -28.545,-33.874 36.142,13.237 m -43.71,7.427 36.142,13.21 m -36.114,-13.21 -1.672,-0.85 -1.446,-0.936 -1.332,-1.332 -1.106,-1.446 -0.822,-1.559 -0.595,-1.7 -0.255,-1.815 v -1.785 l 0.368,-1.815 0.596,-1.672 0.964,-1.559 1.105,-1.446 1.304,-1.19 1.587,-0.964 1.673,-0.709 1.786,-0.368 1.814,-0.114 1.786,0.227 1.7,0.369" />
    </g>
    <g
       id="g68"
       style="stroke-width:0.37795276;stroke-dasharray:none">
      <path
         id="path70"
         style="fill:none;stroke:#00ff00;stroke-width:0.28346458;stroke-linecap:round;stroke-linejoin:round;stroke-miterlimit:10;stroke-dasharray:none;stroke-opacity:1"
         transform="matrix(1.3333333,0,0,-1.3333333,0,1122.6331)"
         d="m 440.277,632.352 36.142,13.209 m -28.602,-33.874 36.17,13.068 m -0.028,0 1.672,0.85 1.446,0.964 1.304,1.304 1.077,1.446 0.879,1.559 0.595,1.672 0.255,1.815 v 1.785 l -0.368,1.815 -0.595,1.672 -0.993,1.587 -1.077,1.446 -1.332,1.191 -1.559,0.963 -1.672,0.737 -1.815,0.341 -1.785,0.113 -1.815,-0.227 -1.672,-0.368 m -36.113,-13.068 -1.673,-0.85 -1.446,-0.964 -1.332,-1.304 -1.077,-1.446 -0.85,-1.559 -0.596,-1.672 -0.226,-1.814 v -1.786 l 0.368,-1.814 0.595,-1.701 0.964,-1.559 1.077,-1.446 1.304,-1.191 1.559,-0.963 1.701,-0.709 1.786,-0.369 1.814,-0.113 1.814,0.227 1.673,0.368" />
    </g>
    <g
       id="g85"
       style="stroke-width:0.37795276;stroke-dasharray:none">
      <path
         id="path86"
         style="fill:none;stroke:#000000;stroke-width:0.377953;stroke-linecap:round;stroke-linejoin:bevel;stroke-miterlimit:10;stroke-dasharray:none;stroke-opacity:1"
         d="m 441.25999,186.70912 c 9.17589,19.16904 27.13392,33.85515 47.73466,39.08134 m -47.99999,-38.92934 c -5.47548,-12.37161 -23.90424,-15.01524 -32.71107,-4.74768 -6.07232,6.56944 -6.91607,16.6929 -2.2116,24.28768 m 82.88533,19.50267 c 49.24283,12.54731 100.13119,18.0288 150.91733,16.81867 m -211.84266,1.928 c -7.38267,-12.76223 -14.76533,-25.52444 -22.148,-38.28667 m -15.00533,119.73466 c 24.82413,-4.5026 44.60212,-27.8003 44.45256,-53.12037 0.3316,-9.89468 -2.58088,-19.73397 -7.29923,-28.36629 m -37.116,81.6 c -14.68727,2.30554 -23.77336,20.04268 -17.02073,33.30284 3.58389,7.86788 12.1091,13.22924 20.6874,13.63982 m -0.0373,0.11334 c 22.4249,1.0831 44.84978,2.16622 67.27467,3.24933 m -0.0747,0 c 5.00877,-0.0331 10.01205,-0.57488 14.74,-2.30533 m 176.352,-63.94934 c -58.79689,21.37956 -117.59377,42.75911 -176.39067,64.13867 m 176.35333,-64.28933 c 17.47919,-5.93892 27.53378,-27.0481 20.81515,-44.30698 -4.60539,-14.17815 -18.93571,-23.38661 -33.62715,-23.11969" />
    </g>
  </g>
</svg>
