<?xml version="1.0" encoding="UTF-8" standalone="no"?>
<!-- Created with Inkscape (http://www.inkscape.org/) -->

<svg
   version="1.1"
   id="svg375"
   width="141.10759mm"
   height="154.62251mm"
   viewBox="0 0 533.32001 584.40002"
   sodipodi:docname="wheel_on_track_2.svg"
   inkscape:version="1.1 (1:1.1+202105261517+ce6663b3b7)"
   inkscape:export-filename="/home/thomas/Documents/dev/own/3D-Kram/railtrackwheel/wheel_on_track_2.png"
   inkscape:export-xdpi="96"
   inkscape:export-ydpi="96"
   xmlns:inkscape="http://www.inkscape.org/namespaces/inkscape"
   xmlns:sodipodi="http://sodipodi.sourceforge.net/DTD/sodipodi-0.dtd"
   xmlns="http://www.w3.org/2000/svg"
   xmlns:svg="http://www.w3.org/2000/svg">
  <defs
     id="defs379" />
  <sodipodi:namedview
     id="namedview377"
     pagecolor="#ffffff"
     bordercolor="#666666"
     borderopacity="1.0"
     inkscape:pageshadow="2"
     inkscape:pageopacity="0.0"
     inkscape:pagecheckerboard="0"
     showgrid="false"
     showguides="false"
     inkscape:document-units="mm"
     inkscape:zoom="0.70519147"
     inkscape:cx="516.17187"
     inkscape:cy="571.476"
     inkscape:window-width="1920"
     inkscape:window-height="1006"
     inkscape:window-x="0"
     inkscape:window-y="40"
     inkscape:window-maximized="1"
     inkscape:current-layer="layer1"
     units="mm" />
  <g
     inkscape:groupmode="layer"
     id="layer1"
     inkscape:label="Railtrack Drawing"
     style="display:inline">
    <path
       style="display:inline;opacity:0.817936;fill:#808080;stroke:#000000;stroke-width:7.55906;stroke-linecap:round;stroke-linejoin:round;stroke-opacity:1;stop-color:#000000"
       d="m 175.54815,495.25553 c 0.42257,-17.76899 5.38304,-126.3946 -16.64333,-141.07143 -17.34696,-10.91851 -52.70274,-22.28072 -79.054996,-33.4211 -3.40831,-2.75405 -8.1579,-4.11176 -9.14991,-9.38129 l 4.45415,-84.74796 c 0.60644,-6.28115 1.3201,-12.32693 3.11967,-15.98917 1.258,-3.55923 2.46883,-7.07199 8.35622,-15.1912 3.62835,-4.39917 7.85246,-7.71899 12.32473,-10.5892 l 16.188686,-7.31703 c 14.16282,-4.69751 33.45522,-6.74059 53.8538,-8.21125 l 37.88399,0.4156 c 37.41042,1.22388 79.44718,-0.40286 108.93951,15.75264 5.65916,3.75805 7.88106,7.18023 11.41321,10.73044 3.47127,3.92809 5.52832,8.83116 7.82017,13.57236 l 3.87883,16.6556 3.24707,80.12995 c -0.42261,8.29789 -3.23797,12.22627 -7.40044,13.69465 l -70.03727,28.02076 -10.26175,6.19963 c -2.00032,2.85276 -3.9693,5.61683 -6.61538,10.29734 -2.06461,5.1382 -4.21182,10.11362 -5.51288,16.75657 -5.79481,38.89342 -5.26124,82.00656 -5.4597,124.63158 l -60.51132,-0.34519 z"
       id="path438-3"
       sodipodi:nodetypes="cccccccccccccccccccccccc" />
  </g>
  <g
     inkscape:groupmode="layer"
     id="layer2"
     inkscape:label="Wheel Drawing"
     style="display:inline">
    <g
       id="g16431"
       transform="translate(-3.0257106,4.1118261)">
      <path
         style="opacity:0.817936;fill:#5599ff;stroke:#0000ff;stroke-width:7.55906;stroke-linecap:round;stroke-linejoin:round;stroke-opacity:1;stop-color:#000000"
         d="m 99.968284,150.83167 118.853636,5.31753 c 29.28364,1.33924 58.57322,3.79594 87.86774,7.18597 18.34039,2.08398 36.09856,4.8582 52.655,9.05714 16.01374,4.1172 24.28589,18.38377 27.94598,32.29781 l 3.00516,15.89077 c 0.75508,2.4228 9.90191,1.25258 16.74346,-0.77612 7.77331,-2.30499 14.25056,-6.18364 16.18131,-7.51543 -3.78526,0.002 -4.49703,1.57872 -6.22613,-1.5227 -1.47762,-2.65034 -1.6528,-7.36518 -0.79078,-10.48536 0.46901,-1.69768 2.76862,-3.77701 7.1002,-3.96817 4.03201,-0.0307 31.49213,-0.394 37.65115,0.0258 2.90871,0.19825 6.57209,1.90954 6.64661,4.43044 0.0761,2.5762 0.0646,7.35326 -0.31,9.25366 -0.57437,2.91415 -4.29978,2.66958 -6.11743,2.77631 1.13224,1.57173 21.53183,2.4776 23.83303,-9.86449 0.96228,-3.40627 4.28649,-82.87408 6.42974,-124.311119 1.23057,-10.047293 -2.17228,-14.410927 -12.40241,-15.081342 L 98.385834,63.212901 c -4.01032,0.05844 -5.64289,1.651648 -5.48599,4.928002 l 0.0265,75.856827 c 0.53925,3.70726 2.93703,5.95535 7.04192,6.83394 z"
         id="path858"
         sodipodi:nodetypes="ccccccscsscsssccccccccc"
         inkscape:export-filename="/home/thomas/Documents/dev/own/3D-Kram/railtrackwheel/wheel_on_track_2.png"
         inkscape:export-xdpi="96"
         inkscape:export-ydpi="96" />
      <g
         id="g16425">
        <circle
           style="opacity:1;fill:#ff9955;stroke:#552200;stroke-width:1.88976;stroke-linecap:round;stroke-linejoin:round;stroke-miterlimit:4;stroke-dasharray:none;stroke-opacity:1;stop-color:#000000"
           id="path1743"
           cx="441.57397"
           cy="258.91788"
           r="40.290745" />
        <path
           style="opacity:1;fill:none;stroke:#1a1a1a;stroke-width:3.77953;stroke-linecap:round;stroke-linejoin:round;stroke-miterlimit:4;stroke-dasharray:none;stop-color:#000000"
           d="m 428.42169,207.17214 c -1.38281,0.27514 -6.54719,0.83571 -7.2026,-0.24894 -0.72273,-1.19607 -0.98498,-4.67913 -0.23004,-4.6483 0,0 7.15785,-0.69134 7.31391,0.5361 0.43375,3.41143 0.14774,8.54305 0.23098,10.56126 0.12356,2.996 -2.54623,4.08273 -4.59319,4.97459 -15.64376,6.81598 -26.58016,22.41534 -26.58016,40.56904 0,24.42837 19.80311,44.23148 44.23148,44.23148 24.42837,0 44.23148,-19.80311 44.23148,-44.23148 0,-15.90931 -8.39938,-29.85684 -21.00556,-37.65002 -1.86254,-1.15143 -3.85455,-2.12318 -5.93135,-2.93924 -1.67393,-0.65777 -2.93243,-1.83591 -3.40203,-4.48999 l 0.24361,-11.66928 c 6.5493,0.007 2.48401,0.23185 6.11738,0.30265 l 0.0239,5.33626 -6.07971,-0.18566"
           id="path6522"
           sodipodi:nodetypes="cssssssssssccccc" />
      </g>
    </g>
  </g>
</svg>
